<?plantuml 1.2026.2?><svg xmlns="http://www.w3.org/2000/svg" xmlns:xlink="http://www.w3.org/1999/xlink" contentStyleType="text/css" data-diagram-type="SEQUENCE" height="1053px" preserveAspectRatio="none" style="width:1318px;height:1053px;background:#FFFFFF;" version="1.1" viewBox="0 0 1318 1053" width="1318px" zoomAndPan="magnify"><title>Breakpoint/Pause Set After Launch - Intended Flow</title><defs/><g><text fill="#000000" font-family="Verdana" font-size="22" font-weight="bold" lengthAdjust="spacing" textLength="636.7969" x="339.4836" y="35.4209">Breakpoint/Pause Set After Launch - Intended Flow</text><rect fill="#FFFFFF" height="161.4688" style="stroke:#000000;stroke-width:1;" width="1283.7642" x="18" y="425.9688"/><rect fill="#FFFFFF" height="43.9375" style="stroke:none;stroke-width:1;" width="1283.7642" x="18" y="543.5"/><g class="participant-lifeline" data-entity-uid="part1" data-qualified-name="vscode" id="part1-lifeline"><g><title>VS Code</title><rect fill="#000000" fill-opacity="0.00000" height="843.125" width="8" x="56.3774" y="128.9063"/><line style="stroke:#000000;stroke-width:1;stroke-dasharray:5,5;" x1="60" x2="60" y1="128.9063" y2="972.0313"/></g></g><g class="participant-lifeline" data-entity-uid="part2" data-qualified-name="adapter" id="part2-lifeline"><g><title>trust-debug</title><rect fill="#000000" fill-opacity="0.00000" height="843.125" width="8" x="281.6362" y="128.9063"/><line style="stroke:#000000;stroke-width:1;stroke-dasharray:5,5;" x1="285.1172" x2="285.1172" y1="128.9063" y2="972.0313"/></g></g><g class="participant-lifeline" data-entity-uid="part3" data-qualified-name="control" id="part3-lifeline"><g><title>DebugControl</title><rect fill="#000000" fill-opacity="0.00000" height="843.125" width="8" x="562.3101" y="128.9063"/><line style="stroke:#000000;stroke-width:1;stroke-dasharray:5,5;" x1="566.3057" x2="566.3057" y1="128.9063" y2="972.0313"/></g></g><g class="participant-lifeline" data-entity-uid="part4" data-qualified-name="runner" id="part4-lifeline"><g><title>Runner Thread</title><rect fill="#000000" fill-opacity="0.00000" height="843.125" width="8" x="710.5273" y="128.9063"/><line style="stroke:#000000;stroke-width:1;stroke-dasharray:5,5;" x1="714.3145" x2="714.3145" y1="128.9063" y2="972.0313"/></g></g><g class="participant-lifeline" data-entity-uid="part5" data-qualified-name="hook" id="part5-lifeline"><g><title>on_statement_inner..</title><rect fill="#000000" fill-opacity="0.00000" height="843.125" width="8" x="900.6899" y="128.9063"/><line style="stroke:#000000;stroke-width:1;stroke-dasharray:5,5;" x1="904.4673" x2="904.4673" y1="128.9063" y2="972.0313"/></g></g><g class="participant-lifeline" data-entity-uid="part6" data-qualified-name="stop" id="part6-lifeline"><g><title>StopCoordinator</title><rect fill="#000000" fill-opacity="0.00000" height="843.125" width="8" x="1213.4995" y="128.9063"/><line style="stroke:#000000;stroke-width:1;stroke-dasharray:5,5;" x1="1217.2349" x2="1217.2349" y1="128.9063" y2="972.0313"/></g></g><g class="participant participant-head" data-entity-uid="part1" data-qualified-name="vscode" id="part1-head"><text fill="#000000" font-family="Verdana" font-size="14" lengthAdjust="spacing" textLength="58.7549" x="28" y="125.6045">VS Code</text><ellipse cx="60.3774" cy="60.6094" fill="#FFFFFF" rx="8" ry="8" style="stroke:#000000;stroke-width:1;"/><path d="M60.3774,68.6094 L60.3774,95.6094 M47.3774,76.6094 L73.3774,76.6094 M60.3774,95.6094 L47.3774,110.6094 M60.3774,95.6094 L73.3774,110.6094" fill="none" style="stroke:#000000;stroke-width:1;"/></g><g class="participant participant-tail" data-entity-uid="part1" data-qualified-name="vscode" id="part1-tail"><text fill="#000000" font-family="Verdana" font-size="14" lengthAdjust="spacing" textLength="58.7549" x="28" y="984.0264">VS Code</text><ellipse cx="60.3774" cy="996.3281" fill="#FFFFFF" rx="8" ry="8" style="stroke:#000000;stroke-width:1;"/><path d="M60.3774,1004.3281 L60.3774,1031.3281 M47.3774,1012.3281 L73.3774,1012.3281 M60.3774,1031.3281 L47.3774,1046.3281 M60.3774,1031.3281 L73.3774,1046.3281" fill="none" style="stroke:#000000;stroke-width:1;"/></g><g class="participant participant-head" data-entity-uid="part2" data-qualified-name="adapter" id="part2-head"><rect fill="#FFFFFF" height="46.5938" rx="2.5" ry="2.5" style="stroke:#000000;stroke-width:1;" width="103.0381" x="234.1172" y="81.3125"/><text fill="#000000" font-family="Verdana" font-size="14" lengthAdjust="spacing" textLength="82.0996" x="244.5864" y="101.3076">trust-debug</text><text fill="#000000" font-family="Verdana" font-size="14" lengthAdjust="spacing" textLength="89.0381" x="241.1172" y="117.6045">DAP Adapter</text></g><g class="participant participant-tail" data-entity-uid="part2" data-qualified-name="adapter" id="part2-tail"><rect fill="#FFFFFF" height="46.5938" rx="2.5" ry="2.5" style="stroke:#000000;stroke-width:1;" width="103.0381" x="234.1172" y="971.0313"/><text fill="#000000" font-family="Verdana" font-size="14" lengthAdjust="spacing" textLength="82.0996" x="244.5864" y="991.0264">trust-debug</text><text fill="#000000" font-family="Verdana" font-size="14" lengthAdjust="spacing" textLength="89.0381" x="241.1172" y="1007.3232">DAP Adapter</text></g><g class="participant participant-head" data-entity-uid="part3" data-qualified-name="control" id="part3-head"><rect fill="#FFFFFF" height="46.5938" rx="2.5" ry="2.5" style="stroke:#000000;stroke-width:1;" width="118.0088" x="507.3057" y="81.3125"/><text fill="#000000" font-family="Verdana" font-size="14" lengthAdjust="spacing" textLength="96.9541" x="517.833" y="101.3076">DebugControl</text><text fill="#000000" font-family="Verdana" font-size="14" lengthAdjust="spacing" textLength="104.0088" x="514.3057" y="117.6045">(trust-runtime)</text></g><g class="participant participant-tail" data-entity-uid="part3" data-qualified-name="control" id="part3-tail"><rect fill="#FFFFFF" height="46.5938" rx="2.5" ry="2.5" style="stroke:#000000;stroke-width:1;" width="118.0088" x="507.3057" y="971.0313"/><text fill="#000000" font-family="Verdana" font-size="14" lengthAdjust="spacing" textLength="96.9541" x="517.833" y="991.0264">DebugControl</text><text fill="#000000" font-family="Verdana" font-size="14" lengthAdjust="spacing" textLength="104.0088" x="514.3057" y="1007.3232">(trust-runtime)</text></g><g class="participant participant-head" data-entity-uid="part4" data-qualified-name="runner" id="part4-head"><rect fill="#FFFFFF" height="30.2969" rx="2.5" ry="2.5" style="stroke:#000000;stroke-width:1;" width="118.4258" x="655.3145" y="97.6094"/><text fill="#000000" font-family="Verdana" font-size="14" lengthAdjust="spacing" textLength="104.4258" x="662.3145" y="117.6045">Runner Thread</text></g><g class="participant participant-tail" data-entity-uid="part4" data-qualified-name="runner" id="part4-tail"><rect fill="#FFFFFF" height="30.2969" rx="2.5" ry="2.5" style="stroke:#000000;stroke-width:1;" width="118.4258" x="655.3145" y="971.0313"/><text fill="#000000" font-family="Verdana" font-size="14" lengthAdjust="spacing" textLength="104.4258" x="662.3145" y="991.0264">Runner Thread</text></g><g class="participant participant-head" data-entity-uid="part5" data-qualified-name="hook" id="part5-head"><rect fill="#FFFFFF" height="46.5938" rx="2.5" ry="2.5" style="stroke:#000000;stroke-width:1;" width="164.4453" x="822.4673" y="81.3125"/><text fill="#000000" font-family="Verdana" font-size="14" lengthAdjust="spacing" textLength="150.4453" x="829.4673" y="101.3076">on_statement_inner()</text><text fill="#000000" font-family="Verdana" font-size="14" lengthAdjust="spacing" textLength="81.8057" x="863.7871" y="117.6045">DebugHook</text></g><g class="participant participant-tail" data-entity-uid="part5" data-qualified-name="hook" id="part5-tail"><rect fill="#FFFFFF" height="46.5938" rx="2.5" ry="2.5" style="stroke:#000000;stroke-width:1;" width="164.4453" x="822.4673" y="971.0313"/><text fill="#000000" font-family="Verdana" font-size="14" lengthAdjust="spacing" textLength="150.4453" x="829.4673" y="991.0264">on_statement_inner()</text><text fill="#000000" font-family="Verdana" font-size="14" lengthAdjust="spacing" textLength="81.8057" x="863.7871" y="1007.3232">DebugHook</text></g><g class="participant participant-head" data-entity-uid="part6" data-qualified-name="stop" id="part6-head"><rect fill="#FFFFFF" height="30.2969" rx="2.5" ry="2.5" style="stroke:#000000;stroke-width:1;" width="128.5293" x="1153.2349" y="97.6094"/><text fill="#000000" font-family="Verdana" font-size="14" lengthAdjust="spacing" textLength="114.5293" x="1160.2349" y="117.6045">StopCoordinator</text></g><g class="participant participant-tail" data-entity-uid="part6" data-qualified-name="stop" id="part6-tail"><rect fill="#FFFFFF" height="30.2969" rx="2.5" ry="2.5" style="stroke:#000000;stroke-width:1;" width="128.5293" x="1153.2349" y="971.0313"/><text fill="#000000" font-family="Verdana" font-size="14" lengthAdjust="spacing" textLength="114.5293" x="1160.2349" y="991.0264">StopCoordinator</text></g><rect fill="#FFFFFF" height="3" style="stroke:#FFFFFF;stroke-width:1;" width="1306.7642" x="5" y="159.4727"/><line style="stroke:#000000;stroke-width:0.5;" x1="5" x2="1311.7642" y1="159.4727" y2="159.4727"/><line style="stroke:#000000;stroke-width:0.5;" x1="5" x2="1311.7642" y1="162.4727" y2="162.4727"/><rect fill="#FFFFFF" height="23.1328" style="stroke:#000000;stroke-width:1;" width="200.9639" x="557.9001" y="148.9063"/><text fill="#000000" font-family="Verdana" font-size="13" font-weight="bold" lengthAdjust="spacing" textLength="182.438" x="563.9001" y="164.9731">Session Already Running</text><path d="M222,187.0391 L222,212.0391 L776,212.0391 L776,197.0391 L766,187.0391 L222,187.0391" fill="#FFFFFF" style="stroke:#000000;stroke-width:1;"/><path d="M766,187.0391 L766,197.0391 L776,197.0391 L766,187.0391" fill="#FFFFFF" style="stroke:#000000;stroke-width:1;"/><text fill="#000000" font-family="Verdana" font-size="13" lengthAdjust="spacing" textLength="317.9604" x="335.8313" y="204.106">Debug session is launched and runner is cycling.</text><rect fill="#FFFFFF" height="3" style="stroke:#FFFFFF;stroke-width:1;" width="1306.7642" x="5" y="237.7383"/><line style="stroke:#000000;stroke-width:0.5;" x1="5" x2="1311.7642" y1="237.7383" y2="237.7383"/><line style="stroke:#000000;stroke-width:0.5;" x1="5" x2="1311.7642" y1="240.7383" y2="240.7383"/><rect fill="#FFFFFF" height="23.1328" style="stroke:#000000;stroke-width:1;" width="261.73" x="527.5171" y="227.1719"/><text fill="#000000" font-family="Verdana" font-size="13" font-weight="bold" lengthAdjust="spacing" textLength="243.2041" x="533.5171" y="243.2388">Breakpoint Added While Running</text><g class="message" data-entity-1="part1" data-entity-2="part2" id="msg1"><polygon fill="#000000" points="273.6362,277.4375,283.6362,281.4375,273.6362,285.4375,277.6362,281.4375" style="stroke:#000000;stroke-width:1;"/><line style="stroke:#000000;stroke-width:1;" x1="60.3774" x2="279.6362" y1="281.4375" y2="281.4375"/><text fill="#000000" font-family="Verdana" font-size="13" lengthAdjust="spacing" textLength="175.6523" x="85.1807" y="276.3716">setBreakpoints(Main.st:14)</text></g><g class="message" data-entity-1="part2" data-entity-2="part3" id="msg2"><polygon fill="#000000" points="554.3101,306.5703,564.3101,310.5703,554.3101,314.5703,558.3101,310.5703" style="stroke:#000000;stroke-width:1;"/><line style="stroke:#000000;stroke-width:1;" x1="285.6362" x2="560.3101" y1="310.5703" y2="310.5703"/><text fill="#000000" font-family="Verdana" font-size="13" lengthAdjust="spacing" textLength="256.6738" x="297.6362" y="305.5044">set_breakpoints_for_file(file_id, bp@14)</text></g><g class="message" data-entity-1="part2" data-entity-2="part1" id="msg3"><polygon fill="#000000" points="71.3774,335.7031,61.3774,339.7031,71.3774,343.7031,67.3774,339.7031" style="stroke:#000000;stroke-width:1;"/><line style="stroke:#000000;stroke-width:1;stroke-dasharray:2,2;" x1="65.3774" x2="284.6362" y1="339.7031" y2="339.7031"/><text fill="#000000" font-family="Verdana" font-size="13" lengthAdjust="spacing" textLength="123.4619" x="111.2759" y="334.6372">verified breakpoint</text></g><g class="message" data-entity-1="part4" data-entity-2="part5" id="msg4"><polygon fill="#000000" points="892.6899,364.8359,902.6899,368.8359,892.6899,372.8359,896.6899,368.8359" style="stroke:#000000;stroke-width:1;"/><line style="stroke:#000000;stroke-width:1;" x1="714.5273" x2="898.6899" y1="368.8359" y2="368.8359"/><text fill="#000000" font-family="Verdana" font-size="13" lengthAdjust="spacing" textLength="166.1626" x="726.5273" y="363.77">next statement boundary</text></g><g class="message" data-entity-1="part5" data-entity-2="part5" id="msg5"><line style="stroke:#000000;stroke-width:1;" x1="904.6899" x2="946.6899" y1="397.9688" y2="397.9688"/><line style="stroke:#000000;stroke-width:1;" x1="946.6899" x2="946.6899" y1="397.9688" y2="410.9688"/><line style="stroke:#000000;stroke-width:1;" x1="905.6899" x2="946.6899" y1="410.9688" y2="410.9688"/><polygon fill="#000000" points="915.6899,406.9688,905.6899,410.9688,915.6899,414.9688,911.6899,410.9688" style="stroke:#000000;stroke-width:1;"/><text fill="#000000" font-family="Verdana" font-size="13" lengthAdjust="spacing" textLength="194.3525" x="911.6899" y="392.9028">matches_breakpoint(location)</text></g><path d="M18,425.9688 L82.4429,425.9688 L82.4429,433.1016 L72.4429,443.1016 L18,443.1016 L18,425.9688" fill="#FFFFFF" style="stroke:#000000;stroke-width:1;"/><rect fill="none" height="161.4688" style="stroke:#000000;stroke-width:1;" width="1283.7642" x="18" y="425.9688"/><text fill="#000000" font-family="Verdana" font-size="13" font-weight="bold" lengthAdjust="spacing" textLength="19.4429" x="33" y="439.0356">alt</text><text fill="#000000" font-family="Verdana" font-size="11" font-weight="bold" lengthAdjust="spacing" textLength="212.0186" x="97.4429" y="438.1792">[overlap / exact location matches]</text><g class="message" data-entity-1="part5" data-entity-2="part5" id="msg6"><line style="stroke:#000000;stroke-width:1;" x1="904.6899" x2="946.6899" y1="464.2344" y2="464.2344"/><line style="stroke:#000000;stroke-width:1;" x1="946.6899" x2="946.6899" y1="464.2344" y2="477.2344"/><line style="stroke:#000000;stroke-width:1;" x1="905.6899" x2="946.6899" y1="477.2344" y2="477.2344"/><polygon fill="#000000" points="915.6899,473.2344,905.6899,477.2344,915.6899,481.2344,911.6899,477.2344" style="stroke:#000000;stroke-width:1;"/><text fill="#000000" font-family="Verdana" font-size="13" lengthAdjust="spacing" textLength="144.9995" x="911.6899" y="459.1685">emit_stop(Breakpoint)</text></g><g class="message" data-entity-1="part5" data-entity-2="part6" id="msg7"><polygon fill="#000000" points="1205.4995,502.3672,1215.4995,506.3672,1205.4995,510.3672,1209.4995,506.3672" style="stroke:#000000;stroke-width:1;"/><line style="stroke:#000000;stroke-width:1;" x1="904.6899" x2="1211.4995" y1="506.3672" y2="506.3672"/><text fill="#000000" font-family="Verdana" font-size="13" lengthAdjust="spacing" textLength="214.9253" x="953.6321" y="501.3013">DebugStop{reason=Breakpoint}</text></g><g class="message" data-entity-1="part6" data-entity-2="part1" id="msg8"><polygon fill="#000000" points="71.3774,531.5,61.3774,535.5,71.3774,539.5,67.3774,535.5" style="stroke:#000000;stroke-width:1;"/><line style="stroke:#000000;stroke-width:1;" x1="65.3774" x2="1216.4995" y1="535.5" y2="535.5"/><text fill="#000000" font-family="Verdana" font-size="13" lengthAdjust="spacing" textLength="200.0908" x="538.8931" y="530.4341">stopped(reason="breakpoint")</text></g><line style="stroke:#000000;stroke-width:1;stroke-dasharray:2,2;" x1="18" x2="1301.7642" y1="544.5" y2="544.5"/><text fill="#000000" font-family="Verdana" font-size="11" font-weight="bold" lengthAdjust="spacing" textLength="125.7266" x="23" y="554.7104">[not this statement]</text><g class="message" data-entity-1="part5" data-entity-2="part4" id="msg9"><polygon fill="#000000" points="725.5273,575.4375,715.5273,579.4375,725.5273,583.4375,721.5273,579.4375" style="stroke:#000000;stroke-width:1;"/><line style="stroke:#000000;stroke-width:1;stroke-dasharray:2,2;" x1="719.5273" x2="903.6899" y1="579.4375" y2="579.4375"/><text fill="#000000" font-family="Verdana" font-size="13" lengthAdjust="spacing" textLength="94.2563" x="762.4805" y="574.3716">continue cycle</text></g><rect fill="#FFFFFF" height="3" style="stroke:#FFFFFF;stroke-width:1;" width="1306.7642" x="5" y="615.0039"/><line style="stroke:#000000;stroke-width:0.5;" x1="5" x2="1311.7642" y1="615.0039" y2="615.0039"/><line style="stroke:#000000;stroke-width:0.5;" x1="5" x2="1311.7642" y1="618.0039" y2="618.0039"/><rect fill="#FFFFFF" height="23.1328" style="stroke:#000000;stroke-width:1;" width="256.6074" x="530.0784" y="604.4375"/><text fill="#000000" font-family="Verdana" font-size="13" font-weight="bold" lengthAdjust="spacing" textLength="238.0815" x="536.0784" y="620.5044">Pause Requested While Running</text><g class="message" data-entity-1="part1" data-entity-2="part2" id="msg10"><polygon fill="#000000" points="273.6362,654.7031,283.6362,658.7031,273.6362,662.7031,277.6362,658.7031" style="stroke:#000000;stroke-width:1;"/><line style="stroke:#000000;stroke-width:1;" x1="60.3774" x2="279.6362" y1="658.7031" y2="658.7031"/><text fill="#000000" font-family="Verdana" font-size="13" lengthAdjust="spacing" textLength="123.519" x="111.2473" y="653.6372">pause(threadId=1)</text></g><g class="message" data-entity-1="part2" data-entity-2="part3" id="msg11"><polygon fill="#000000" points="554.3101,683.8359,564.3101,687.8359,554.3101,691.8359,558.3101,687.8359" style="stroke:#000000;stroke-width:1;"/><line style="stroke:#000000;stroke-width:1;" x1="285.6362" x2="560.3101" y1="687.8359" y2="687.8359"/><text fill="#000000" font-family="Verdana" font-size="13" lengthAdjust="spacing" textLength="198.0532" x="326.9465" y="682.77">pause()  'global pause request</text></g><g class="message" data-entity-1="part2" data-entity-2="part1" id="msg12"><polygon fill="#000000" points="71.3774,712.9688,61.3774,716.9688,71.3774,720.9688,67.3774,716.9688" style="stroke:#000000;stroke-width:1;"/><line style="stroke:#000000;stroke-width:1;stroke-dasharray:2,2;" x1="65.3774" x2="284.6362" y1="716.9688" y2="716.9688"/><text fill="#000000" font-family="Verdana" font-size="13" lengthAdjust="spacing" textLength="201.2588" x="72.3774" y="711.9028">pause response(success=true)</text></g><g class="message" data-entity-1="part4" data-entity-2="part5" id="msg13"><polygon fill="#000000" points="892.6899,742.1016,902.6899,746.1016,892.6899,750.1016,896.6899,746.1016" style="stroke:#000000;stroke-width:1;"/><line style="stroke:#000000;stroke-width:1;" x1="714.5273" x2="898.6899" y1="746.1016" y2="746.1016"/><text fill="#000000" font-family="Verdana" font-size="13" lengthAdjust="spacing" textLength="166.1626" x="726.5273" y="741.0356">next statement boundary</text></g><g class="message" data-entity-1="part5" data-entity-2="part5" id="msg14"><line style="stroke:#000000;stroke-width:1;" x1="904.6899" x2="946.6899" y1="775.2344" y2="775.2344"/><line style="stroke:#000000;stroke-width:1;" x1="946.6899" x2="946.6899" y1="775.2344" y2="788.2344"/><line style="stroke:#000000;stroke-width:1;" x1="905.6899" x2="946.6899" y1="788.2344" y2="788.2344"/><polygon fill="#000000" points="915.6899,784.2344,905.6899,788.2344,915.6899,792.2344,911.6899,788.2344" style="stroke:#000000;stroke-width:1;"/><text fill="#000000" font-family="Verdana" font-size="13" lengthAdjust="spacing" textLength="298.8096" x="911.6899" y="770.1685">mode == Paused &amp;&amp; pending_stop == Pause</text></g><g class="message" data-entity-1="part5" data-entity-2="part5" id="msg15"><line style="stroke:#000000;stroke-width:1;" x1="904.6899" x2="946.6899" y1="817.3672" y2="817.3672"/><line style="stroke:#000000;stroke-width:1;" x1="946.6899" x2="946.6899" y1="817.3672" y2="830.3672"/><line style="stroke:#000000;stroke-width:1;" x1="905.6899" x2="946.6899" y1="830.3672" y2="830.3672"/><polygon fill="#000000" points="915.6899,826.3672,905.6899,830.3672,915.6899,834.3672,911.6899,830.3672" style="stroke:#000000;stroke-width:1;"/><text fill="#000000" font-family="Verdana" font-size="13" lengthAdjust="spacing" textLength="112.9058" x="911.6899" y="812.3013">emit_stop(Pause)</text></g><g class="message" data-entity-1="part5" data-entity-2="part6" id="msg16"><polygon fill="#000000" points="1205.4995,855.5,1215.4995,859.5,1205.4995,863.5,1209.4995,859.5" style="stroke:#000000;stroke-width:1;"/><line style="stroke:#000000;stroke-width:1;" x1="904.6899" x2="1211.4995" y1="859.5" y2="859.5"/><text fill="#000000" font-family="Verdana" font-size="13" lengthAdjust="spacing" textLength="182.8315" x="969.679" y="854.4341">DebugStop{reason=Pause}</text></g><g class="message" data-entity-1="part6" data-entity-2="part1" id="msg17"><polygon fill="#000000" points="71.3774,884.6328,61.3774,888.6328,71.3774,892.6328,67.3774,888.6328" style="stroke:#000000;stroke-width:1;"/><line style="stroke:#000000;stroke-width:1;" x1="65.3774" x2="1216.4995" y1="888.6328" y2="888.6328"/><text fill="#000000" font-family="Verdana" font-size="13" lengthAdjust="spacing" textLength="169.0762" x="554.4004" y="883.5669">stopped(reason="pause")</text></g><path d="M10,901.6328 L10,956.6328 L1268,956.6328 L1268,911.6328 L1258,901.6328 L10,901.6328" fill="#FFFFFF" style="stroke:#000000;stroke-width:1;"/><path d="M1258,901.6328 L1258,911.6328 L1268,911.6328 L1258,901.6328" fill="#FFFFFF" style="stroke:#000000;stroke-width:1;"/><text fill="#000000" font-family="Verdana" font-size="13" lengthAdjust="spacing" textLength="204.9531" x="486.8611" y="918.6997">Expected user-visible behavior:</text><text fill="#000000" font-family="Verdana" font-size="13" lengthAdjust="spacing" textLength="190.7598" x="495.1257" y="933.8325">- line highlight / paused state</text><text fill="#000000" font-family="Verdana" font-size="13" lengthAdjust="spacing" textLength="287.7773" x="495.1257" y="948.9653">- continue/step controls become meaningful</text><?plantuml-src fLHDQzmm4BthLqptaDgGJGZqjE3IRTBIG0CXAUqbOBJox5f4AwdIU9jG-jyxakrujpIaq8inclVcupsDNb6BMmHlfBOYtclhPP1RYFYzGwlm2cEK6rmQlR6Wq1868KYJGNWVKDvxfosTNiik8jmYmNBD2FWiEwjQcCCb4so33NmqxeSGKf4BCFjw2-UkmHd82Bke-5TmLT9AUsa9PXIwIFC6Lztcpbuihs7PICzvCq7s_uUCYuGzTvQ2CtUsw1E4pfBUOfbfgWyUqcuwQxdTBosFqcHOo2U7A6VhI99O9akrJl6YvBvIoK_EtMTUop-7h5jo_jovq6WhUUgCYdmcH5MnL35gPs5fKkL7I8reku6g4jOHWjjnMyEanqDFkI0RqpDr19DLPd6bROR6qx5wL8PpdGXM7bAsN75oYzLCZdnhDPkuLxXt0kPlnyAmu6eq4MDnnPVa9DBYx4qfHX3Z1srxVBsQ2FNQXNhDTOhqgNLp32l_xe3DzA7m0dXelTRSsvH2Y64mnYMD6MNnWU3945YvpZOoF8eSdc1RIInEt6kdC4v9Ol6ulA6iiP4UJW4V-6B261sP0k2FbBZLL2SFYqcKSW-MGWpBHYNxVp8gEbjDw5-CpgZziTE1nwOOqBEfurafqF1ciOj0hOxJs4zLET6Wq2Bxe6s7-GfWyZzRts_dJTheIF_gl4-aWl9cN3RLsJE6zx0IuFN6k9Kq_G64ljZVRHuXqJlBvDWfnPUwugN5yZ_yJid7QHiuEWBF0l24sR6dY7ZMqnmknKjcPjWlyQABUKesS6-XU-nnVWK-F7XKoGr6XVbEHxrYKrROofrsOS7-pe7N6A7LcvPVtvRuelf-jYn6HeoEdxAnVhGbSXhb-57VeamMhpiplGM_0G00?></g></svg>