<?plantuml 1.2026.2?><svg xmlns="http://www.w3.org/2000/svg" xmlns:xlink="http://www.w3.org/1999/xlink" contentStyleType="text/css" data-diagram-type="SEQUENCE" height="946px" preserveAspectRatio="none" style="width:1106px;height:946px;background:#FFFFFF;" version="1.1" viewBox="0 0 1106 946" width="1106px" zoomAndPan="magnify"><title>Breakpoint/Pause Set After Launch - Actual Observed (from /tmp/trust-debug-dap.log)</title><defs/><g><text fill="#000000" font-family="Verdana" font-size="22" font-weight="bold" lengthAdjust="spacing" textLength="1073.3594" x="15" y="35.4209">Breakpoint/Pause Set After Launch - Actual Observed (from /tmp/trust-debug-dap.log)</text><g class="participant-lifeline" data-entity-uid="part1" data-qualified-name="vscode" id="part1-lifeline"><g><title>VS Code</title><rect fill="#000000" fill-opacity="0.00000" height="736.3203" width="8" x="66.2375" y="128.9063"/><line style="stroke:#000000;stroke-width:1;stroke-dasharray:5,5;" x1="69.8601" x2="69.8601" y1="128.9063" y2="865.2266"/></g></g><g class="participant-lifeline" data-entity-uid="part2" data-qualified-name="adapter" id="part2-lifeline"><g><title>trust-debug</title><rect fill="#000000" fill-opacity="0.00000" height="736.3203" width="8" x="291.4963" y="128.9063"/><line style="stroke:#000000;stroke-width:1;stroke-dasharray:5,5;" x1="294.9773" x2="294.9773" y1="128.9063" y2="865.2266"/></g></g><g class="participant-lifeline" data-entity-uid="part3" data-qualified-name="control" id="part3-lifeline"><g><title>DebugControl</title><rect fill="#000000" fill-opacity="0.00000" height="736.3203" width="8" x="492.0945" y="128.9063"/><line style="stroke:#000000;stroke-width:1;stroke-dasharray:5,5;" x1="496.0901" x2="496.0901" y1="128.9063" y2="865.2266"/></g></g><g class="participant-lifeline" data-entity-uid="part4" data-qualified-name="runner" id="part4-lifeline"><g><title>Runner Thread</title><rect fill="#000000" fill-opacity="0.00000" height="736.3203" width="8" x="640.3118" y="128.9063"/><line style="stroke:#000000;stroke-width:1;stroke-dasharray:5,5;" x1="644.0989" x2="644.0989" y1="128.9063" y2="865.2266"/></g></g><g class="participant-lifeline" data-entity-uid="part5" data-qualified-name="hook" id="part5-lifeline"><g><title>on_statement_inner..</title><rect fill="#000000" fill-opacity="0.00000" height="736.3203" width="8" x="811.7473" y="128.9063"/><line style="stroke:#000000;stroke-width:1;stroke-dasharray:5,5;" x1="815.5247" x2="815.5247" y1="128.9063" y2="865.2266"/></g></g><g class="participant-lifeline" data-entity-uid="part6" data-qualified-name="stop" id="part6-lifeline"><g><title>StopCoordinator</title><rect fill="#000000" fill-opacity="0.00000" height="736.3203" width="8" x="988.2346" y="128.9063"/><line style="stroke:#000000;stroke-width:1;stroke-dasharray:5,5;" x1="991.97" x2="991.97" y1="128.9063" y2="865.2266"/></g></g><g class="participant participant-head" data-entity-uid="part1" data-qualified-name="vscode" id="part1-head"><text fill="#000000" font-family="Verdana" font-size="14" lengthAdjust="spacing" textLength="58.7549" x="37.8601" y="125.6045">VS Code</text><ellipse cx="70.2375" cy="60.6094" fill="#FFFFFF" rx="8" ry="8" style="stroke:#000000;stroke-width:1;"/><path d="M70.2375,68.6094 L70.2375,95.6094 M57.2375,76.6094 L83.2375,76.6094 M70.2375,95.6094 L57.2375,110.6094 M70.2375,95.6094 L83.2375,110.6094" fill="none" style="stroke:#000000;stroke-width:1;"/></g><g class="participant participant-tail" data-entity-uid="part1" data-qualified-name="vscode" id="part1-tail"><text fill="#000000" font-family="Verdana" font-size="14" lengthAdjust="spacing" textLength="58.7549" x="37.8601" y="877.2217">VS Code</text><ellipse cx="70.2375" cy="889.5234" fill="#FFFFFF" rx="8" ry="8" style="stroke:#000000;stroke-width:1;"/><path d="M70.2375,897.5234 L70.2375,924.5234 M57.2375,905.5234 L83.2375,905.5234 M70.2375,924.5234 L57.2375,939.5234 M70.2375,924.5234 L83.2375,939.5234" fill="none" style="stroke:#000000;stroke-width:1;"/></g><g class="participant participant-head" data-entity-uid="part2" data-qualified-name="adapter" id="part2-head"><rect fill="#FFFFFF" height="46.5938" rx="2.5" ry="2.5" style="stroke:#000000;stroke-width:1;" width="103.0381" x="243.9773" y="81.3125"/><text fill="#000000" font-family="Verdana" font-size="14" lengthAdjust="spacing" textLength="82.0996" x="254.4465" y="101.3076">trust-debug</text><text fill="#000000" font-family="Verdana" font-size="14" lengthAdjust="spacing" textLength="89.0381" x="250.9773" y="117.6045">DAP Adapter</text></g><g class="participant participant-tail" data-entity-uid="part2" data-qualified-name="adapter" id="part2-tail"><rect fill="#FFFFFF" height="46.5938" rx="2.5" ry="2.5" style="stroke:#000000;stroke-width:1;" width="103.0381" x="243.9773" y="864.2266"/><text fill="#000000" font-family="Verdana" font-size="14" lengthAdjust="spacing" textLength="82.0996" x="254.4465" y="884.2217">trust-debug</text><text fill="#000000" font-family="Verdana" font-size="14" lengthAdjust="spacing" textLength="89.0381" x="250.9773" y="900.5186">DAP Adapter</text></g><g class="participant participant-head" data-entity-uid="part3" data-qualified-name="control" id="part3-head"><rect fill="#FFFFFF" height="46.5938" rx="2.5" ry="2.5" style="stroke:#000000;stroke-width:1;" width="118.0088" x="437.0901" y="81.3125"/><text fill="#000000" font-family="Verdana" font-size="14" lengthAdjust="spacing" textLength="96.9541" x="447.6174" y="101.3076">DebugControl</text><text fill="#000000" font-family="Verdana" font-size="14" lengthAdjust="spacing" textLength="104.0088" x="444.0901" y="117.6045">(trust-runtime)</text></g><g class="participant participant-tail" data-entity-uid="part3" data-qualified-name="control" id="part3-tail"><rect fill="#FFFFFF" height="46.5938" rx="2.5" ry="2.5" style="stroke:#000000;stroke-width:1;" width="118.0088" x="437.0901" y="864.2266"/><text fill="#000000" font-family="Verdana" font-size="14" lengthAdjust="spacing" textLength="96.9541" x="447.6174" y="884.2217">DebugControl</text><text fill="#000000" font-family="Verdana" font-size="14" lengthAdjust="spacing" textLength="104.0088" x="444.0901" y="900.5186">(trust-runtime)</text></g><g class="participant participant-head" data-entity-uid="part4" data-qualified-name="runner" id="part4-head"><rect fill="#FFFFFF" height="30.2969" rx="2.5" ry="2.5" style="stroke:#000000;stroke-width:1;" width="118.4258" x="585.0989" y="97.6094"/><text fill="#000000" font-family="Verdana" font-size="14" lengthAdjust="spacing" textLength="104.4258" x="592.0989" y="117.6045">Runner Thread</text></g><g class="participant participant-tail" data-entity-uid="part4" data-qualified-name="runner" id="part4-tail"><rect fill="#FFFFFF" height="30.2969" rx="2.5" ry="2.5" style="stroke:#000000;stroke-width:1;" width="118.4258" x="585.0989" y="864.2266"/><text fill="#000000" font-family="Verdana" font-size="14" lengthAdjust="spacing" textLength="104.4258" x="592.0989" y="884.2217">Runner Thread</text></g><g class="participant participant-head" data-entity-uid="part5" data-qualified-name="hook" id="part5-head"><rect fill="#FFFFFF" height="46.5938" rx="2.5" ry="2.5" style="stroke:#000000;stroke-width:1;" width="164.4453" x="733.5247" y="81.3125"/><text fill="#000000" font-family="Verdana" font-size="14" lengthAdjust="spacing" textLength="150.4453" x="740.5247" y="101.3076">on_statement_inner()</text><text fill="#000000" font-family="Verdana" font-size="14" lengthAdjust="spacing" textLength="81.8057" x="774.8445" y="117.6045">DebugHook</text></g><g class="participant participant-tail" data-entity-uid="part5" data-qualified-name="hook" id="part5-tail"><rect fill="#FFFFFF" height="46.5938" rx="2.5" ry="2.5" style="stroke:#000000;stroke-width:1;" width="164.4453" x="733.5247" y="864.2266"/><text fill="#000000" font-family="Verdana" font-size="14" lengthAdjust="spacing" textLength="150.4453" x="740.5247" y="884.2217">on_statement_inner()</text><text fill="#000000" font-family="Verdana" font-size="14" lengthAdjust="spacing" textLength="81.8057" x="774.8445" y="900.5186">DebugHook</text></g><g class="participant participant-head" data-entity-uid="part6" data-qualified-name="stop" id="part6-head"><rect fill="#FFFFFF" height="30.2969" rx="2.5" ry="2.5" style="stroke:#000000;stroke-width:1;" width="128.5293" x="927.97" y="97.6094"/><text fill="#000000" font-family="Verdana" font-size="14" lengthAdjust="spacing" textLength="114.5293" x="934.97" y="117.6045">StopCoordinator</text></g><g class="participant participant-tail" data-entity-uid="part6" data-qualified-name="stop" id="part6-tail"><rect fill="#FFFFFF" height="30.2969" rx="2.5" ry="2.5" style="stroke:#000000;stroke-width:1;" width="128.5293" x="927.97" y="864.2266"/><text fill="#000000" font-family="Verdana" font-size="14" lengthAdjust="spacing" textLength="114.5293" x="934.97" y="884.2217">StopCoordinator</text></g><rect fill="#FFFFFF" height="3" style="stroke:#FFFFFF;stroke-width:1;" width="1038.6392" x="32.8601" y="159.4727"/><line style="stroke:#000000;stroke-width:0.5;" x1="32.8601" x2="1071.4993" y1="159.4727" y2="159.4727"/><line style="stroke:#000000;stroke-width:0.5;" x1="32.8601" x2="1071.4993" y1="162.4727" y2="162.4727"/><rect fill="#FFFFFF" height="23.1328" style="stroke:#000000;stroke-width:1;" width="200.9639" x="451.6978" y="148.9063"/><text fill="#000000" font-family="Verdana" font-size="13" font-weight="bold" lengthAdjust="spacing" textLength="182.438" x="457.6978" y="164.9731">Session Already Running</text><path d="M231.8601,187.0391 L231.8601,212.0391 L705.8601,212.0391 L705.8601,197.0391 L695.8601,187.0391 L231.8601,187.0391" fill="#FFFFFF" style="stroke:#000000;stroke-width:1;"/><path d="M695.8601,187.0391 L695.8601,197.0391 L705.8601,197.0391 L695.8601,187.0391" fill="#FFFFFF" style="stroke:#000000;stroke-width:1;"/><text fill="#000000" font-family="Verdana" font-size="13" lengthAdjust="spacing" textLength="280.7188" x="324.2744" y="204.106">Runner started; IO polling events continue.</text><rect fill="#FFFFFF" height="3" style="stroke:#FFFFFF;stroke-width:1;" width="1038.6392" x="32.8601" y="237.7383"/><line style="stroke:#000000;stroke-width:0.5;" x1="32.8601" x2="1071.4993" y1="237.7383" y2="237.7383"/><line style="stroke:#000000;stroke-width:0.5;" x1="32.8601" x2="1071.4993" y1="240.7383" y2="240.7383"/><rect fill="#FFFFFF" height="23.1328" style="stroke:#000000;stroke-width:1;" width="261.73" x="421.3147" y="227.1719"/><text fill="#000000" font-family="Verdana" font-size="13" font-weight="bold" lengthAdjust="spacing" textLength="243.2041" x="427.3147" y="243.2388">Breakpoint Added While Running</text><g class="message" data-entity-1="part1" data-entity-2="part2" id="msg1"><polygon fill="#000000" points="283.4963,277.4375,293.4963,281.4375,283.4963,285.4375,287.4963,281.4375" style="stroke:#000000;stroke-width:1;"/><line style="stroke:#000000;stroke-width:1;" x1="70.2375" x2="289.4963" y1="281.4375" y2="281.4375"/><text fill="#000000" font-family="Verdana" font-size="13" lengthAdjust="spacing" textLength="175.6523" x="95.0408" y="276.3716">setBreakpoints(Main.st:14)</text></g><g class="message" data-entity-1="part2" data-entity-2="part3" id="msg2"><polygon fill="#000000" points="484.0945,306.5703,494.0945,310.5703,484.0945,314.5703,488.0945,310.5703" style="stroke:#000000;stroke-width:1;"/><line style="stroke:#000000;stroke-width:1;" x1="295.4963" x2="490.0945" y1="310.5703" y2="310.5703"/><text fill="#000000" font-family="Verdana" font-size="13" lengthAdjust="spacing" textLength="176.5981" x="307.4963" y="305.5044">set_breakpoints_for_file(...)</text></g><g class="message" data-entity-1="part2" data-entity-2="part1" id="msg3"><polygon fill="#000000" points="81.2375,350.8359,71.2375,354.8359,81.2375,358.8359,77.2375,354.8359" style="stroke:#000000;stroke-width:1;"/><line style="stroke:#000000;stroke-width:1;stroke-dasharray:2,2;" x1="75.2375" x2="294.4963" y1="354.8359" y2="354.8359"/><text fill="#000000" font-family="Verdana" font-size="13" lengthAdjust="spacing" textLength="198.2437" x="83.7451" y="334.6372">breakpoint verified + resolved</text><text fill="#000000" font-family="Verdana" font-size="13" lengthAdjust="spacing" textLength="158.2344" x="103.7498" y="349.77">(line 14 range 221..263)</text></g><path d="M565.8601,367.8359 L565.8601,437.8359 L892.8601,437.8359 L892.8601,377.8359 L882.8601,367.8359 L565.8601,367.8359" fill="#FFEEEE" style="stroke:#000000;stroke-width:1;"/><path d="M882.8601,367.8359 L882.8601,377.8359 L892.8601,377.8359 L882.8601,367.8359" fill="#FFEEEE" style="stroke:#000000;stroke-width:1;"/><text fill="#000000" font-family="Verdana" font-size="13" lengthAdjust="spacing" textLength="106.8564" x="624.7043" y="384.9028">Observed in log:</text><text fill="#000000" font-family="Verdana" font-size="13" lengthAdjust="spacing" textLength="157.79" x="632.969" y="400.0356">- No DebugStop emitted</text><text fill="#000000" font-family="Verdana" font-size="13" lengthAdjust="spacing" textLength="192.918" x="632.969" y="415.1685">- No [trust-debug][stop] trace</text><text fill="#000000" font-family="Verdana" font-size="13" lengthAdjust="spacing" textLength="155.2446" x="632.969" y="430.3013">- No DAP stopped event</text><rect fill="#FFFFFF" height="3" style="stroke:#FFFFFF;stroke-width:1;" width="1038.6392" x="32.8601" y="463.9336"/><line style="stroke:#000000;stroke-width:0.5;" x1="32.8601" x2="1071.4993" y1="463.9336" y2="463.9336"/><line style="stroke:#000000;stroke-width:0.5;" x1="32.8601" x2="1071.4993" y1="466.9336" y2="466.9336"/><rect fill="#FFFFFF" height="23.1328" style="stroke:#000000;stroke-width:1;" width="145.4409" x="479.4592" y="453.3672"/><text fill="#000000" font-family="Verdana" font-size="13" font-weight="bold" lengthAdjust="spacing" textLength="126.915" x="485.4592" y="469.4341">Pause Requested</text><g class="message" data-entity-1="part1" data-entity-2="part2" id="msg4"><polygon fill="#000000" points="283.4963,503.6328,293.4963,507.6328,283.4963,511.6328,287.4963,507.6328" style="stroke:#000000;stroke-width:1;"/><line style="stroke:#000000;stroke-width:1;" x1="70.2375" x2="289.4963" y1="507.6328" y2="507.6328"/><text fill="#000000" font-family="Verdana" font-size="13" lengthAdjust="spacing" textLength="123.519" x="121.1074" y="502.5669">pause(threadId=1)</text></g><g class="message" data-entity-1="part2" data-entity-2="part3" id="msg5"><polygon fill="#000000" points="484.0945,532.7656,494.0945,536.7656,484.0945,540.7656,488.0945,536.7656" style="stroke:#000000;stroke-width:1;"/><line style="stroke:#000000;stroke-width:1;" x1="295.4963" x2="490.0945" y1="536.7656" y2="536.7656"/><text fill="#000000" font-family="Verdana" font-size="13" lengthAdjust="spacing" textLength="49.3721" x="371.1094" y="531.6997">pause()</text></g><path d="M500.8601,549.7656 L500.8601,589.7656 L952.8601,589.7656 L952.8601,559.7656 L942.8601,549.7656 L500.8601,549.7656" fill="#FFFFFF" style="stroke:#000000;stroke-width:1;"/><path d="M942.8601,549.7656 L942.8601,559.7656 L952.8601,559.7656 L942.8601,549.7656" fill="#FFFFFF" style="stroke:#000000;stroke-width:1;"/><text fill="#000000" font-family="Verdana" font-size="13" lengthAdjust="spacing" textLength="104.6094" x="506.8601" y="566.8325">Observed trace:</text><text fill="#000000" font-family="Verdana" font-size="13" lengthAdjust="spacing" textLength="423.1284" x="515.1248" y="581.9653">action=Pause(None) outcome=Applied mode=Running-&gt;Paused</text><g class="message" data-entity-1="part2" data-entity-2="part1" id="msg6"><polygon fill="#000000" points="81.2375,612.1641,71.2375,616.1641,81.2375,620.1641,77.2375,616.1641" style="stroke:#000000;stroke-width:1;"/><line style="stroke:#000000;stroke-width:1;stroke-dasharray:2,2;" x1="75.2375" x2="294.4963" y1="616.1641" y2="616.1641"/><text fill="#000000" font-family="Verdana" font-size="13" lengthAdjust="spacing" textLength="201.2588" x="82.2375" y="611.0981">pause response(success=true)</text></g><path d="M556.8601,629.1641 L556.8601,669.1641 L901.8601,669.1641 L901.8601,639.1641 L891.8601,629.1641 L556.8601,629.1641" fill="#FFEEEE" style="stroke:#000000;stroke-width:1;"/><path d="M891.8601,629.1641 L891.8601,639.1641 L901.8601,639.1641 L891.8601,629.1641" fill="#FFEEEE" style="stroke:#000000;stroke-width:1;"/><text fill="#000000" font-family="Verdana" font-size="13" lengthAdjust="spacing" textLength="324.1494" x="562.8601" y="646.231">Expected next-cycle boundary stop did not occur.</text><text fill="#000000" font-family="Verdana" font-size="13" lengthAdjust="spacing" textLength="243.1787" x="562.8601" y="661.3638">No emit_stop(Pause) observed in log.</text><rect fill="#FFFFFF" height="3" style="stroke:#FFFFFF;stroke-width:1;" width="1038.6392" x="32.8601" y="694.9961"/><line style="stroke:#000000;stroke-width:0.5;" x1="32.8601" x2="1071.4993" y1="694.9961" y2="694.9961"/><line style="stroke:#000000;stroke-width:0.5;" x1="32.8601" x2="1071.4993" y1="697.9961" y2="697.9961"/><rect fill="#FFFFFF" height="23.1328" style="stroke:#000000;stroke-width:1;" width="139.4678" x="482.4458" y="684.4297"/><text fill="#000000" font-family="Verdana" font-size="13" font-weight="bold" lengthAdjust="spacing" textLength="120.9419" x="488.4458" y="700.4966">User Terminates</text><g class="message" data-entity-1="part1" data-entity-2="part2" id="msg7"><polygon fill="#000000" points="283.4963,734.6953,293.4963,738.6953,283.4963,742.6953,287.4963,738.6953" style="stroke:#000000;stroke-width:1;"/><line style="stroke:#000000;stroke-width:1;" x1="70.2375" x2="289.4963" y1="738.6953" y2="738.6953"/><text fill="#000000" font-family="Verdana" font-size="13" lengthAdjust="spacing" textLength="64.0161" x="150.8589" y="733.6294">terminate</text></g><g class="message" data-entity-1="part2" data-entity-2="part3" id="msg8"><polygon fill="#000000" points="484.0945,763.8281,494.0945,767.8281,484.0945,771.8281,488.0945,767.8281" style="stroke:#000000;stroke-width:1;"/><line style="stroke:#000000;stroke-width:1;" x1="295.4963" x2="490.0945" y1="767.8281" y2="767.8281"/><text fill="#000000" font-family="Verdana" font-size="13" lengthAdjust="spacing" textLength="167.9146" x="311.8381" y="762.7622">continue (shutdown path)</text></g><path d="M500.8601,780.8281 L500.8601,820.8281 L927.8601,820.8281 L927.8601,790.8281 L917.8601,780.8281 L500.8601,780.8281" fill="#FFFFFF" style="stroke:#000000;stroke-width:1;"/><path d="M917.8601,780.8281 L917.8601,790.8281 L927.8601,790.8281 L917.8601,780.8281" fill="#FFFFFF" style="stroke:#000000;stroke-width:1;"/><text fill="#000000" font-family="Verdana" font-size="13" lengthAdjust="spacing" textLength="104.6094" x="506.8601" y="797.895">Observed trace:</text><text fill="#000000" font-family="Verdana" font-size="13" lengthAdjust="spacing" textLength="398.709" x="515.1248" y="813.0278">action=Continue outcome=Applied mode=Paused-&gt;Running</text><g class="message" data-entity-1="part2" data-entity-2="part1" id="msg9"><polygon fill="#000000" points="81.2375,843.2266,71.2375,847.2266,81.2375,851.2266,77.2375,847.2266" style="stroke:#000000;stroke-width:1;"/><line style="stroke:#000000;stroke-width:1;stroke-dasharray:2,2;" x1="75.2375" x2="294.4963" y1="847.2266" y2="847.2266"/><text fill="#000000" font-family="Verdana" font-size="13" lengthAdjust="spacing" textLength="72.2681" x="146.7329" y="842.1606">terminated</text></g><?plantuml-src bLDRJzim57xthpXZBwb6WyhG7Ze5gIkW8OsBO9S7G9LhdpOMYPtP9nty-nqxlKuWj3nPyRbyDx-Z4ck4ffB6Yl1eR2Ezh27WxnQjmWiCGSvnL9cv1OMMq0j1XYg4BnxbO-ECfODhsGQ4MoGOpRW2lidMgXBwC5BKoWgkfW7z0ZLaC-zgEA2wEI3V1kfhdBRplfPDNhbvJmYfo7dO-taBOwTn3sI0HL1y58oBZ3ADj0HxMyttzcHq3ICUmPjJW-pEknqdiNRiB7bNtTki6-1RIwR6NcfJtULksqrhBHFwNZ9PdSfy-hDRvUmaa2GMqjB4nFkinxZYog_EFQQ-aW-xNRVach5pNXihcNMg2lnFYA9WCKCmpiAeYfkV8G8nTWv58QmZ1BTWM4kc-qjCIx0CnHFgpt1-1OshgjY62uRMSJIsnLoWrH07fMKRArb8pJxzAWqxlBMpCm7wnwkTCEICqAOnP1USe3pGS73K4wiYhb_AsjLFffk6oSpvoOptP7cURxLmptBR43Rbm7pDp32s3-0nk8hZn3uoEOJ14NXfvmY7XuCyF_pqaOEq4QaJPp_g3-_Fpaxv4-j06WiSlA403kkbWsHPz0MmDiGYhYxkjXBtS1TTUW3oKk6waqCOVpSyD8czgt3tGcxYgmeyzZL9crYMKKhRkIu6hoZPbVKwajxCIm8tMmTuJIu1ZDpuLN6MYWGYktGMU-1QKgx6OjGqLLIrPYp5ql3-SQhK6melcfDGH3CQPtbkQ9NYq1Qi5BvfmEbJWoeAOV69-kfPSTochhLQ-kUa8sYJTeDJglMvO8cZ9PDuboLup67NnNz2_IF4Xuk-ZiyBmskIqwhYPQbNBmQoKBQatH_BlAdyR-t7gpal2j_ftJzU6l26y6l8Mlm5?></g></svg>