<?plantuml 1.2026.2?><svg xmlns="http://www.w3.org/2000/svg" xmlns:xlink="http://www.w3.org/1999/xlink" contentStyleType="text/css" data-diagram-type="STATE" height="1089px" preserveAspectRatio="none" style="width:1721px;height:1089px;background:#FFFFFF;" version="1.1" viewBox="0 0 1721 1089" width="1721px" zoomAndPan="magnify"><title>Debug Control State Machine</title><defs/><g><g class="title" data-source-line="4"><text fill="#000000" font-family="Verdana" font-size="22" font-weight="bold" lengthAdjust="spacing" textLength="364.4717" x="673.1152" y="35.4209">Debug Control State Machine</text></g><!--cluster launch--><g class="cluster" data-qualified-name="launch" data-source-line="8" id="ent0002"><path d="M864.56,332.4894 L1429.56,332.4894 A12.5,12.5 0 0 1 1442.06,344.9894 L1442.06,351.4581 L852.06,351.4581 L852.06,344.9894 A12.5,12.5 0 0 1 864.56,332.4894" fill="#FFFFFF"/><path d="M852.06,351.4581 L1442.06,351.4581 L1442.06,726.7994 A12.5,12.5 0 0 1 1429.56,739.2994 L864.56,739.2994 A12.5,12.5 0 0 1 852.06,726.7994 L852.06,351.4581" fill="#FFFFFF"/><rect fill="none" height="406.81" rx="12.5" ry="12.5" style="stroke:#000000;stroke-width:1;" width="590" x="852.06" y="332.4894"/><line style="stroke:#000000;stroke-width:1;" x1="852.06" x2="1442.06" y1="351.4581" y2="351.4581"/><text fill="#000000" font-family="Verdana" font-size="12" lengthAdjust="spacing" textLength="79.0313" x="1107.5444" y="347.628">Launch State</text></g><!--cluster debug--><g class="cluster" data-qualified-name="debug" data-source-line="27" id="ent0006"><path d="M894.56,803.2994 L1336.56,803.2994 A12.5,12.5 0 0 1 1349.06,815.7994 L1349.06,822.2681 L882.06,822.2681 L882.06,815.7994 A12.5,12.5 0 0 1 894.56,803.2994" fill="#FFFFFF"/><path d="M882.06,822.2681 L1349.06,822.2681 L1349.06,1063.7994 A12.5,12.5 0 0 1 1336.56,1076.2994 L894.56,1076.2994 A12.5,12.5 0 0 1 882.06,1063.7994 L882.06,822.2681" fill="#FFFFFF"/><rect fill="none" height="273" rx="12.5" ry="12.5" style="stroke:#000000;stroke-width:1;" width="467" x="882.06" y="803.2994"/><line style="stroke:#000000;stroke-width:1;" x1="882.06" x2="1349.06" y1="822.2681" y2="822.2681"/><text fill="#000000" font-family="Verdana" font-size="12" lengthAdjust="spacing" textLength="75.9727" x="1077.5737" y="818.438">Debug Mode</text></g><!--cluster reload--><g class="cluster" data-qualified-name="reload" data-source-line="68" id="ent0014"><path d="M1608.56,803.2994 L1695.56,803.2994 A12.5,12.5 0 0 1 1708.06,815.7994 L1708.06,822.2681 L1596.06,822.2681 L1596.06,815.7994 A12.5,12.5 0 0 1 1608.56,803.2994" fill="#FFFFFF"/><path d="M1596.06,822.2681 L1708.06,822.2681 L1708.06,904.7994 A12.5,12.5 0 0 1 1695.56,917.2994 L1608.56,917.2994 A12.5,12.5 0 0 1 1596.06,904.7994 L1596.06,822.2681" fill="#FFFFFF"/><rect fill="none" height="114" rx="12.5" ry="12.5" style="stroke:#000000;stroke-width:1;" width="112" x="1596.06" y="803.2994"/><line style="stroke:#000000;stroke-width:1;" x1="1596.06" x2="1708.06" y1="822.2681" y2="822.2681"/><text fill="#000000" font-family="Verdana" font-size="12" lengthAdjust="spacing" textLength="41.3672" x="1631.3764" y="818.438">Reload</text></g><g class="entity" data-qualified-name="launch.AwaitingConfig" id="ent0003"><rect fill="#FFFFFF" height="61.9063" rx="12.5" ry="12.5" style="stroke:#000000;stroke-width:1;" width="214.5078" x="980.8" y="380.4894"/><line style="stroke:#000000;stroke-width:1;" x1="980.8" x2="1195.3078" y1="404.4581" y2="404.4581"/><text fill="#000000" font-family="Verdana" font-size="12" lengthAdjust="spacing" textLength="90.4746" x="1042.8166" y="396.628">AwaitingConfig</text><text fill="#000000" font-family="Verdana" font-size="12" lengthAdjust="spacing" textLength="194.5078" x="985.8" y="420.5968">pending: Option&lt;PendingStart&gt;</text><text fill="#000000" font-family="Verdana" font-size="12" lengthAdjust="spacing" textLength="107.6895" x="985.8" y="434.5655">(launch or attach)</text></g><g class="entity" data-qualified-name="launch.Configured" id="ent0004"><rect fill="#FFFFFF" height="50" rx="12.5" ry="12.5" style="stroke:#000000;stroke-width:1;" width="86.041" x="1052.04" y="673.2994"/><line style="stroke:#000000;stroke-width:1;" x1="1052.04" x2="1138.081" y1="697.2681" y2="697.2681"/><text fill="#000000" font-family="Verdana" font-size="12" lengthAdjust="spacing" textLength="66.041" x="1062.04" y="689.438">Configured</text></g><g class="entity" data-qualified-name="launch.PostLaunch" id="ent0005"><rect fill="#FFFFFF" height="61.9063" rx="12.5" ry="12.5" style="stroke:#000000;stroke-width:1;" width="174.7168" x="1251.7" y="534.3894"/><line style="stroke:#000000;stroke-width:1;" x1="1251.7" x2="1426.4168" y1="558.3581" y2="558.3581"/><text fill="#000000" font-family="Verdana" font-size="12" lengthAdjust="spacing" textLength="68.9883" x="1304.5643" y="550.528">PostLaunch</text><text fill="#000000" font-family="Verdana" font-size="12" lengthAdjust="spacing" textLength="116.9121" x="1256.7" y="574.4968">pause_after_launch</text><text fill="#000000" font-family="Verdana" font-size="12" lengthAdjust="spacing" textLength="154.7168" x="1256.7" y="588.4655">start_runner_after_launch</text></g><g class="entity" data-qualified-name="debug.Running" id="ent0007"><rect fill="#FFFFFF" height="50" rx="12.5" ry="12.5" style="stroke:#000000;stroke-width:1;" width="69.7109" x="1069.2" y="851.2994"/><line style="stroke:#000000;stroke-width:1;" x1="1069.2" x2="1138.9109" y1="875.2681" y2="875.2681"/><text fill="#000000" font-family="Verdana" font-size="12" lengthAdjust="spacing" textLength="49.7109" x="1079.2" y="867.438">Running</text></g><g class="entity" data-qualified-name="debug.Paused" id="ent0008"><rect fill="#FFFFFF" height="50" rx="12.5" ry="12.5" style="stroke:#000000;stroke-width:1;" width="63.4473" x="1149.33" y="1010.2994"/><line style="stroke:#000000;stroke-width:1;" x1="1149.33" x2="1212.7773" y1="1034.2681" y2="1034.2681"/><text fill="#000000" font-family="Verdana" font-size="12" lengthAdjust="spacing" textLength="43.4473" x="1159.33" y="1026.438">Paused</text></g><g class="entity" data-qualified-name="reload.Reloading" id="ent0015"><rect fill="#FFFFFF" height="50" rx="12.5" ry="12.5" style="stroke:#000000;stroke-width:1;" width="79.9238" x="1612.1" y="851.2994"/><line style="stroke:#000000;stroke-width:1;" x1="1612.1" x2="1692.0238" y1="875.2681" y2="875.2681"/><text fill="#000000" font-family="Verdana" font-size="12" lengthAdjust="spacing" textLength="59.9238" x="1622.1" y="867.438">Reloading</text></g><path d="M24.5,58.6094 L819.6171,58.6094 A12.5,12.5 0 0 1 832.1171,71.1094 L832.1171,82.5781 L12,82.5781 L12,71.1094 A12.5,12.5 0 0 1 24.5,58.6094" fill="#FFFFFF"/><path d="M12,82.5781 L832.1171,82.5781 L832.1171,256.9844 A12.5,12.5 0 0 1 819.6171,269.4844 L24.5,269.4844 A12.5,12.5 0 0 1 12,256.9844 L12,82.5781" fill="#FFFFFF"/><rect fill="none" height="210.875" rx="12.5" ry="12.5" style="stroke:#000000;stroke-width:1;" width="820.1171" x="12" y="58.6094"/><line style="stroke:#000000;stroke-width:1;" x1="12" x2="832.1171" y1="82.5781" y2="82.5781"/><text fill="#000000" font-family="Verdana" font-size="12" lengthAdjust="spacing" textLength="62.9004" x="390.6083" y="74.748">Step State</text><g class="entity" data-qualified-name="step.Idle" id="ent0010"><rect fill="#FFFFFF" height="50" rx="12.5" ry="12.5" style="stroke:#000000;stroke-width:1;" width="50" x="362.18" y="94.5781"/><line style="stroke:#000000;stroke-width:1;" x1="362.18" x2="412.18" y1="118.5469" y2="118.5469"/><text fill="#000000" font-family="Verdana" font-size="12" lengthAdjust="spacing" textLength="21.873" x="376.2435" y="110.7168">Idle</text></g><g class="entity" data-qualified-name="step.StepInto" id="ent0011"><rect fill="#FFFFFF" height="61.9063" rx="12.5" ry="12.5" style="stroke:#000000;stroke-width:1;" width="159.0723" x="62.64" y="197.5781"/><line style="stroke:#000000;stroke-width:1;" x1="62.64" x2="221.7123" y1="221.5469" y2="221.5469"/><text fill="#000000" font-family="Verdana" font-size="12" lengthAdjust="spacing" textLength="50.5137" x="116.9193" y="213.7168">StepInto</text><text fill="#000000" font-family="Verdana" font-size="12" lengthAdjust="spacing" textLength="139.0723" x="67.64" y="237.6855">target_depth = current</text><text fill="#000000" font-family="Verdana" font-size="12" lengthAdjust="spacing" textLength="101.7539" x="67.64" y="251.6543">(next statement)</text></g><g class="entity" data-qualified-name="step.StepOver" id="ent0012"><rect fill="#FFFFFF" height="50" rx="12.5" ry="12.5" style="stroke:#000000;stroke-width:1;" width="159.0723" x="288.64" y="203.5381"/><line style="stroke:#000000;stroke-width:1;" x1="288.64" x2="447.7123" y1="227.5069" y2="227.5069"/><text fill="#000000" font-family="Verdana" font-size="12" lengthAdjust="spacing" textLength="56.1855" x="340.0834" y="219.6768">StepOver</text><text fill="#000000" font-family="Verdana" font-size="12" lengthAdjust="spacing" textLength="139.0723" x="293.64" y="243.6455">target_depth = current</text></g><g class="entity" data-qualified-name="step.StepOut" id="ent0013"><rect fill="#FFFFFF" height="50" rx="12.5" ry="12.5" style="stroke:#000000;stroke-width:1;" width="178.666" x="572.85" y="203.5381"/><line style="stroke:#000000;stroke-width:1;" x1="572.85" x2="751.516" y1="227.5069" y2="227.5069"/><text fill="#000000" font-family="Verdana" font-size="12" lengthAdjust="spacing" textLength="49.0781" x="637.6439" y="219.6768">StepOut</text><text fill="#000000" font-family="Verdana" font-size="12" lengthAdjust="spacing" textLength="158.666" x="577.85" y="243.6455">target_depth = current - 1</text></g><!--link Idle to StepInto--><g class="link" data-entity-1="ent0010" data-entity-2="ent0011" data-link-type="dependency" data-source-line="49" id="lnk13"><path d="M361.7,121.7281 C284.9,125.4581 59.64,138.3781 38.18,162.5781 C23,179.6981 33.4375,191.416 57.0075,202.126" fill="none" id="Idle-to-StepInto" style="stroke:#000000;stroke-width:1;"/><polygon fill="#000000" points="62.47,204.6081,55.931,197.2433,57.9179,202.5397,52.6215,204.5266,62.47,204.6081" style="stroke:#000000;stroke-width:1;"/><text fill="#000000" font-family="Verdana" font-size="13" lengthAdjust="spacing" textLength="136.208" x="39.18" y="175.645">stepIn (from Paused)</text></g><!--link Idle to StepOver--><g class="link" data-entity-1="ent0010" data-entity-2="ent0012" data-link-type="dependency" data-source-line="50" id="lnk14"><path d="M361.78,127.6281 C344.74,133.8281 323.59,144.7081 313.18,162.5781 C304.7,177.1381 310.1004,187.7316 323.7804,199.3116" fill="none" id="Idle-to-StepOver" style="stroke:#000000;stroke-width:1;"/><polygon fill="#000000" points="328.36,203.1881,324.075,194.3203,324.5437,199.9577,318.9063,200.4263,328.36,203.1881" style="stroke:#000000;stroke-width:1;"/><text fill="#000000" font-family="Verdana" font-size="13" lengthAdjust="spacing" textLength="125.0425" x="314.18" y="175.645">next (from Paused)</text></g><!--link Idle to StepOut--><g class="link" data-entity-1="ent0010" data-entity-2="ent0013" data-link-type="dependency" data-source-line="51" id="lnk15"><path d="M412.56,125.9081 C443,132.6981 495.3,145.6081 538.18,162.5781 C566.77,173.8981 592.1493,186.9488 615.7993,200.2388" fill="none" id="Idle-to-StepOut" style="stroke:#000000;stroke-width:1;"/><polygon fill="#000000" points="621.03,203.1781,615.1435,195.282,616.6711,200.7287,611.2244,202.2562,621.03,203.1781" style="stroke:#000000;stroke-width:1;"/><text fill="#000000" font-family="Verdana" font-size="13" lengthAdjust="spacing" textLength="147.7036" x="574.29" y="175.645">stepOut (from Paused)</text></g><!--link StepInto to Idle--><g class="link" data-entity-1="ent0011" data-entity-2="ent0010" data-link-type="dependency" data-source-line="52" id="lnk16"><path d="M169.52,197.3781 C182.28,184.9481 198.36,171.4081 215.18,162.5781 C263.36,137.2981 321.1795,127.5855 355.9495,123.5755" fill="none" id="StepInto-to-Idle" style="stroke:#000000;stroke-width:1;"/><polygon fill="#000000" points="361.91,122.8881,352.511,119.9456,356.9429,123.461,353.4275,127.8929,361.91,122.8881" style="stroke:#000000;stroke-width:1;"/><text fill="#000000" font-family="Verdana" font-size="13" lengthAdjust="spacing" textLength="89.9971" x="216.18" y="175.645">condition met</text></g><!--link StepOver to Idle--><g class="link" data-entity-1="ent0012" data-entity-2="ent0010" data-link-type="dependency" data-source-line="53" id="lnk17"><path d="M419.12,203.0581 C427.59,196.6381 435.22,188.8481 440.18,179.5781 C449.8,161.6181 435.6833,147.8635 417.7633,136.7835" fill="none" id="StepOver-to-Idle" style="stroke:#000000;stroke-width:1;"/><polygon fill="#000000" points="412.66,133.6281,418.2113,141.7634,416.9127,136.2576,422.4185,134.959,412.66,133.6281" style="stroke:#000000;stroke-width:1;"/><text fill="#000000" font-family="Verdana" font-size="13" lengthAdjust="spacing" textLength="89.9971" x="443.74" y="175.645">condition met</text></g><!--link StepOut to Idle--><g class="link" data-entity-1="ent0013" data-entity-2="ent0010" data-link-type="dependency" data-source-line="54" id="lnk18"><path d="M709.14,203.1581 C726.13,191.2181 738.45,176.4581 726.18,162.5781 C705.42,139.0881 493.5618,126.0617 418.4618,122.1317" fill="none" id="StepOut-to-Idle" style="stroke:#000000;stroke-width:1;"/><polygon fill="#000000" points="412.47,121.8181,421.2487,126.283,417.4632,122.0794,421.6667,118.2939,412.47,121.8181" style="stroke:#000000;stroke-width:1;"/><text fill="#000000" font-family="Verdana" font-size="13" lengthAdjust="spacing" textLength="89.9971" x="732.12" y="175.645">condition met</text></g><g class="start_entity" data-qualified-name=".start." data-source-line="6" id="ent0002"><ellipse cx="1088.06" cy="164.0494" fill="#FFFFFF" rx="10" ry="10" style="stroke:#000000;stroke-width:1;"/></g><g class="end_entity" data-qualified-name=".end." data-source-line="66" id="ent0023"><ellipse cx="821.06" cy="1035.2994" fill="none" rx="11" ry="11" style="stroke:#000000;stroke-width:1;"/><ellipse cx="821.06" cy="1035.2994" fill="#FFFFFF" rx="6" ry="6" style="stroke:#000000;stroke-width:1;"/></g><g class="entity" data-qualified-name="GMN2" data-source-line="58" id="ent0003"><path d="M867.31,143.9194 L867.31,160.0494 L832.48,164.0494 L867.31,168.0494 L867.31,184.185 A0,0 0 0 0 867.31,184.185 L1042.8056,184.185 A0,0 0 0 0 1042.8056,184.185 L1042.8056,153.9194 L1032.8056,143.9194 L867.31,143.9194 A0,0 0 0 0 867.31,143.9194" fill="#FFFFFF" style="stroke:#000000;stroke-width:1;"/><path d="M1032.8056,143.9194 L1032.8056,153.9194 L1042.8056,153.9194 L1032.8056,143.9194" fill="#FFFFFF" style="stroke:#000000;stroke-width:1;"/><text fill="#000000" font-family="Verdana" font-size="13" lengthAdjust="spacing" textLength="154.4956" x="873.31" y="160.9863">Step state is per-thread</text><text fill="#000000" font-family="Verdana" font-size="13" lengthAdjust="spacing" textLength="150.376" x="873.31" y="176.1191">(multi-resource ready).</text></g><!--link *start* to AwaitingConfig--><g class="link" data-entity-1="ent0002" data-entity-2="ent0003" data-link-type="dependency" data-source-line="6" id="lnk3"><path d="M1088.06,174.3694 C1088.06,208.0794 1088.06,318.5694 1088.06,374.2894" fill="none" id="*start*-to-AwaitingConfig" style="stroke:#000000;stroke-width:1;"/><polygon fill="#000000" points="1088.06,380.2894,1092.06,371.2894,1088.06,375.2894,1084.06,371.2894,1088.06,380.2894" style="stroke:#000000;stroke-width:1;"/><text fill="#000000" font-family="Verdana" font-size="13" lengthAdjust="spacing" textLength="104.8125" x="1089.06" y="312.5563">adapter created</text></g><!--link AwaitingConfig to Configured--><g class="link" data-entity-1="ent0003" data-entity-2="ent0004" data-link-type="dependency" data-source-line="20" id="lnk4"><path d="M1029.23,442.8094 C971.33,477.0294 896.16,535.8094 930.06,596.2994 C955.84,642.2994 1006.4126,667.8153 1046.0426,682.2553" fill="none" id="AwaitingConfig-to-Configured" style="stroke:#000000;stroke-width:1;"/><polygon fill="#000000" points="1051.68,684.3094,1044.5933,677.4699,1046.9821,682.5976,1041.8544,684.9865,1051.68,684.3094" style="stroke:#000000;stroke-width:1;"/><text fill="#000000" font-family="Verdana" font-size="13" lengthAdjust="spacing" textLength="120.4341" x="931.06" y="562.4163">configurationDone</text><text fill="#000000" font-family="Verdana" font-size="13" lengthAdjust="spacing" textLength="83.313" x="949.6205" y="577.5491">(no pending)</text></g><!--link AwaitingConfig to Configured--><g class="link" data-entity-1="ent0003" data-entity-2="ent0004" data-link-type="dependency" data-source-line="22" id="lnk6"><path d="M1088.8,442.6594 C1090.2,499.4994 1093.0431,615.2912 1094.3131,667.1312" fill="none" id="AwaitingConfig-to-Configured-1" style="stroke:#000000;stroke-width:1;"/><polygon fill="#000000" points="1094.46,673.1294,1098.2384,664.0341,1094.3375,668.1309,1090.2408,664.23,1094.46,673.1294" style="stroke:#000000;stroke-width:1;"/><text fill="#000000" font-family="Verdana" font-size="13" lengthAdjust="spacing" textLength="120.4341" x="1093.48" y="562.4163">configurationDone</text><text fill="#000000" font-family="Verdana" font-size="13" lengthAdjust="spacing" textLength="108.6338" x="1099.3801" y="577.5491">(pending attach)</text></g><!--link AwaitingConfig to PostLaunch--><g class="link" data-entity-1="ent0003" data-entity-2="ent0005" data-link-type="dependency" data-source-line="21" id="lnk5"><path d="M1138.25,442.8194 C1182.03,469.3094 1240.0662,504.444 1283.8262,530.914" fill="none" id="AwaitingConfig-to-PostLaunch" style="stroke:#000000;stroke-width:1;"/><polygon fill="#000000" points="1288.96,534.0194,1283.3295,525.9387,1284.6818,531.4315,1279.189,532.7838,1288.96,534.0194" style="stroke:#000000;stroke-width:1;"/><text fill="#000000" font-family="Verdana" font-size="13" lengthAdjust="spacing" textLength="120.4341" x="1237.04" y="485.4563">configurationDone</text><text fill="#000000" font-family="Verdana" font-size="13" lengthAdjust="spacing" textLength="110.5635" x="1241.9753" y="500.5891">(pending launch)</text></g><!--link AwaitingConfig to AwaitingConfig--><g class="link" data-entity-1="ent0003" data-entity-2="ent0003" data-link-type="dependency" data-source-line="23" id="lnk7"><path d="M1195.69,397.7294 C1215.99,399.3894 1230.31,403.9594 1230.31,411.4394 C1230.31,418.9194 1221.97,423.0004 1201.67,424.6604" fill="none" id="AwaitingConfig-to-AwaitingConfig" style="stroke:#000000;stroke-width:1;"/><polygon fill="#000000" points="1195.69,425.1494,1204.9861,428.4026,1200.6734,424.7419,1204.3341,420.4292,1195.69,425.1494" style="stroke:#000000;stroke-width:1;"/><text fill="#000000" font-family="Verdana" font-size="13" lengthAdjust="spacing" textLength="94.9038" x="1289.7636" y="408.5063">attachRequest</text><text fill="#000000" font-family="Verdana" font-size="13" lengthAdjust="spacing" textLength="201.811" x="1236.31" y="423.6391">(defer until configurationDone)</text></g><!--link PostLaunch to Configured--><g class="link" data-entity-1="ent0005" data-entity-2="ent0004" data-link-type="dependency" data-source-line="24" id="lnk8"><path d="M1282.47,596.7194 C1238.54,620.2894 1183.8469,649.6524 1143.6869,671.2024" fill="none" id="PostLaunch-to-Configured" style="stroke:#000000;stroke-width:1;"/><polygon fill="#000000" points="1138.4,674.0394,1148.2217,673.3085,1142.8058,671.6752,1144.4391,666.2593,1138.4,674.0394" style="stroke:#000000;stroke-width:1;"/><text fill="#000000" font-family="Verdana" font-size="13" lengthAdjust="spacing" textLength="100.585" x="1225.37" y="639.3663">actions drained</text></g><!--link Running to Paused--><g class="link" data-entity-1="ent0007" data-entity-2="ent0008" data-link-type="dependency" data-source-line="31" id="lnk9"><path d="M1068.74,877.2694 C1027.75,879.3694 961.74,889.8294 930.06,933.2994 C917.76,950.1794 916.93,964.0494 930.06,980.2994 C957.3,1014.0194 1082.047,1027.2181 1143.297,1031.8381" fill="none" id="Running-to-Paused" style="stroke:#000000;stroke-width:1;"/><polygon fill="#000000" points="1149.28,1032.2894,1140.6064,1027.6238,1144.2942,1031.9133,1140.0046,1035.6011,1149.28,1032.2894" style="stroke:#000000;stroke-width:1;"/><text fill="#000000" font-family="Verdana" font-size="13" lengthAdjust="spacing" textLength="91.3237" x="950.2902" y="946.3663">breakpoint hit</text><text fill="#000000" font-family="Verdana" font-size="13" lengthAdjust="spacing" textLength="93.063" x="949.4206" y="961.4991">pause request</text><text fill="#000000" font-family="Verdana" font-size="13" lengthAdjust="spacing" textLength="129.7842" x="931.06" y="976.6319">stopOnEntry (entry)</text></g><!--link Paused to Running--><g class="link" data-entity-1="ent0008" data-entity-2="ent0007" data-link-type="dependency" data-source-line="32" id="lnk10"><path d="M1149.02,1021.7094 C1131.44,1012.9494 1111.2,999.3894 1101.06,980.2994 C1088.13,955.9694 1090.502,929.4883 1095.512,907.5883" fill="none" id="Paused-to-Running" style="stroke:#000000;stroke-width:1;"/><polygon fill="#000000" points="1096.85,901.7394,1090.9437,909.6207,1095.735,906.6135,1098.7422,911.4048,1096.85,901.7394" style="stroke:#000000;stroke-width:1;"/><text fill="#000000" font-family="Verdana" font-size="13" lengthAdjust="spacing" textLength="56.5259" x="1102.06" y="961.3663">continue</text></g><!--link Paused to Running--><g class="link" data-entity-1="ent0008" data-entity-2="ent0007" data-link-type="dependency" data-source-line="34" id="lnk12"><path d="M1180.94,1010.0594 C1179.88,988.6794 1175.98,957.2894 1163.06,933.2994 C1156.63,921.3594 1151.1837,914.5199 1141.3137,905.6099" fill="none" id="Paused-to-Running-1" style="stroke:#000000;stroke-width:1;"/><polygon fill="#000000" points="1136.86,901.5894,1140.8602,910.5893,1140.5714,904.9398,1146.2209,904.651,1136.86,901.5894" style="stroke:#000000;stroke-width:1;"/><text fill="#000000" font-family="Verdana" font-size="13" lengthAdjust="spacing" textLength="129.6699" x="1178.49" y="953.8663">stepIn/next/stepOut</text><text fill="#000000" font-family="Verdana" font-size="13" lengthAdjust="spacing" textLength="99.3281" x="1193.6609" y="968.9991">(step state set)</text></g><!--link Paused to Paused--><g class="link" data-entity-1="ent0008" data-entity-2="ent0008" data-link-type="dependency" data-source-line="33" id="lnk11"><path d="M1212.98,1021.3394 C1231.05,1018.6094 1247.78,1023.2594 1247.78,1035.2994 C1247.78,1047.3394 1236.9827,1052.8857 1218.9127,1050.1557" fill="none" id="Paused-to-Paused" style="stroke:#000000;stroke-width:1;"/><polygon fill="#000000" points="1212.98,1049.2594,1221.2815,1054.5589,1217.9239,1050.0063,1222.4765,1046.6487,1212.98,1049.2594" style="stroke:#000000;stroke-width:1;"/><text fill="#000000" font-family="Verdana" font-size="13" lengthAdjust="spacing" textLength="90.5938" x="1253.78" y="1039.8663">pause (no-op)</text></g><!--link Configured to Running--><g class="link" data-entity-1="ent0004" data-entity-2="ent0007" data-link-type="dependency" data-source-line="62" id="lnk19"><path d="M1051.77,701.6894 C982.03,706.5294 849.69,720.2294 821.06,755.2994 C751.29,840.7694 972.8166,866.0132 1062.9366,872.7332" fill="none" id="Configured-to-Running" style="stroke:#000000;stroke-width:1;"/><polygon fill="#000000" points="1068.92,873.1794,1060.2424,868.5212,1063.9338,872.8076,1059.6475,876.4991,1068.92,873.1794" style="stroke:#000000;stroke-width:1;"/><text fill="#000000" font-family="Verdana" font-size="13" lengthAdjust="spacing" textLength="90.3271" x="855.4582" y="768.3663">start_runner()</text><text fill="#000000" font-family="Verdana" font-size="13" lengthAdjust="spacing" textLength="157.1235" x="822.06" y="783.4991">(no pause_after_launch)</text></g><!--link Configured to Running--><g class="link" data-entity-1="ent0004" data-entity-2="ent0007" data-link-type="dependency" data-source-line="64" id="lnk21"><path d="M1051.59,721.5094 C1039.09,730.2294 1026.98,741.4994 1020.06,755.2994 C1013.68,768.0094 1014.77,774.0994 1020.06,787.2994 C1030.27,812.7894 1047.1843,831.2101 1065.8743,846.9801" fill="none" id="Configured-to-Running-1" style="stroke:#000000;stroke-width:1;"/><polygon fill="#000000" points="1070.46,850.8494,1066.1609,841.9883,1066.6386,847.625,1061.0019,848.1026,1070.46,850.8494" style="stroke:#000000;stroke-width:1;"/><text fill="#000000" font-family="Verdana" font-size="13" lengthAdjust="spacing" textLength="161.2813" x="1021.06" y="775.8663">attach (runtime running)</text></g><!--link Configured to Paused--><g class="link" data-entity-1="ent0004" data-entity-2="ent0008" data-link-type="dependency" data-source-line="63" id="lnk20"><path d="M1138.51,717.2194 C1155.83,726.3194 1174.57,738.9494 1187.06,755.2994 C1234.79,817.7894 1175.66,874.9494 1236.06,925.2994 C1249.78,936.7394 1304.07,920.0494 1316.06,933.2994 C1330.08,948.7894 1327.77,962.9994 1316.06,980.2994 C1293.13,1014.1594 1251.0966,1025.9194 1218.9566,1030.6294" fill="none" id="Configured-to-Paused" style="stroke:#000000;stroke-width:1;"/><polygon fill="#000000" points="1213.02,1031.4994,1222.5049,1034.1521,1217.9672,1030.7744,1221.3449,1026.2367,1213.02,1031.4994" style="stroke:#000000;stroke-width:1;"/><text fill="#000000" font-family="Verdana" font-size="13" lengthAdjust="spacing" textLength="90.3271" x="1260.2956" y="873.3663">start_runner()</text><text fill="#000000" font-family="Verdana" font-size="13" lengthAdjust="spacing" textLength="136.7983" x="1237.06" y="888.4991">(pause_after_launch)</text></g><!--link Configured to Paused--><g class="link" data-entity-1="ent0004" data-entity-2="ent0008" data-link-type="dependency" data-source-line="65" id="lnk22"><path d="M1138.48,700.8394 C1213.62,704.5194 1362.94,716.6294 1395.06,755.2994 C1460.39,833.9594 1426.18,915.5294 1347.06,980.2994 C1307.9,1012.3594 1255.1261,1024.696 1219.0361,1030.006" fill="none" id="Configured-to-Paused-1" style="stroke:#000000;stroke-width:1;"/><polygon fill="#000000" points="1213.1,1030.8794,1222.5864,1033.5267,1218.0467,1030.1515,1221.4219,1025.6119,1213.1,1030.8794" style="stroke:#000000;stroke-width:1;"/><text fill="#000000" font-family="Verdana" font-size="13" lengthAdjust="spacing" textLength="158.5962" x="1430.47" y="873.3663">attach (runtime paused)</text><text fill="#000000" font-family="Verdana" font-size="13" lengthAdjust="spacing" textLength="103.8794" x="1457.8284" y="888.4991">(stopped event)</text></g><!--link Running to *end*--><g class="link" data-entity-1="ent0007" data-entity-2="ent0023" data-link-type="dependency" data-source-line="66" id="lnk24"><path d="M1069.2,879.9694 C1004.97,885.6294 871.58,901.0494 840.06,933.2994 C815.74,958.1794 816.8068,997.794 818.9968,1018.104" fill="none" id="Running-to-*end*" style="stroke:#000000;stroke-width:1;"/><polygon fill="#000000" points="819.64,1024.0694,822.6521,1014.6924,819.104,1019.0982,814.6982,1015.5501,819.64,1024.0694" style="stroke:#000000;stroke-width:1;"/><text fill="#000000" font-family="Verdana" font-size="13" lengthAdjust="spacing" textLength="70.459" x="841.06" y="961.3663">disconnect</text></g><!--link Running to Reloading--><g class="link" data-entity-1="ent0007" data-entity-2="ent0015" data-link-type="dependency" data-source-line="72" id="lnk25"><path d="M1115.91,850.9994 C1126.27,832.0594 1143.22,807.4194 1166.06,795.2994 C1231.34,760.6594 1258.19,787.7794 1332.06,785.6294 C1444.54,782.3594 1484.46,744.8794 1585.06,795.2994 C1608.88,807.2394 1624.2219,826.7711 1635.6719,845.7611" fill="none" id="Running-to-Reloading" style="stroke:#000000;stroke-width:1;"/><polygon fill="#000000" points="1638.77,850.8994,1637.5483,841.1266,1636.1882,846.6175,1630.6973,845.2574,1638.77,850.8994" style="stroke:#000000;stroke-width:1;"/><text fill="#000000" font-family="Verdana" font-size="13" lengthAdjust="spacing" textLength="56.6846" x="1333.06" y="775.8663">stReload</text></g><!--link Reloading to Running--><g class="link" data-entity-1="ent0015" data-entity-2="ent0007" data-link-type="dependency" data-source-line="74" id="lnk27"><path d="M1638.81,850.8194 C1627.39,831.7794 1608.95,807.0894 1585.06,795.2994 C1572.07,788.8894 1339.54,779.0094 1239.06,785.6294 C1206.4,787.7894 1194.39,778.9094 1166.06,795.2994 C1143.83,808.1594 1129.8381,827.2136 1119.3281,845.8436" fill="none" id="Reloading-to-Running" style="stroke:#000000;stroke-width:1;"/><polygon fill="#000000" points="1116.38,851.0694,1124.286,845.1961,1118.8367,846.7146,1117.3183,841.2653,1116.38,851.0694" style="stroke:#000000;stroke-width:1;"/><text fill="#000000" font-family="Verdana" font-size="13" lengthAdjust="spacing" textLength="82.0371" x="1240.06" y="775.8663">was_running</text></g><!--link Paused to Reloading--><g class="link" data-entity-1="ent0008" data-entity-2="ent0015" data-link-type="dependency" data-source-line="73" id="lnk26"><path d="M1212.91,1030.7294 C1263.05,1024.4594 1362.91,1009.2694 1443.06,980.2994 C1484.76,965.2294 1488.95,947.1994 1531.06,933.2994 C1554.1,925.6994 1562.57,934.3994 1585.06,925.2994 C1599.12,919.6094 1608.2676,914.072 1619.7376,905.232" fill="none" id="Paused-to-Reloading" style="stroke:#000000;stroke-width:1;"/><polygon fill="#000000" points="1624.49,901.5694,1614.9197,903.8951,1620.5297,904.6216,1619.8032,910.2316,1624.49,901.5694" style="stroke:#000000;stroke-width:1;"/><text fill="#000000" font-family="Verdana" font-size="13" lengthAdjust="spacing" textLength="56.6846" x="1532.06" y="961.3663">stReload</text></g><!--link Reloading to Paused--><g class="link" data-entity-1="ent0015" data-entity-2="ent0008" data-link-type="dependency" data-source-line="75" id="lnk28"><path d="M1645.1,901.6894 C1636.85,925.8494 1620.62,961.8294 1593.06,980.2994 C1530.89,1021.9694 1304.8181,1031.4196 1219.1181,1033.5596" fill="none" id="Reloading-to-Paused" style="stroke:#000000;stroke-width:1;"/><polygon fill="#000000" points="1213.12,1033.7094,1222.217,1037.4835,1218.1184,1033.5846,1222.0173,1029.486,1213.12,1033.7094" style="stroke:#000000;stroke-width:1;"/><text fill="#000000" font-family="Verdana" font-size="13" lengthAdjust="spacing" textLength="79.3521" x="1632.35" y="961.3663">was_paused</text></g><?plantuml-src dLLDRzim3BthLt0znGEoeZi6Mu5YtO02BL8qnsq8L9k9XJgI9z7jkg7_VTH77CLErc6-sAAeHpxgaNv3DMuGsaOgBTo3qgsqSWEE9E4NescXVY6SlHU253K8btZVhU4JRrZJmC9xmOqiQwLHYAzllyDqUWuNJrAHqcjsMwarp41MiYMqK5ha0vKG0HvEhcMdoph2d81qq4J3Rm7yHAS1MDpopoXAYxhYzGpcBIcZFzp6DQDREl-c9mdSM914d7CHe5v45YnYTTRdkBFU6aVNUMR-oOmSMdOEbtB599Snp64_vtDPsavhTXovfrG6n7n5TtanI9aMqhEyD1gPcpPR-iKnZBr43c4aW7G9nN_diiN9gtm0PwoIu7-7Fpfqn3WLhbWpdIRLZED4s8pJA3LPUby7bMLfyuM-zBAB8hunLHHT5PQvvkxuWZYpN0B-WfCeqcuiQh1pj7kMzaDhb2Qe5MSV505sIyQHQUVwCxVDCqpGlnA1UDv3RM53KRam7Guz-c0Hd2zzQjg_u3Z2zagVQln9f_vxtlco-g_4oY4LMLqMVcVNZC4nByjLrM2sN0HuCbbJzAOPiDBNICiAMwhX8vITjSpRIvNJYGWRDcoRS1zs_iWtlmyRJCTW3uDqDCHWop48cC9PteMURAXdnYaM52OhQpQfvCNOEMKQUBxc6X9ATtF0kO_j3uIJGHsLyjA63PBOAy_hNXpbg1CJruPhPzMw9Z2ha5T_D1LMEHuqTaerwxqAcvDDrv2QMdIciwNNlAoUYtU2fm1uF26ojXmAT3SE9qKQOwDHMWm1-ZuOdV-7mxleSTx0nFeHm_z06tUEXniUQEDDXPuoRSi--1WadKy8_rESGQKS5rjZINsttM5ZP1KwpORF_H4KJ7u8yRNaUFr6u1zN8c__G_ixutu9dgHR9je3dvwqTub4nHy0?></g></svg>