<?plantuml 1.2026.2?><svg xmlns="http://www.w3.org/2000/svg" xmlns:xlink="http://www.w3.org/1999/xlink" contentStyleType="text/css" data-diagram-type="DESCRIPTION" height="908px" preserveAspectRatio="none" style="width:2004px;height:908px;background:#FEFEFE;" version="1.1" viewBox="0 0 2004 908" width="2004px" zoomAndPan="magnify"><title>truST Runtime Cloud Planes (Zenoh + SHM + Gateway Plugins)</title><defs/><g><rect fill="#FEFEFE" height="908" style="stroke:none;stroke-width:1;" width="2004" x="0" y="0"/><g class="title" data-source-line="8"><text fill="#000000" font-family="Verdana" font-size="22" font-weight="bold" lengthAdjust="spacing" textLength="783.041" x="606.1617" y="35.4209">truST Runtime Cloud Planes (Zenoh + SHM + Gateway Plugins)</text></g><!--cluster runtimeA--><g class="cluster" data-qualified-name="runtimeA" data-source-line="10" id="ent0002"><path d="M482.5,57.6094 L694.8193,57.6094 A3.75,3.75 0 0 1 697.3193,60.1094 L704.3193,79.9063 L922.5,79.9063 A2.5,2.5 0 0 1 925,82.4063 L925,290.4394 A2.5,2.5 0 0 1 922.5,292.9394 L482.5,292.9394 A2.5,2.5 0 0 1 480,290.4394 L480,60.1094 A2.5,2.5 0 0 1 482.5,57.6094" fill="#ADD8E6" style="stroke:#000000;stroke-width:1;"/><line style="stroke:#000000;stroke-width:1;" x1="480" x2="704.3193" y1="79.9063" y2="79.9063"/><text fill="#000000" font-family="Verdana" font-size="14" font-weight="bold" lengthAdjust="spacing" textLength="211.3193" x="484" y="72.6045">Runtime (site-a/runtime-a)</text></g><!--cluster runtimeB--><g class="cluster" data-qualified-name="runtimeB" data-source-line="16" id="ent0006"><path d="M13.5,171.1994 L226.3936,171.1994 A3.75,3.75 0 0 1 228.8936,173.6994 L235.8936,193.4963 L453.5,193.4963 A2.5,2.5 0 0 1 456,195.9963 L456,452.1794 A2.5,2.5 0 0 1 453.5,454.6794 L13.5,454.6794 A2.5,2.5 0 0 1 11,452.1794 L11,173.6994 A2.5,2.5 0 0 1 13.5,171.1994" fill="#ADD8E6" style="stroke:#000000;stroke-width:1;"/><line style="stroke:#000000;stroke-width:1;" x1="11" x2="235.8936" y1="193.4963" y2="193.4963"/><text fill="#000000" font-family="Verdana" font-size="14" font-weight="bold" lengthAdjust="spacing" textLength="211.8936" x="15" y="186.1945">Runtime (site-a/runtime-b)</text></g><!--cluster gateway--><g class="cluster" data-qualified-name="gateway" data-source-line="22" id="ent0010"><path d="M708.5,324.9394 L1013.2891,324.9394 A3.75,3.75 0 0 1 1015.7891,327.4394 L1022.7891,347.2363 L1746.5,347.2363 A2.5,2.5 0 0 1 1749,349.7363 L1749,655.3694 A2.5,2.5 0 0 1 1746.5,657.8694 L708.5,657.8694 A2.5,2.5 0 0 1 706,655.3694 L706,327.4394 A2.5,2.5 0 0 1 708.5,324.9394" fill="#F5DEB3" style="stroke:#000000;stroke-width:1;"/><line style="stroke:#000000;stroke-width:1;" x1="706" x2="1022.7891" y1="347.2363" y2="347.2363"/><text fill="#000000" font-family="Verdana" font-size="14" font-weight="bold" lengthAdjust="spacing" textLength="303.7891" x="710" y="339.9345">Gateway Plugin Host (optional profile)</text></g><!--cluster fleetUi--><g class="cluster" data-qualified-name="fleetUi" data-source-line="32" id="ent0018"><path d="M769.5,689.8694 L953.71,689.8694 A3.75,3.75 0 0 1 956.21,692.3694 L963.21,712.1663 L1110.5,712.1663 A2.5,2.5 0 0 1 1113,714.6663 L1113,898.5594 A2.5,2.5 0 0 1 1110.5,901.0594 L769.5,901.0594 A2.5,2.5 0 0 1 767,898.5594 L767,692.3694 A2.5,2.5 0 0 1 769.5,689.8694" fill="#F0F8FF" style="stroke:#000000;stroke-width:1;"/><line style="stroke:#000000;stroke-width:1;" x1="767" x2="963.21" y1="712.1663" y2="712.1663"/><text fill="#000000" font-family="Verdana" font-size="14" font-weight="bold" lengthAdjust="spacing" textLength="183.21" x="771" y="704.8645">Fleet Web UI (browser)</text></g><!--entity t0A--><g class="entity" data-qualified-name="runtimeA.t0A" data-source-line="11" id="ent0003"><rect fill="#FFFFFF" height="78.8906" rx="2.5" ry="2.5" style="stroke:#000000;stroke-width:1;" width="183.5273" x="496.24" y="198.0494"/><rect fill="#FFFFFF" height="10" style="stroke:#000000;stroke-width:1;" width="15" x="659.7673" y="203.0494"/><rect fill="#FFFFFF" height="2" style="stroke:#000000;stroke-width:1;" width="4" x="657.7673" y="205.0494"/><rect fill="#FFFFFF" height="2" style="stroke:#000000;stroke-width:1;" width="4" x="657.7673" y="209.0494"/><text fill="#000000" font-family="Verdana" font-size="14" lengthAdjust="spacing" textLength="116.7852" x="511.24" y="231.0445">T0 HardRT Plane</text><text fill="#000000" font-family="Verdana" font-size="14" lengthAdjust="spacing" textLength="143.5273" x="511.24" y="247.3414">OS-backed SHM ring</text><text fill="#000000" font-family="Verdana" font-size="14" lengthAdjust="spacing" textLength="117.7832" x="511.24" y="263.6382">(same host only)</text></g><!--entity cloudA--><g class="entity" data-qualified-name="runtimeA.cloudA" data-source-line="12" id="ent0004"><rect fill="#FFFFFF" height="62.5938" rx="2.5" ry="2.5" style="stroke:#000000;stroke-width:1;" width="260.8281" x="571.59" y="92.6094"/><rect fill="#FFFFFF" height="10" style="stroke:#000000;stroke-width:1;" width="15" x="812.4181" y="97.6094"/><rect fill="#FFFFFF" height="2" style="stroke:#000000;stroke-width:1;" width="4" x="810.4181" y="99.6094"/><rect fill="#FFFFFF" height="2" style="stroke:#000000;stroke-width:1;" width="4" x="810.4181" y="103.6094"/><text fill="#000000" font-family="Verdana" font-size="14" lengthAdjust="spacing" textLength="159.7354" x="586.59" y="125.6045">Runtime Cloud Service</text><text fill="#000000" font-family="Verdana" font-size="14" lengthAdjust="spacing" textLength="220.8281" x="586.59" y="141.9014">preflight/dispatch/config/rollout</text></g><!--entity meshA--><g class="entity" data-qualified-name="runtimeA.meshA" data-source-line="13" id="ent0005"><rect fill="#FFFFFF" height="62.5938" rx="2.5" ry="2.5" style="stroke:#000000;stroke-width:1;" width="183.6914" x="725.15" y="206.1994"/><rect fill="#FFFFFF" height="10" style="stroke:#000000;stroke-width:1;" width="15" x="888.8414" y="211.1994"/><rect fill="#FFFFFF" height="2" style="stroke:#000000;stroke-width:1;" width="4" x="886.8414" y="213.1994"/><rect fill="#FFFFFF" height="2" style="stroke:#000000;stroke-width:1;" width="4" x="886.8414" y="217.1994"/><text fill="#000000" font-family="Verdana" font-size="14" lengthAdjust="spacing" textLength="143.6914" x="740.15" y="239.1945">Zenoh Mesh Session</text><text fill="#000000" font-family="Verdana" font-size="14" lengthAdjust="spacing" textLength="72.7344" x="740.15" y="255.4914">(T1/T2/T3)</text></g><!--entity t0B--><g class="entity" data-qualified-name="runtimeB.t0B" data-source-line="17" id="ent0007"><rect fill="#FFFFFF" height="78.8906" rx="2.5" ry="2.5" style="stroke:#000000;stroke-width:1;" width="183.5273" x="27.24" y="359.7894"/><rect fill="#FFFFFF" height="10" style="stroke:#000000;stroke-width:1;" width="15" x="190.7673" y="364.7894"/><rect fill="#FFFFFF" height="2" style="stroke:#000000;stroke-width:1;" width="4" x="188.7673" y="366.7894"/><rect fill="#FFFFFF" height="2" style="stroke:#000000;stroke-width:1;" width="4" x="188.7673" y="370.7894"/><text fill="#000000" font-family="Verdana" font-size="14" lengthAdjust="spacing" textLength="116.7852" x="42.24" y="392.7845">T0 HardRT Plane</text><text fill="#000000" font-family="Verdana" font-size="14" lengthAdjust="spacing" textLength="143.5273" x="42.24" y="409.0814">OS-backed SHM ring</text><text fill="#000000" font-family="Verdana" font-size="14" lengthAdjust="spacing" textLength="117.7832" x="42.24" y="425.3782">(same host only)</text></g><!--entity cloudB--><g class="entity" data-qualified-name="runtimeB.cloudB" data-source-line="18" id="ent0008"><rect fill="#FFFFFF" height="62.5938" rx="2.5" ry="2.5" style="stroke:#000000;stroke-width:1;" width="260.8281" x="102.59" y="206.1994"/><rect fill="#FFFFFF" height="10" style="stroke:#000000;stroke-width:1;" width="15" x="343.4181" y="211.1994"/><rect fill="#FFFFFF" height="2" style="stroke:#000000;stroke-width:1;" width="4" x="341.4181" y="213.1994"/><rect fill="#FFFFFF" height="2" style="stroke:#000000;stroke-width:1;" width="4" x="341.4181" y="217.1994"/><text fill="#000000" font-family="Verdana" font-size="14" lengthAdjust="spacing" textLength="159.7354" x="117.59" y="239.1945">Runtime Cloud Service</text><text fill="#000000" font-family="Verdana" font-size="14" lengthAdjust="spacing" textLength="220.8281" x="117.59" y="255.4914">preflight/dispatch/config/rollout</text></g><!--entity meshB--><g class="entity" data-qualified-name="runtimeB.meshB" data-source-line="19" id="ent0009"><rect fill="#FFFFFF" height="62.5938" rx="2.5" ry="2.5" style="stroke:#000000;stroke-width:1;" width="183.6914" x="256.15" y="367.9394"/><rect fill="#FFFFFF" height="10" style="stroke:#000000;stroke-width:1;" width="15" x="419.8414" y="372.9394"/><rect fill="#FFFFFF" height="2" style="stroke:#000000;stroke-width:1;" width="4" x="417.8414" y="374.9394"/><rect fill="#FFFFFF" height="2" style="stroke:#000000;stroke-width:1;" width="4" x="417.8414" y="378.9394"/><text fill="#000000" font-family="Verdana" font-size="14" lengthAdjust="spacing" textLength="143.6914" x="271.15" y="400.9345">Zenoh Mesh Session</text><text fill="#000000" font-family="Verdana" font-size="14" lengthAdjust="spacing" textLength="72.7344" x="271.15" y="417.2314">(T1/T2/T3)</text></g><!--entity aclPlugin--><g class="entity" data-qualified-name="gateway.aclPlugin" data-source-line="23" id="ent0011"><rect fill="#FFFFFF" height="62.5938" rx="2.5" ry="2.5" style="stroke:#000000;stroke-width:1;" width="217.4609" x="730.27" y="367.9394"/><rect fill="#FFFFFF" height="10" style="stroke:#000000;stroke-width:1;" width="15" x="927.7309" y="372.9394"/><rect fill="#FFFFFF" height="2" style="stroke:#000000;stroke-width:1;" width="4" x="925.7309" y="374.9394"/><rect fill="#FFFFFF" height="2" style="stroke:#000000;stroke-width:1;" width="4" x="925.7309" y="378.9394"/><text fill="#000000" font-family="Verdana" font-size="14" lengthAdjust="spacing" textLength="67.915" x="745.27" y="400.9345">acl plugin</text><text fill="#000000" font-family="Verdana" font-size="14" lengthAdjust="spacing" textLength="177.4609" x="745.27" y="417.2314">(default-deny + allowlist)</text></g><!--entity storagePlugin--><g class="entity" data-qualified-name="gateway.storagePlugin" data-source-line="24" id="ent0012"><rect fill="#FFFFFF" height="62.5938" rx="2.5" ry="2.5" style="stroke:#000000;stroke-width:1;" width="222.5195" x="992.74" y="367.9394"/><rect fill="#FFFFFF" height="10" style="stroke:#000000;stroke-width:1;" width="15" x="1195.2595" y="372.9394"/><rect fill="#FFFFFF" height="2" style="stroke:#000000;stroke-width:1;" width="4" x="1193.2595" y="374.9394"/><rect fill="#FFFFFF" height="2" style="stroke:#000000;stroke-width:1;" width="4" x="1193.2595" y="378.9394"/><text fill="#000000" font-family="Verdana" font-size="14" lengthAdjust="spacing" textLength="100.9326" x="1007.74" y="400.9345">storage plugin</text><text fill="#000000" font-family="Verdana" font-size="14" lengthAdjust="spacing" textLength="182.5195" x="1007.74" y="417.2314">(retention cfg/meta/audit)</text></g><!--entity bridgePlugin--><g class="entity" data-qualified-name="gateway.bridgePlugin" data-source-line="25" id="ent0013"><rect fill="#FFFFFF" height="62.5938" rx="2.5" ry="2.5" style="stroke:#000000;stroke-width:1;" width="284.501" x="836.75" y="473.6794"/><rect fill="#FFFFFF" height="10" style="stroke:#000000;stroke-width:1;" width="15" x="1101.251" y="478.6794"/><rect fill="#FFFFFF" height="2" style="stroke:#000000;stroke-width:1;" width="4" x="1099.251" y="480.6794"/><rect fill="#FFFFFF" height="2" style="stroke:#000000;stroke-width:1;" width="4" x="1099.251" y="484.6794"/><text fill="#000000" font-family="Verdana" font-size="14" lengthAdjust="spacing" textLength="92.668" x="851.75" y="506.6745">bridge plugin</text><text fill="#000000" font-family="Verdana" font-size="14" lengthAdjust="spacing" textLength="244.501" x="851.75" y="522.9714">cross-site policy + degraded mode</text></g><!--entity restPlugin--><g class="entity" data-qualified-name="gateway.restPlugin" data-source-line="26" id="ent0014"><rect fill="#FFFFFF" height="62.5938" rx="2.5" ry="2.5" style="stroke:#000000;stroke-width:1;" width="231.0508" x="796.47" y="571.2794"/><rect fill="#FFFFFF" height="10" style="stroke:#000000;stroke-width:1;" width="15" x="1007.5208" y="576.2794"/><rect fill="#FFFFFF" height="2" style="stroke:#000000;stroke-width:1;" width="4" x="1005.5208" y="578.2794"/><rect fill="#FFFFFF" height="2" style="stroke:#000000;stroke-width:1;" width="4" x="1005.5208" y="582.2794"/><text fill="#000000" font-family="Verdana" font-size="14" lengthAdjust="spacing" textLength="101.3086" x="811.47" y="604.2745">api-rest plugin</text><text fill="#000000" font-family="Verdana" font-size="14" lengthAdjust="spacing" textLength="191.0508" x="811.47" y="620.5714">commissioning + fleet APIs</text></g><!--entity wsPlugin--><g class="entity" data-qualified-name="gateway.wsPlugin" data-source-line="27" id="ent0015"><rect fill="#FFFFFF" height="62.5938" rx="2.5" ry="2.5" style="stroke:#000000;stroke-width:1;" width="161.6113" x="1072.19" y="571.2794"/><rect fill="#FFFFFF" height="10" style="stroke:#000000;stroke-width:1;" width="15" x="1213.8013" y="576.2794"/><rect fill="#FFFFFF" height="2" style="stroke:#000000;stroke-width:1;" width="4" x="1211.8013" y="578.2794"/><rect fill="#FFFFFF" height="2" style="stroke:#000000;stroke-width:1;" width="4" x="1211.8013" y="582.2794"/><text fill="#000000" font-family="Verdana" font-size="14" lengthAdjust="spacing" textLength="92.9004" x="1087.19" y="604.2745">api-ws plugin</text><text fill="#000000" font-family="Verdana" font-size="14" lengthAdjust="spacing" textLength="121.6113" x="1087.19" y="620.5714">web client fanout</text></g><!--entity auditPlugin--><g class="entity" data-qualified-name="gateway.auditPlugin" data-source-line="28" id="ent0016"><rect fill="#FFFFFF" height="62.5938" rx="2.5" ry="2.5" style="stroke:#000000;stroke-width:1;" width="184.4365" x="1259.78" y="367.9394"/><rect fill="#FFFFFF" height="10" style="stroke:#000000;stroke-width:1;" width="15" x="1424.2165" y="372.9394"/><rect fill="#FFFFFF" height="2" style="stroke:#000000;stroke-width:1;" width="4" x="1422.2165" y="374.9394"/><rect fill="#FFFFFF" height="2" style="stroke:#000000;stroke-width:1;" width="4" x="1422.2165" y="378.9394"/><text fill="#000000" font-family="Verdana" font-size="14" lengthAdjust="spacing" textLength="83.4668" x="1274.78" y="400.9345">audit plugin</text><text fill="#000000" font-family="Verdana" font-size="14" lengthAdjust="spacing" textLength="144.4365" x="1274.78" y="417.2314">publish diag/audit/**</text></g><!--entity witnessPlugin--><g class="entity" data-qualified-name="gateway.witnessPlugin" data-source-line="29" id="ent0017"><rect fill="#FFFFFF" height="62.5938" rx="2.5" ry="2.5" style="stroke:#000000;stroke-width:1;" width="206.4551" x="1488.77" y="367.9394"/><rect fill="#FFFFFF" height="10" style="stroke:#000000;stroke-width:1;" width="15" x="1675.2251" y="372.9394"/><rect fill="#FFFFFF" height="2" style="stroke:#000000;stroke-width:1;" width="4" x="1673.2251" y="374.9394"/><rect fill="#FFFFFF" height="2" style="stroke:#000000;stroke-width:1;" width="4" x="1673.2251" y="378.9394"/><text fill="#000000" font-family="Verdana" font-size="14" lengthAdjust="spacing" textLength="123.1563" x="1503.77" y="400.9345">ha-witness plugin</text><text fill="#000000" font-family="Verdana" font-size="14" lengthAdjust="spacing" textLength="166.4551" x="1503.77" y="417.2314">(optional lease witness)</text></g><!--entity topoComposer--><g class="entity" data-qualified-name="fleetUi.topoComposer" data-source-line="33" id="ent0019"><rect fill="#FFFFFF" height="62.5938" rx="2.5" ry="2.5" style="stroke:#000000;stroke-width:1;" width="313.417" x="783.29" y="822.4694"/><rect fill="#FFFFFF" height="10" style="stroke:#000000;stroke-width:1;" width="15" x="1076.707" y="827.4694"/><rect fill="#FFFFFF" height="2" style="stroke:#000000;stroke-width:1;" width="4" x="1074.707" y="829.4694"/><rect fill="#FFFFFF" height="2" style="stroke:#000000;stroke-width:1;" width="4" x="1074.707" y="833.4694"/><text fill="#000000" font-family="Verdana" font-size="14" lengthAdjust="spacing" textLength="139.7402" x="798.29" y="855.4645">Topology Composer</text><text fill="#000000" font-family="Verdana" font-size="14" lengthAdjust="spacing" textLength="273.417" x="798.29" y="871.7614">Host -&gt; Runtime -&gt; Driver -&gt; Endpoint</text></g><!--entity commsEditor--><g class="entity" data-qualified-name="fleetUi.commsEditor" data-source-line="34" id="ent0020"><rect fill="#FFFFFF" height="62.5938" rx="2.5" ry="2.5" style="stroke:#000000;stroke-width:1;" width="252.4404" x="797.78" y="724.8694"/><rect fill="#FFFFFF" height="10" style="stroke:#000000;stroke-width:1;" width="15" x="1030.2204" y="729.8694"/><rect fill="#FFFFFF" height="2" style="stroke:#000000;stroke-width:1;" width="4" x="1028.2204" y="731.8694"/><rect fill="#FFFFFF" height="2" style="stroke:#000000;stroke-width:1;" width="4" x="1028.2204" y="735.8694"/><text fill="#000000" font-family="Verdana" font-size="14" lengthAdjust="spacing" textLength="98.793" x="812.78" y="757.8645">Comms Editor</text><text fill="#000000" font-family="Verdana" font-size="14" lengthAdjust="spacing" textLength="212.4404" x="812.78" y="774.1614">runtime-owned io.toml drivers</text></g><g class="entity" data-qualified-name="GMN37" data-source-line="57" id="ent0038"><path d="M953.64,217.3594 L953.64,257.625 L1216.3587,257.625 L1216.3587,227.3594 L1206.3587,217.3594 L953.64,217.3594" fill="#FFFFFF" style="stroke:#000000;stroke-width:1;"/><path d="M1206.3587,217.3594 L1206.3587,227.3594 L1216.3587,227.3594 L1206.3587,217.3594" fill="#FFFFFF" style="stroke:#000000;stroke-width:1;"/><text fill="#000000" font-family="Verdana" font-size="13" lengthAdjust="spacing" textLength="204.6611" x="959.64" y="234.4263">No fallback from T0 to mesh/IP.</text><text fill="#000000" font-family="Verdana" font-size="13" lengthAdjust="spacing" textLength="241.7188" x="959.64" y="249.5591">Contract violations are deterministic.</text></g><g class="entity" data-qualified-name="GMN40" data-source-line="62" id="ent0041"><path d="M1772.63,477.2794 L1772.63,532.6778 L1997.3644,532.6778 L1997.3644,487.2794 L1987.3644,477.2794 L1772.63,477.2794" fill="#FFFFFF" style="stroke:#000000;stroke-width:1;"/><path d="M1987.3644,477.2794 L1987.3644,487.2794 L1997.3644,487.2794 L1987.3644,477.2794" fill="#FFFFFF" style="stroke:#000000;stroke-width:1;"/><text fill="#000000" font-family="Verdana" font-size="13" lengthAdjust="spacing" textLength="192.8291" x="1778.63" y="494.3463">Gateway profile is pluginized;</text><text fill="#000000" font-family="Verdana" font-size="13" lengthAdjust="spacing" textLength="203.7344" x="1778.63" y="509.4791">plugin failures remain bounded</text><text fill="#000000" font-family="Verdana" font-size="13" lengthAdjust="spacing" textLength="190.2329" x="1778.63" y="524.6119">and surfaced via diagnostics.</text></g><!--link cloudA to t0A--><g class="link" data-entity-1="ent0004" data-entity-2="ent0003" data-link-type="dependency" data-source-line="37" id="lnk21"><path d="M625.67,155.5494 C625.67,168.6794 625.67,178.0494 625.67,191.9194" fill="none" id="cloudA-to-t0A" style="stroke:#000000;stroke-width:1;"/><polygon fill="#000000" points="625.67,197.9194,629.67,188.9194,625.67,192.9194,621.67,188.9194,625.67,197.9194" style="stroke:#000000;stroke-width:1;"/><text fill="#000000" font-family="Verdana" font-size="13" lengthAdjust="spacing" textLength="128.3115" x="496.67" y="172.7963">handle-only T0 APIs</text></g><!--link cloudB to t0B--><g class="link" data-entity-1="ent0008" data-entity-2="ent0007" data-link-type="dependency" data-source-line="38" id="lnk22"><path d="M156.67,269.0694 C156.67,294.8994 156.67,325.5894 156.67,353.4294" fill="none" id="cloudB-to-t0B" style="stroke:#000000;stroke-width:1;"/><polygon fill="#000000" points="156.67,359.4294,160.67,350.4294,156.67,354.4294,152.67,350.4294,156.67,359.4294" style="stroke:#000000;stroke-width:1;"/><text fill="#000000" font-family="Verdana" font-size="13" lengthAdjust="spacing" textLength="128.3115" x="27.67" y="310.3163">handle-only T0 APIs</text></g><!--link cloudA to meshA--><g class="link" data-entity-1="ent0004" data-entity-2="ent0005" data-link-type="dependency" data-source-line="40" id="lnk23"><path d="M778.78,155.5494 C778.78,171.2994 778.78,184.2894 778.78,200.0194" fill="none" id="cloudA-to-meshA" style="stroke:#000000;stroke-width:1;"/><polygon fill="#000000" points="778.78,206.0194,782.78,197.0194,778.78,201.0194,774.78,197.0194,778.78,206.0194" style="stroke:#000000;stroke-width:1;"/><text fill="#000000" font-family="Verdana" font-size="13" lengthAdjust="spacing" textLength="88.8862" x="689.78" y="176.8563">publish/query</text></g><!--link cloudB to meshB--><g class="link" data-entity-1="ent0008" data-entity-2="ent0009" data-link-type="dependency" data-source-line="41" id="lnk24"><path d="M309.78,269.0694 C309.78,297.4694 309.78,333.0094 309.78,361.4694" fill="none" id="cloudB-to-meshB" style="stroke:#000000;stroke-width:1;"/><polygon fill="#000000" points="309.78,367.4694,313.78,358.4694,309.78,362.4694,305.78,358.4694,309.78,367.4694" style="stroke:#000000;stroke-width:1;"/><text fill="#000000" font-family="Verdana" font-size="13" lengthAdjust="spacing" textLength="88.8862" x="220.78" y="314.3363">publish/query</text></g><!--link meshA to meshB--><g class="link" data-entity-1="ent0005" data-entity-2="ent0009" data-link-type="dependency" data-source-line="42" id="lnk25"><path d="M718.82,237.0594 C705.65,237.0594 702.46,237.0594 702.46,237.0594 C702.46,237.0594 702.46,399.0594 702.46,399.0594 C702.46,399.0594 551.23,399.0594 446.2,399.0594" fill="none" id="meshA-meshB" style="stroke:#000000;stroke-width:1;"/><polygon fill="#000000" points="724.82,237.0594,715.82,233.0594,719.82,237.0594,715.82,241.0594,724.82,237.0594" style="stroke:#000000;stroke-width:1;"/><polygon fill="#000000" points="440.2,399.0594,449.2,403.0594,445.2,399.0594,449.2,395.0594,440.2,399.0594" style="stroke:#000000;stroke-width:1;"/><text fill="#000000" font-family="Verdana" font-size="13" lengthAdjust="spacing" textLength="185.9038" x="477.51" y="395.1263">Zenoh keyspace + liveliness</text></g><!--link meshA to bridgePlugin--><g class="link" data-entity-1="ent0005" data-entity-2="ent0013" data-link-type="dependency" data-source-line="44" id="lnk26"><path d="M909.29,263.0594 C946.01,263.0594 979.71,263.0594 979.71,263.0594 C979.71,263.0594 979.71,401.7794 979.71,467.3494" fill="none" id="meshA-to-bridgePlugin" style="stroke:#000000;stroke-width:1;"/><polygon fill="#000000" points="979.71,473.3494,983.71,464.3494,979.71,468.3494,975.71,464.3494,979.71,473.3494" style="stroke:#000000;stroke-width:1;"/><text fill="#000000" font-family="Verdana" font-size="13" lengthAdjust="spacing" textLength="184.7104" x="794.71" y="329.0663">gateway-assisted federation</text></g><!--link meshB to bridgePlugin--><g class="link" data-entity-1="ent0009" data-entity-2="ent0013" data-link-type="dependency" data-source-line="45" id="lnk27"><path d="M348,430.9894 C348,462.1594 348,505.0594 348,505.0594 C348,505.0594 644.5,505.0594 830.6,505.0594" fill="none" id="meshB-to-bridgePlugin" style="stroke:#000000;stroke-width:1;"/><polygon fill="#000000" points="836.6,505.0594,827.6,501.0594,831.6,505.0594,827.6,509.0594,836.6,505.0594" style="stroke:#000000;stroke-width:1;"/><text fill="#000000" font-family="Verdana" font-size="13" lengthAdjust="spacing" textLength="184.7104" x="370.27" y="501.1263">gateway-assisted federation</text></g><!--link aclPlugin to bridgePlugin--><g class="link" data-entity-1="ent0011" data-entity-2="ent0013" data-link-type="dependency" data-source-line="46" id="lnk28"><path d="M892.24,430.9694 C892.24,444.3494 892.24,453.8994 892.24,467.2794" fill="none" id="aclPlugin-to-bridgePlugin" style="stroke:#000000;stroke-width:1;"/><polygon fill="#000000" points="892.24,473.2794,896.24,464.2794,892.24,468.2794,888.24,464.2794,892.24,473.2794" style="stroke:#000000;stroke-width:1;"/><text fill="#000000" font-family="Verdana" font-size="13" lengthAdjust="spacing" textLength="102.7622" x="789.24" y="448.1863">policy decisions</text></g><!--link storagePlugin to bridgePlugin--><g class="link" data-entity-1="ent0012" data-entity-2="ent0013" data-link-type="dependency" data-source-line="47" id="lnk29"><path d="M1057,430.9694 C1057,444.3494 1057,453.8994 1057,467.2794" fill="none" id="storagePlugin-to-bridgePlugin" style="stroke:#000000;stroke-width:1;"/><polygon fill="#000000" points="1057,473.2794,1061,464.2794,1057,468.2794,1053,464.2794,1057,473.2794" style="stroke:#000000;stroke-width:1;"/><text fill="#000000" font-family="Verdana" font-size="13" lengthAdjust="spacing" textLength="230.1978" x="826" y="465.1863">retained desired/meta + snapshots</text></g><!--link auditPlugin to bridgePlugin--><g class="link" data-entity-1="ent0016" data-entity-2="ent0013" data-link-type="dependency" data-source-line="48" id="lnk30"><path d="M1352,430.8394 C1352,457.3994 1352,491.0594 1352,491.0594 C1352,491.0594 1232.91,491.0594 1127.61,491.0594" fill="none" id="auditPlugin-to-bridgePlugin" style="stroke:#000000;stroke-width:1;"/><polygon fill="#000000" points="1121.61,491.0594,1130.61,495.0594,1126.61,491.0594,1130.61,487.0594,1121.61,491.0594" style="stroke:#000000;stroke-width:1;"/><text fill="#000000" font-family="Verdana" font-size="13" lengthAdjust="spacing" textLength="206.9019" x="1267.92" y="487.1263">protected-action audit emission</text></g><!--link witnessPlugin to bridgePlugin--><g class="link" data-entity-1="ent0017" data-entity-2="ent0013" data-link-type="dependency" data-source-line="49" id="lnk31"><path d="M1592,430.9894 C1592,462.1594 1592,505.0594 1592,505.0594 C1592,505.0594 1308.67,505.0594 1127.56,505.0594" fill="none" id="witnessPlugin-to-bridgePlugin" style="stroke:#000000;stroke-width:1;"/><polygon fill="#000000" points="1121.56,505.0594,1130.56,509.0594,1126.56,505.0594,1130.56,501.0594,1121.56,505.0594" style="stroke:#000000;stroke-width:1;"/><text fill="#000000" font-family="Verdana" font-size="13" lengthAdjust="spacing" textLength="71.4111" x="1321.82" y="518.1263">lease state</text></g><!--link bridgePlugin to restPlugin--><g class="link" data-entity-1="ent0013" data-entity-2="ent0014" data-link-type="dependency" data-source-line="50" id="lnk32"><path d="M932.14,536.6694 C932.14,547.6894 932.14,554.0394 932.14,565.0494" fill="none" id="bridgePlugin-to-restPlugin" style="stroke:#000000;stroke-width:1;"/><polygon fill="#000000" points="932.14,571.0494,936.14,562.0494,932.14,566.0494,928.14,562.0494,932.14,571.0494" style="stroke:#000000;stroke-width:1;"/><text fill="#000000" font-family="Verdana" font-size="13" lengthAdjust="spacing" textLength="152.2739" x="779.14" y="549.9263">REST dispatch/preflight</text></g><!--link bridgePlugin to wsPlugin--><g class="link" data-entity-1="ent0013" data-entity-2="ent0015" data-link-type="dependency" data-source-line="51" id="lnk33"><path d="M1096.72,536.6694 C1096.72,547.6894 1096.72,554.0394 1096.72,565.0494" fill="none" id="bridgePlugin-to-wsPlugin" style="stroke:#000000;stroke-width:1;"/><polygon fill="#000000" points="1096.72,571.0494,1100.72,562.0494,1096.72,566.0494,1092.72,562.0494,1096.72,571.0494" style="stroke:#000000;stroke-width:1;"/><text fill="#000000" font-family="Verdana" font-size="13" lengthAdjust="spacing" textLength="117.0063" x="978.72" y="549.9263">fleet web updates</text></g><!--link wsPlugin to topoComposer--><g class="link" data-entity-1="ent0015" data-entity-2="ent0019" data-link-type="dependency" data-source-line="52" id="lnk34"><path d="M1084.45,634.1294 C1084.45,682.3594 1084.45,767.8694 1084.45,816.1394" fill="none" id="wsPlugin-to-topoComposer" style="stroke:#000000;stroke-width:1;"/><polygon fill="#000000" points="1084.45,822.1394,1088.45,813.1394,1084.45,817.1394,1080.45,813.1394,1084.45,822.1394" style="stroke:#000000;stroke-width:1;"/><text fill="#000000" font-family="Verdana" font-size="13" lengthAdjust="spacing" textLength="178.1279" x="1085.45" y="724.2063">runtime-cloud state stream</text></g><!--link restPlugin to commsEditor--><g class="link" data-entity-1="ent0014" data-entity-2="ent0020" data-link-type="dependency" data-source-line="53" id="lnk35"><path d="M912.65,634.0294 C912.65,660.4494 912.65,692.0194 912.65,718.4994" fill="none" id="restPlugin-to-commsEditor" style="stroke:#000000;stroke-width:1;"/><polygon fill="#000000" points="912.65,724.4994,916.65,715.4994,912.65,719.4994,908.65,715.4994,912.65,724.4994" style="stroke:#000000;stroke-width:1;"/><text fill="#000000" font-family="Verdana" font-size="13" lengthAdjust="spacing" textLength="157.7075" x="754.65" y="675.3263">read/write io config APIs</text></g><!--link commsEditor to topoComposer--><g class="link" data-entity-1="ent0020" data-entity-2="ent0019" data-link-type="dependency" data-source-line="54" id="lnk36"><path d="M924,787.8594 C924,798.8794 924,805.2294 924,816.2394" fill="none" id="commsEditor-to-topoComposer" style="stroke:#000000;stroke-width:1;"/><polygon fill="#000000" points="924,822.2394,928,813.2394,924,817.2394,920,813.2394,924,822.2394" style="stroke:#000000;stroke-width:1;"/><text fill="#000000" font-family="Verdana" font-size="13" lengthAdjust="spacing" textLength="176.1221" x="747" y="801.1163">driver+endpoint projection</text></g><!--link t0A to GMN37--><g class="link" data-entity-1="ent0003" data-entity-2="ent0038" data-link-type="association" data-source-line="57" id="lnk39"><path d="M680.15,273.0594 C792.24,273.0594 966.67,273.0594 966.67,273.0594 C966.67,273.0594 966.67,265.7594 966.67,257.7694" fill="none" id="t0A-GMN37" style="stroke:#000000;stroke-width:1;stroke-dasharray:7,7;"/></g><!--link gateway to GMN40--><g class="link" data-entity-1="ent0010" data-entity-2="ent0041" data-link-type="association" data-source-line="62" id="lnk42"><path d="M1749.0293,519.0594 C1749.1124,519.0594 1749.1961,519.0594 1749.2803,519.0594 C1749.4488,519.0594 1749.6195,519.0594 1749.7925,519.0594 C1755.3275,519.0594 1763.14,519.0594 1772.25,519.0594" fill="none" id="gateway-GMN40" style="stroke:#000000;stroke-width:1;stroke-dasharray:7,7;"/></g><?plantuml-src jLPHRzis47xNhxWbBsuBHLsxlcp303jBbm3h5iGk2WnveSMJn8KYDPAAuGtxx_ieoexSgi0sR31WMEBTTyVlxhlp5w7XbgdJGfdCFoZJ2ITQsehoeNQsD_BIQkle_ErL_4miIjjsrh09wx3NJ7shNqrEjJ8SzXsJTQ6namDZ9NlkwAitavTEc8VuylMRB0ig02wuVhsXkzu4XUmkjUqbtMfXsDFY5pQseHUqldw7xnz4u9tOuxIlbV7Fign3xg9cEZkuBxmAd8l2fUTSF3iZuMbyNDBvZwfkmahtJ7zaz7GpEjkyf6lXvDqc1RytFw_pI0tB8RfJfhut2oyGfB4-a3Lwdy33o-KfrEbTrkmULGd0pd6bO_X2Aj-9K3P5QKsbwi9P3TCme9NHwIF0HCCxzWtGl5VM89NDbyNcLR5vdP9eSRZC_lmRb6nFA5dzJvIi_cjALl-AajK99QSDHDSnwONj0ho5fixPIcbEplLeUlwXOH4-PaQKC1z045Lo9NeTSibcZouLI7odbGy92AOft2c23zR5d8ueZWCEa0cLLLsq74GXUgb6bD5y3cdhb9m0bSvwdyUQKsUrAcDAacid9ChMGf83NdAQWnEToXs3c2EWRLirC8nw0wpIp86MjpS-zH5iFuUpyqUK7MzHHnMFAc4EbTtvMTTuxwDdrs_1PaDIYJfHKZn_dgYD3tC0ZSXtAc22FCL_AhDcuPd6yyJk-312JJlcxN3P3qZ-_GqjjixkFBlaDF3mNj7v4Ypph7uiAc3hFLt6Tt2yDqFBvTyTnnr-Vk_K8xluwyh8pYgJg0bmFlYTmk9jw-aATxT0FCZQxWmAhEn5iAqcEO2c2iK2-cGUxvO63EK8YCb5NrCZZDG0W7e9ae-LJKQhqMZr6QCfr31_O3TMg_YjPxUVmWng_CGWkNqxDKZAVk0z1aB9Q3YDgyGbun4nsKVpQGV3QzHhBj2fFe29YYKx4MkU9UH_w7JKxPpZg2p9fOh2yDc9FkSy86-iNOJ0JbIEvQ1mNCuRqVd61fzDkdasfBE1IoIPYt8O4qabF6epE-dXEO3KzpxWpjd9KRHzKZ4ixwwma8y3-JYZF_Kwo1S-QIf4bVUTH0YVxQQvJBiviZ4sxT0VAITyEnPjDiaaEawQTs1Ho6Bdud1JbjAg61jsOZSJCEdX1OyAYsp-oWEFMMP0B9OPRaYs6hVvJnPZIkkuxQXojeqz7-pGeyNDxGKiBgq93gMWHsNrq38OI8vHty2kLGODfSgB314f1XZ3R6s0FcESiVU0TDXAu_uXTPXQwdUMty0WFI4XfNlG0nPQz1Amy9-D9GoWJVAzgw0NYNp4C2kDZHduIGf_0G00?></g></svg>