<?plantuml 1.2026.2?><svg xmlns="http://www.w3.org/2000/svg" xmlns:xlink="http://www.w3.org/1999/xlink" contentStyleType="text/css" data-diagram-type="SEQUENCE" height="1433px" preserveAspectRatio="none" style="width:1822px;height:1433px;background:#FFFFFF;" version="1.1" viewBox="0 0 1822 1433" width="1822px" zoomAndPan="magnify"><title>Step Over Request Flow</title><defs/><g><text fill="#000000" font-family="Verdana" font-size="22" font-weight="bold" lengthAdjust="spacing" textLength="298.6328" x="765.7224" y="35.4209">Step Over Request Flow</text><g><title>DebugAdapter</title><rect fill="#FFFFFF" height="370.9922" style="stroke:#FFFFFF;stroke-width:1;" width="10" x="250.3853" y="160.0391"/><line style="stroke:#000000;stroke-width:1;" x1="250.3853" x2="250.3853" y1="160.0391" y2="531.0313"/><line style="stroke:#000000;stroke-width:1;" x1="260.3853" x2="260.3853" y1="160.0391" y2="531.0313"/><line style="stroke:#000000;stroke-width:1;" x1="250.3853" x2="260.3853" y1="160.0391" y2="160.0391"/></g><g><title>DebugAdapter</title><rect fill="#FFFFFF" height="343.2656" style="stroke:#FFFFFF;stroke-width:1;" width="10" x="250.3853" y="571.8359"/><line style="stroke:#000000;stroke-width:1;" x1="250.3853" x2="250.3853" y1="571.8359" y2="915.1016"/><line style="stroke:#000000;stroke-width:1;" x1="260.3853" x2="260.3853" y1="571.8359" y2="915.1016"/></g><g><title>DebugAdapter</title><rect fill="#FFFFFF" height="386.8594" style="stroke:#FFFFFF;stroke-width:1;" width="10" x="250.3853" y="955.9063"/><line style="stroke:#000000;stroke-width:1;" x1="250.3853" x2="250.3853" y1="955.9063" y2="1342.7656"/><line style="stroke:#000000;stroke-width:1;" x1="260.3853" x2="260.3853" y1="955.9063" y2="1342.7656"/></g><g><title>DebugControl</title><rect fill="#FFFFFF" height="161.0625" style="stroke:#000000;stroke-width:1;" width="10" x="537.2324" y="304.7031"/></g><g><title>Runtime</title><rect fill="#FFFFFF" height="322.1328" style="stroke:#000000;stroke-width:1;" width="10" x="1153.0225" y="592.9688"/></g><g><title>DebugHook</title><rect fill="#FFFFFF" height="261.8672" style="stroke:#000000;stroke-width:1;" width="10" x="1408.3101" y="646.2344"/></g><rect fill="#FFFFFF" height="300.1328" style="stroke:#000000;stroke-width:1;" width="1166.312" x="649.7656" y="607.9688"/><rect fill="#FFFFFF" height="189.6016" style="stroke:#000000;stroke-width:1;" width="923.8032" x="659.7656" y="711.5"/><rect fill="#FFFFFF" height="43.9375" style="stroke:none;stroke-width:1;" width="923.8032" x="659.7656" y="857.1641"/><g class="participant-lifeline" data-entity-uid="part1" data-qualified-name="vscode" id="part1-lifeline"><g><title>VS Code</title><rect fill="#000000" fill-opacity="0.00000" height="402.125" width="8" x="38.3774" y="128.9063"/><line style="stroke:#000000;stroke-width:1;stroke-dasharray:5,5;" x1="42" x2="42" y1="128.9063" y2="531.0313"/></g><line style="stroke:#000000;stroke-width:1;stroke-dasharray:1,4;" x1="42" x2="42" y1="531.0313" y2="571.8359"/><g><title>VS Code</title><rect fill="#000000" fill-opacity="0.00000" height="343.2656" width="8" x="38.3774" y="571.8359"/><line style="stroke:#000000;stroke-width:1;stroke-dasharray:5,5;" x1="42" x2="42" y1="571.8359" y2="915.1016"/></g><line style="stroke:#000000;stroke-width:1;stroke-dasharray:1,4;" x1="42" x2="42" y1="915.1016" y2="955.9063"/><g><title>VS Code</title><rect fill="#000000" fill-opacity="0.00000" height="395.8594" width="8" x="38.3774" y="955.9063"/><line style="stroke:#000000;stroke-width:1;stroke-dasharray:5,5;" x1="42" x2="42" y1="955.9063" y2="1351.7656"/></g></g><g class="participant-lifeline" data-entity-uid="part2" data-qualified-name="adapter" id="part2-lifeline"><g><title>DebugAdapter</title><rect fill="#000000" fill-opacity="0.00000" height="402.125" width="8" x="251.3853" y="128.9063"/><line style="stroke:#000000;stroke-width:1;stroke-dasharray:5,5;" x1="254.4712" x2="254.4712" y1="128.9063" y2="531.0313"/></g><line style="stroke:#000000;stroke-width:1;stroke-dasharray:1,4;" x1="254.4712" x2="254.4712" y1="531.0313" y2="571.8359"/><g><title>DebugAdapter</title><rect fill="#000000" fill-opacity="0.00000" height="343.2656" width="8" x="251.3853" y="571.8359"/><line style="stroke:#000000;stroke-width:1;stroke-dasharray:5,5;" x1="254.4712" x2="254.4712" y1="571.8359" y2="915.1016"/></g><line style="stroke:#000000;stroke-width:1;stroke-dasharray:1,4;" x1="254.4712" x2="254.4712" y1="915.1016" y2="955.9063"/><g><title>DebugAdapter</title><rect fill="#000000" fill-opacity="0.00000" height="395.8594" width="8" x="251.3853" y="955.9063"/><line style="stroke:#000000;stroke-width:1;stroke-dasharray:5,5;" x1="254.4712" x2="254.4712" y1="955.9063" y2="1351.7656"/></g></g><g class="participant-lifeline" data-entity-uid="part3" data-qualified-name="session" id="part3-lifeline"><g><title>DebugSession</title><rect fill="#000000" fill-opacity="0.00000" height="402.125" width="8" x="396.0273" y="128.9063"/><line style="stroke:#000000;stroke-width:1;stroke-dasharray:5,5;" x1="399.2993" x2="399.2993" y1="128.9063" y2="531.0313"/></g><line style="stroke:#000000;stroke-width:1;stroke-dasharray:1,4;" x1="399.2993" x2="399.2993" y1="531.0313" y2="571.8359"/><g><title>DebugSession</title><rect fill="#000000" fill-opacity="0.00000" height="343.2656" width="8" x="396.0273" y="571.8359"/><line style="stroke:#000000;stroke-width:1;stroke-dasharray:5,5;" x1="399.2993" x2="399.2993" y1="571.8359" y2="915.1016"/></g><line style="stroke:#000000;stroke-width:1;stroke-dasharray:1,4;" x1="399.2993" x2="399.2993" y1="915.1016" y2="955.9063"/><g><title>DebugSession</title><rect fill="#000000" fill-opacity="0.00000" height="395.8594" width="8" x="396.0273" y="955.9063"/><line style="stroke:#000000;stroke-width:1;stroke-dasharray:5,5;" x1="399.2993" x2="399.2993" y1="955.9063" y2="1351.7656"/></g></g><g class="participant-lifeline" data-entity-uid="part4" data-qualified-name="control" id="part4-lifeline"><g><title>DebugControl</title><rect fill="#000000" fill-opacity="0.00000" height="402.125" width="8" x="538.2324" y="128.9063"/><line style="stroke:#000000;stroke-width:1;stroke-dasharray:5,5;" x1="541.7554" x2="541.7554" y1="128.9063" y2="531.0313"/></g><line style="stroke:#000000;stroke-width:1;stroke-dasharray:1,4;" x1="541.7554" x2="541.7554" y1="531.0313" y2="571.8359"/><g><title>DebugControl</title><rect fill="#000000" fill-opacity="0.00000" height="343.2656" width="8" x="538.2324" y="571.8359"/><line style="stroke:#000000;stroke-width:1;stroke-dasharray:5,5;" x1="541.7554" x2="541.7554" y1="571.8359" y2="915.1016"/></g><line style="stroke:#000000;stroke-width:1;stroke-dasharray:1,4;" x1="541.7554" x2="541.7554" y1="915.1016" y2="955.9063"/><g><title>DebugControl</title><rect fill="#000000" fill-opacity="0.00000" height="395.8594" width="8" x="538.2324" y="955.9063"/><line style="stroke:#000000;stroke-width:1;stroke-dasharray:5,5;" x1="541.7554" x2="541.7554" y1="955.9063" y2="1351.7656"/></g></g><g class="participant-lifeline" data-entity-uid="part5" data-qualified-name="stopThread" id="part5-lifeline"><g><title>Stop Thread</title><rect fill="#000000" fill-opacity="0.00000" height="402.125" width="8" x="725.5347" y="128.9063"/><line style="stroke:#000000;stroke-width:1;stroke-dasharray:5,5;" x1="728.7656" x2="728.7656" y1="128.9063" y2="531.0313"/></g><line style="stroke:#000000;stroke-width:1;stroke-dasharray:1,4;" x1="728.7656" x2="728.7656" y1="531.0313" y2="571.8359"/><g><title>Stop Thread</title><rect fill="#000000" fill-opacity="0.00000" height="343.2656" width="8" x="725.5347" y="571.8359"/><line style="stroke:#000000;stroke-width:1;stroke-dasharray:5,5;" x1="728.7656" x2="728.7656" y1="571.8359" y2="915.1016"/></g><line style="stroke:#000000;stroke-width:1;stroke-dasharray:1,4;" x1="728.7656" x2="728.7656" y1="915.1016" y2="955.9063"/><g><title>Stop Thread</title><rect fill="#000000" fill-opacity="0.00000" height="395.8594" width="8" x="725.5347" y="955.9063"/><line style="stroke:#000000;stroke-width:1;stroke-dasharray:5,5;" x1="728.7656" x2="728.7656" y1="955.9063" y2="1351.7656"/></g></g><g class="participant-lifeline" data-entity-uid="part6" data-qualified-name="stopCoord" id="part6-lifeline"><g><title>StopCoordinator</title><rect fill="#000000" fill-opacity="0.00000" height="402.125" width="8" x="869.5684" y="128.9063"/><line style="stroke:#000000;stroke-width:1;stroke-dasharray:5,5;" x1="873.3037" x2="873.3037" y1="128.9063" y2="531.0313"/></g><line style="stroke:#000000;stroke-width:1;stroke-dasharray:1,4;" x1="873.3037" x2="873.3037" y1="531.0313" y2="571.8359"/><g><title>StopCoordinator</title><rect fill="#000000" fill-opacity="0.00000" height="343.2656" width="8" x="869.5684" y="571.8359"/><line style="stroke:#000000;stroke-width:1;stroke-dasharray:5,5;" x1="873.3037" x2="873.3037" y1="571.8359" y2="915.1016"/></g><line style="stroke:#000000;stroke-width:1;stroke-dasharray:1,4;" x1="873.3037" x2="873.3037" y1="915.1016" y2="955.9063"/><g><title>StopCoordinator</title><rect fill="#000000" fill-opacity="0.00000" height="395.8594" width="8" x="869.5684" y="955.9063"/><line style="stroke:#000000;stroke-width:1;stroke-dasharray:5,5;" x1="873.3037" x2="873.3037" y1="955.9063" y2="1351.7656"/></g></g><g class="participant-lifeline" data-entity-uid="part7" data-qualified-name="runner" id="part7-lifeline"><g><title>Runner Thread</title><rect fill="#000000" fill-opacity="0.00000" height="402.125" width="8" x="1027.6094" y="128.9063"/><line style="stroke:#000000;stroke-width:1;stroke-dasharray:5,5;" x1="1031.3965" x2="1031.3965" y1="128.9063" y2="531.0313"/></g><line style="stroke:#000000;stroke-width:1;stroke-dasharray:1,4;" x1="1031.3965" x2="1031.3965" y1="531.0313" y2="571.8359"/><g><title>Runner Thread</title><rect fill="#000000" fill-opacity="0.00000" height="343.2656" width="8" x="1027.6094" y="571.8359"/><line style="stroke:#000000;stroke-width:1;stroke-dasharray:5,5;" x1="1031.3965" x2="1031.3965" y1="571.8359" y2="915.1016"/></g><line style="stroke:#000000;stroke-width:1;stroke-dasharray:1,4;" x1="1031.3965" x2="1031.3965" y1="915.1016" y2="955.9063"/><g><title>Runner Thread</title><rect fill="#000000" fill-opacity="0.00000" height="395.8594" width="8" x="1027.6094" y="955.9063"/><line style="stroke:#000000;stroke-width:1;stroke-dasharray:5,5;" x1="1031.3965" x2="1031.3965" y1="955.9063" y2="1351.7656"/></g></g><g class="participant-lifeline" data-entity-uid="part8" data-qualified-name="runtime" id="part8-lifeline"><g><title>Runtime</title><rect fill="#000000" fill-opacity="0.00000" height="402.125" width="8" x="1154.0225" y="128.9063"/><line style="stroke:#000000;stroke-width:1;stroke-dasharray:5,5;" x1="1157.4707" x2="1157.4707" y1="128.9063" y2="531.0313"/></g><line style="stroke:#000000;stroke-width:1;stroke-dasharray:1,4;" x1="1157.4707" x2="1157.4707" y1="531.0313" y2="571.8359"/><g><title>Runtime</title><rect fill="#000000" fill-opacity="0.00000" height="343.2656" width="8" x="1154.0225" y="571.8359"/><line style="stroke:#000000;stroke-width:1;stroke-dasharray:5,5;" x1="1157.4707" x2="1157.4707" y1="571.8359" y2="915.1016"/></g><line style="stroke:#000000;stroke-width:1;stroke-dasharray:1,4;" x1="1157.4707" x2="1157.4707" y1="915.1016" y2="955.9063"/><g><title>Runtime</title><rect fill="#000000" fill-opacity="0.00000" height="395.8594" width="8" x="1154.0225" y="955.9063"/><line style="stroke:#000000;stroke-width:1;stroke-dasharray:5,5;" x1="1157.4707" x2="1157.4707" y1="955.9063" y2="1351.7656"/></g></g><g class="participant-lifeline" data-entity-uid="part9" data-qualified-name="hook" id="part9-lifeline"><g><title>DebugHook</title><rect fill="#000000" fill-opacity="0.00000" height="402.125" width="8" x="1409.3101" y="128.9063"/><line style="stroke:#000000;stroke-width:1;stroke-dasharray:5,5;" x1="1412.4072" x2="1412.4072" y1="128.9063" y2="531.0313"/></g><line style="stroke:#000000;stroke-width:1;stroke-dasharray:1,4;" x1="1412.4072" x2="1412.4072" y1="531.0313" y2="571.8359"/><g><title>DebugHook</title><rect fill="#000000" fill-opacity="0.00000" height="343.2656" width="8" x="1409.3101" y="571.8359"/><line style="stroke:#000000;stroke-width:1;stroke-dasharray:5,5;" x1="1412.4072" x2="1412.4072" y1="571.8359" y2="915.1016"/></g><line style="stroke:#000000;stroke-width:1;stroke-dasharray:1,4;" x1="1412.4072" x2="1412.4072" y1="915.1016" y2="955.9063"/><g><title>DebugHook</title><rect fill="#000000" fill-opacity="0.00000" height="395.8594" width="8" x="1409.3101" y="955.9063"/><line style="stroke:#000000;stroke-width:1;stroke-dasharray:5,5;" x1="1412.4072" x2="1412.4072" y1="955.9063" y2="1351.7656"/></g></g><g class="participant participant-head" data-entity-uid="part1" data-qualified-name="vscode" id="part1-head"><text fill="#000000" font-family="Verdana" font-size="14" lengthAdjust="spacing" textLength="58.7549" x="10" y="125.6045">VS Code</text><ellipse cx="42.3774" cy="60.6094" fill="#FFFFFF" rx="8" ry="8" style="stroke:#000000;stroke-width:1;"/><path d="M42.3774,68.6094 L42.3774,95.6094 M29.3774,76.6094 L55.3774,76.6094 M42.3774,95.6094 L29.3774,110.6094 M42.3774,95.6094 L55.3774,110.6094" fill="none" style="stroke:#000000;stroke-width:1;"/></g><g class="participant participant-tail" data-entity-uid="part1" data-qualified-name="vscode" id="part1-tail"><text fill="#000000" font-family="Verdana" font-size="14" lengthAdjust="spacing" textLength="58.7549" x="10" y="1363.7607">VS Code</text><ellipse cx="42.3774" cy="1376.0625" fill="#FFFFFF" rx="8" ry="8" style="stroke:#000000;stroke-width:1;"/><path d="M42.3774,1384.0625 L42.3774,1411.0625 M29.3774,1392.0625 L55.3774,1392.0625 M42.3774,1411.0625 L29.3774,1426.0625 M42.3774,1411.0625 L55.3774,1426.0625" fill="none" style="stroke:#000000;stroke-width:1;"/></g><g class="participant participant-head" data-entity-uid="part2" data-qualified-name="adapter" id="part2-head"><rect fill="#FFFFFF" height="46.5938" rx="2.5" ry="2.5" style="stroke:#000000;stroke-width:1;" width="115.8281" x="197.4712" y="81.3125"/><text fill="#000000" font-family="Verdana" font-size="14" lengthAdjust="spacing" textLength="101.8281" x="204.4712" y="101.3076">DebugAdapter</text><text fill="#000000" font-family="Verdana" font-size="14" lengthAdjust="spacing" textLength="48.1318" x="231.3193" y="117.6045">core.rs</text></g><g class="participant participant-tail" data-entity-uid="part2" data-qualified-name="adapter" id="part2-tail"><rect fill="#FFFFFF" height="46.5938" rx="2.5" ry="2.5" style="stroke:#000000;stroke-width:1;" width="115.8281" x="197.4712" y="1350.7656"/><text fill="#000000" font-family="Verdana" font-size="14" lengthAdjust="spacing" textLength="101.8281" x="204.4712" y="1370.7607">DebugAdapter</text><text fill="#000000" font-family="Verdana" font-size="14" lengthAdjust="spacing" textLength="48.1318" x="231.3193" y="1387.0576">core.rs</text></g><g class="participant participant-head" data-entity-uid="part3" data-qualified-name="session" id="part3-head"><rect fill="#FFFFFF" height="46.5938" rx="2.5" ry="2.5" style="stroke:#000000;stroke-width:1;" width="113.4561" x="343.2993" y="81.3125"/><text fill="#000000" font-family="Verdana" font-size="14" lengthAdjust="spacing" textLength="99.4561" x="350.2993" y="101.3076">DebugSession</text><text fill="#000000" font-family="Verdana" font-size="14" lengthAdjust="spacing" textLength="69.3232" x="365.3657" y="117.6045">session.rs</text></g><g class="participant participant-tail" data-entity-uid="part3" data-qualified-name="session" id="part3-tail"><rect fill="#FFFFFF" height="46.5938" rx="2.5" ry="2.5" style="stroke:#000000;stroke-width:1;" width="113.4561" x="343.2993" y="1350.7656"/><text fill="#000000" font-family="Verdana" font-size="14" lengthAdjust="spacing" textLength="99.4561" x="350.2993" y="1370.7607">DebugSession</text><text fill="#000000" font-family="Verdana" font-size="14" lengthAdjust="spacing" textLength="69.3232" x="365.3657" y="1387.0576">session.rs</text></g><g class="participant participant-head" data-entity-uid="part4" data-qualified-name="control" id="part4-head"><rect fill="#FFFFFF" height="46.5938" rx="2.5" ry="2.5" style="stroke:#000000;stroke-width:1;" width="110.9541" x="486.7554" y="81.3125"/><text fill="#000000" font-family="Verdana" font-size="14" lengthAdjust="spacing" textLength="96.9541" x="493.7554" y="101.3076">DebugControl</text><text fill="#000000" font-family="Verdana" font-size="14" lengthAdjust="spacing" textLength="38.8555" x="522.8047" y="117.6045">api.rs</text></g><g class="participant participant-tail" data-entity-uid="part4" data-qualified-name="control" id="part4-tail"><rect fill="#FFFFFF" height="46.5938" rx="2.5" ry="2.5" style="stroke:#000000;stroke-width:1;" width="110.9541" x="486.7554" y="1350.7656"/><text fill="#000000" font-family="Verdana" font-size="14" lengthAdjust="spacing" textLength="96.9541" x="493.7554" y="1370.7607">DebugControl</text><text fill="#000000" font-family="Verdana" font-size="14" lengthAdjust="spacing" textLength="38.8555" x="522.8047" y="1387.0576">api.rs</text></g><g class="participant participant-head" data-entity-uid="part5" data-qualified-name="stopThread" id="part5-head"><rect fill="#FFFFFF" height="46.5938" rx="2.5" ry="2.5" style="stroke:#000000;stroke-width:1;" width="99.5381" x="679.7656" y="81.3125"/><text fill="#000000" font-family="Verdana" font-size="14" lengthAdjust="spacing" textLength="85.5381" x="686.7656" y="101.3076">Stop Thread</text><text fill="#000000" font-family="Verdana" font-size="14" lengthAdjust="spacing" textLength="48.1318" x="705.4688" y="117.6045">core.rs</text></g><g class="participant participant-tail" data-entity-uid="part5" data-qualified-name="stopThread" id="part5-tail"><rect fill="#FFFFFF" height="46.5938" rx="2.5" ry="2.5" style="stroke:#000000;stroke-width:1;" width="99.5381" x="679.7656" y="1350.7656"/><text fill="#000000" font-family="Verdana" font-size="14" lengthAdjust="spacing" textLength="85.5381" x="686.7656" y="1370.7607">Stop Thread</text><text fill="#000000" font-family="Verdana" font-size="14" lengthAdjust="spacing" textLength="48.1318" x="705.4688" y="1387.0576">core.rs</text></g><g class="participant participant-head" data-entity-uid="part6" data-qualified-name="stopCoord" id="part6-head"><rect fill="#FFFFFF" height="46.5938" rx="2.5" ry="2.5" style="stroke:#000000;stroke-width:1;" width="128.5293" x="809.3037" y="81.3125"/><text fill="#000000" font-family="Verdana" font-size="14" lengthAdjust="spacing" textLength="114.5293" x="816.3037" y="101.3076">StopCoordinator</text><text fill="#000000" font-family="Verdana" font-size="14" lengthAdjust="spacing" textLength="59.0557" x="844.0405" y="117.6045">(core.rs)</text></g><g class="participant participant-tail" data-entity-uid="part6" data-qualified-name="stopCoord" id="part6-tail"><rect fill="#FFFFFF" height="46.5938" rx="2.5" ry="2.5" style="stroke:#000000;stroke-width:1;" width="128.5293" x="809.3037" y="1350.7656"/><text fill="#000000" font-family="Verdana" font-size="14" lengthAdjust="spacing" textLength="114.5293" x="816.3037" y="1370.7607">StopCoordinator</text><text fill="#000000" font-family="Verdana" font-size="14" lengthAdjust="spacing" textLength="59.0557" x="844.0405" y="1387.0576">(core.rs)</text></g><g class="participant participant-head" data-entity-uid="part7" data-qualified-name="runner" id="part7-head"><rect fill="#FFFFFF" height="46.5938" rx="2.5" ry="2.5" style="stroke:#000000;stroke-width:1;" width="118.4258" x="972.3965" y="81.3125"/><text fill="#000000" font-family="Verdana" font-size="14" lengthAdjust="spacing" textLength="104.4258" x="979.3965" y="101.3076">Runner Thread</text><text fill="#000000" font-family="Verdana" font-size="14" lengthAdjust="spacing" textLength="48.1318" x="1007.5435" y="117.6045">core.rs</text></g><g class="participant participant-tail" data-entity-uid="part7" data-qualified-name="runner" id="part7-tail"><rect fill="#FFFFFF" height="46.5938" rx="2.5" ry="2.5" style="stroke:#000000;stroke-width:1;" width="118.4258" x="972.3965" y="1350.7656"/><text fill="#000000" font-family="Verdana" font-size="14" lengthAdjust="spacing" textLength="104.4258" x="979.3965" y="1370.7607">Runner Thread</text><text fill="#000000" font-family="Verdana" font-size="14" lengthAdjust="spacing" textLength="48.1318" x="1007.5435" y="1387.0576">core.rs</text></g><g class="participant participant-head" data-entity-uid="part8" data-qualified-name="runtime" id="part8-head"><rect fill="#FFFFFF" height="46.5938" rx="2.5" ry="2.5" style="stroke:#000000;stroke-width:1;" width="73.1035" x="1121.4707" y="81.3125"/><text fill="#000000" font-family="Verdana" font-size="14" lengthAdjust="spacing" textLength="59.1035" x="1128.4707" y="101.3076">Runtime</text><text fill="#000000" font-family="Verdana" font-size="14" lengthAdjust="spacing" textLength="53.6826" x="1131.1812" y="117.6045">cycle.rs</text></g><g class="participant participant-tail" data-entity-uid="part8" data-qualified-name="runtime" id="part8-tail"><rect fill="#FFFFFF" height="46.5938" rx="2.5" ry="2.5" style="stroke:#000000;stroke-width:1;" width="73.1035" x="1121.4707" y="1350.7656"/><text fill="#000000" font-family="Verdana" font-size="14" lengthAdjust="spacing" textLength="59.1035" x="1128.4707" y="1370.7607">Runtime</text><text fill="#000000" font-family="Verdana" font-size="14" lengthAdjust="spacing" textLength="53.6826" x="1131.1812" y="1387.0576">cycle.rs</text></g><g class="participant participant-head" data-entity-uid="part9" data-qualified-name="hook" id="part9-head"><rect fill="#FFFFFF" height="46.5938" rx="2.5" ry="2.5" style="stroke:#000000;stroke-width:1;" width="95.8057" x="1365.4072" y="81.3125"/><text fill="#000000" font-family="Verdana" font-size="14" lengthAdjust="spacing" textLength="81.8057" x="1372.4072" y="101.3076">DebugHook</text><text fill="#000000" font-family="Verdana" font-size="14" lengthAdjust="spacing" textLength="51.6113" x="1387.5044" y="117.6045">hook.rs</text></g><g class="participant participant-tail" data-entity-uid="part9" data-qualified-name="hook" id="part9-tail"><rect fill="#FFFFFF" height="46.5938" rx="2.5" ry="2.5" style="stroke:#000000;stroke-width:1;" width="95.8057" x="1365.4072" y="1350.7656"/><text fill="#000000" font-family="Verdana" font-size="14" lengthAdjust="spacing" textLength="81.8057" x="1372.4072" y="1370.7607">DebugHook</text><text fill="#000000" font-family="Verdana" font-size="14" lengthAdjust="spacing" textLength="51.6113" x="1387.5044" y="1387.0576">hook.rs</text></g><g><title>DebugAdapter</title><rect fill="#FFFFFF" height="370.9922" style="stroke:#FFFFFF;stroke-width:1;" width="10" x="250.3853" y="160.0391"/><line style="stroke:#000000;stroke-width:1;" x1="250.3853" x2="250.3853" y1="160.0391" y2="531.0313"/><line style="stroke:#000000;stroke-width:1;" x1="260.3853" x2="260.3853" y1="160.0391" y2="531.0313"/><line style="stroke:#000000;stroke-width:1;" x1="250.3853" x2="260.3853" y1="160.0391" y2="160.0391"/></g><g><title>DebugAdapter</title><rect fill="#FFFFFF" height="343.2656" style="stroke:#FFFFFF;stroke-width:1;" width="10" x="250.3853" y="571.8359"/><line style="stroke:#000000;stroke-width:1;" x1="250.3853" x2="250.3853" y1="571.8359" y2="915.1016"/><line style="stroke:#000000;stroke-width:1;" x1="260.3853" x2="260.3853" y1="571.8359" y2="915.1016"/></g><g><title>DebugAdapter</title><rect fill="#FFFFFF" height="386.8594" style="stroke:#FFFFFF;stroke-width:1;" width="10" x="250.3853" y="955.9063"/><line style="stroke:#000000;stroke-width:1;" x1="250.3853" x2="250.3853" y1="955.9063" y2="1342.7656"/><line style="stroke:#000000;stroke-width:1;" x1="260.3853" x2="260.3853" y1="955.9063" y2="1342.7656"/></g><g><title>DebugControl</title><rect fill="#FFFFFF" height="161.0625" style="stroke:#000000;stroke-width:1;" width="10" x="537.2324" y="304.7031"/></g><g><title>Runtime</title><rect fill="#FFFFFF" height="322.1328" style="stroke:#000000;stroke-width:1;" width="10" x="1153.0225" y="592.9688"/></g><g><title>DebugHook</title><rect fill="#FFFFFF" height="261.8672" style="stroke:#000000;stroke-width:1;" width="10" x="1408.3101" y="646.2344"/></g><g class="message" data-entity-1="part1" data-entity-2="part2" id="msg1"><polygon fill="#000000" points="238.3853,156.0391,248.3853,160.0391,238.3853,164.0391,242.3853,160.0391" style="stroke:#000000;stroke-width:1;"/><line style="stroke:#000000;stroke-width:1;" x1="42.3774" x2="244.3853" y1="160.0391" y2="160.0391"/><text fill="#000000" font-family="Verdana" font-size="13" lengthAdjust="spacing" textLength="189.0078" x="51.8774" y="154.9731">next(threadId) (DAP request)</text></g><g class="message" data-entity-1="part2" data-entity-2="part2" id="msg2"><line style="stroke:#000000;stroke-width:1;" x1="260.3853" x2="302.3853" y1="189.1719" y2="189.1719"/><line style="stroke:#000000;stroke-width:1;" x1="302.3853" x2="302.3853" y1="189.1719" y2="202.1719"/><line style="stroke:#000000;stroke-width:1;" x1="261.3853" x2="302.3853" y1="202.1719" y2="202.1719"/><polygon fill="#000000" points="271.3853,198.1719,261.3853,202.1719,271.3853,206.1719,267.3853,202.1719" style="stroke:#000000;stroke-width:1;"/><text fill="#000000" font-family="Verdana" font-size="13" lengthAdjust="spacing" textLength="89.978" x="267.3853" y="184.106">handle_next()</text></g><g class="message" data-entity-1="part2" data-entity-2="part3" id="msg3"><polygon fill="#000000" points="388.0273,227.3047,398.0273,231.3047,388.0273,235.3047,392.0273,231.3047" style="stroke:#000000;stroke-width:1;"/><line style="stroke:#000000;stroke-width:1;" x1="260.3853" x2="394.0273" y1="231.3047" y2="231.3047"/><text fill="#000000" font-family="Verdana" font-size="13" lengthAdjust="spacing" textLength="102.9844" x="278.7141" y="226.2388">debug_control()</text></g><g class="message" data-entity-1="part3" data-entity-2="part2" id="msg4"><polygon fill="#000000" points="271.3853,256.4375,261.3853,260.4375,271.3853,264.4375,267.3853,260.4375" style="stroke:#000000;stroke-width:1;"/><line style="stroke:#000000;stroke-width:1;stroke-dasharray:2,2;" x1="265.3853" x2="399.0273" y1="260.4375" y2="260.4375"/><text fill="#000000" font-family="Verdana" font-size="13" lengthAdjust="spacing" textLength="112.0806" x="274.166" y="255.3716">DebugControl ref</text></g><g class="message" data-entity-1="part2" data-entity-2="part4" id="msg5"><polygon fill="#000000" points="525.2324,300.7031,535.2324,304.7031,525.2324,308.7031,529.2324,304.7031" style="stroke:#000000;stroke-width:1;"/><line style="stroke:#000000;stroke-width:1;" x1="260.3853" x2="531.2324" y1="304.7031" y2="304.7031"/><text fill="#000000" font-family="Verdana" font-size="13" lengthAdjust="spacing" textLength="128.7368" x="334.4404" y="284.5044">step_over(threadId)</text><text fill="#000000" font-family="Verdana" font-size="13" lengthAdjust="spacing" textLength="104.1079" x="346.7549" y="299.6372">(thread-scoped)</text></g><g class="message" data-entity-1="part4" data-entity-2="part4" id="msg6"><line style="stroke:#000000;stroke-width:1;" x1="547.2324" x2="589.2324" y1="375.7344" y2="375.7344"/><line style="stroke:#000000;stroke-width:1;" x1="589.2324" x2="589.2324" y1="375.7344" y2="388.7344"/><line style="stroke:#000000;stroke-width:1;" x1="548.2324" x2="589.2324" y1="388.7344" y2="388.7344"/><polygon fill="#000000" points="558.2324,384.7344,548.2324,388.7344,558.2324,392.7344,554.2324,388.7344" style="stroke:#000000;stroke-width:1;"/><text fill="#000000" font-family="Verdana" font-size="13" lengthAdjust="spacing" textLength="153.3022" x="554.2324" y="370.6685">apply_action(StepOver)</text></g><path d="M729.3022,317.7031 L729.3022,432.7031 L955.3022,432.7031 L955.3022,327.7031 L945.3022,317.7031 L729.3022,317.7031" fill="#FFFFFF" style="stroke:#000000;stroke-width:1;"/><path d="M945.3022,317.7031 L945.3022,327.7031 L955.3022,327.7031 L945.3022,317.7031" fill="#FFFFFF" style="stroke:#000000;stroke-width:1;"/><text fill="#000000" font-family="Verdana" font-size="13" lengthAdjust="spacing" textLength="160.7544" x="735.3022" y="334.77">state.step = StepState {</text><text fill="#000000" font-family="Verdana" font-size="13" lengthAdjust="spacing" textLength="71.5444" x="751.8315" y="349.9028">kind: Over,</text><text fill="#000000" font-family="Verdana" font-size="13" lengthAdjust="spacing" textLength="188.4873" x="751.8315" y="365.0356">target_depth: current_depth,</text><text fill="#000000" font-family="Verdana" font-size="13" lengthAdjust="spacing" textLength="61.2612" x="751.8315" y="380.1685">thread_id</text><text fill="#000000" font-family="Verdana" font-size="13" lengthAdjust="spacing" textLength="8.271" x="735.3022" y="395.3013">}</text><text fill="#000000" font-family="Verdana" font-size="13" lengthAdjust="spacing" textLength="146.9419" x="735.3022" y="410.4341">state.mode = Running</text><text fill="#000000" font-family="Verdana" font-size="13" lengthAdjust="spacing" textLength="123.6206" x="735.3022" y="425.5669">clear pending_stop</text><g class="message" data-entity-1="part4" data-entity-2="part4" id="msg8"><line style="stroke:#000000;stroke-width:1;" x1="547.2324" x2="589.2324" y1="464.7656" y2="464.7656"/><line style="stroke:#000000;stroke-width:1;" x1="589.2324" x2="589.2324" y1="464.7656" y2="477.7656"/><line style="stroke:#000000;stroke-width:1;" x1="542.2324" x2="589.2324" y1="477.7656" y2="477.7656"/><polygon fill="#000000" points="552.2324,473.7656,542.2324,477.7656,552.2324,481.7656,548.2324,477.7656" style="stroke:#000000;stroke-width:1;"/><text fill="#000000" font-family="Verdana" font-size="13" lengthAdjust="spacing" textLength="101.2896" x="554.2324" y="459.6997">cvar.notify_all()</text></g><g class="message" data-entity-1="part2" data-entity-2="part1" id="msg9"><polygon fill="#000000" points="53.3774,508.4648,43.3774,512.4648,53.3774,516.4648,49.3774,512.4648" style="stroke:#000000;stroke-width:1;"/><line style="stroke:#000000;stroke-width:1;stroke-dasharray:2,2;" x1="47.3774" x2="249.3853" y1="512.4648" y2="512.4648"/><text fill="#000000" font-family="Verdana" font-size="13" lengthAdjust="spacing" textLength="78.9458" x="106.9084" y="507.3989">ok response</text></g><path d="M265,485.7656 L265,525.7656 L452,525.7656 L452,495.7656 L442,485.7656 L265,485.7656" fill="#FFFFFF" style="stroke:#000000;stroke-width:1;"/><path d="M442,485.7656 L442,495.7656 L452,495.7656 L442,485.7656" fill="#FFFFFF" style="stroke:#000000;stroke-width:1;"/><text fill="#000000" font-family="Verdana" font-size="13" lengthAdjust="spacing" textLength="166.8037" x="271" y="502.8325">StopGate token held until</text><text fill="#000000" font-family="Verdana" font-size="13" lengthAdjust="spacing" textLength="129.8032" x="271" y="517.9653">response is flushed.</text><text fill="#000000" font-family="Verdana" font-size="11" lengthAdjust="spacing" textLength="135.1958" x="660.2458" y="555.2417">Runner thread wakes up</text><g class="message" data-entity-1="part7" data-entity-2="part8" id="msg11"><polygon fill="#000000" points="1141.0225,588.9688,1151.0225,592.9688,1141.0225,596.9688,1145.0225,592.9688" style="stroke:#000000;stroke-width:1;"/><line style="stroke:#000000;stroke-width:1;" x1="1031.6094" x2="1147.0225" y1="592.9688" y2="592.9688"/><text fill="#000000" font-family="Verdana" font-size="13" lengthAdjust="spacing" textLength="102.4131" x="1041.1094" y="587.9028">execute_cycle()</text></g><path d="M649.7656,607.9688 L726.3896,607.9688 L726.3896,615.1016 L716.3896,625.1016 L649.7656,625.1016 L649.7656,607.9688" fill="#FFFFFF" style="stroke:#000000;stroke-width:1;"/><rect fill="none" height="300.1328" style="stroke:#000000;stroke-width:1;" width="1166.312" x="649.7656" y="607.9688"/><text fill="#000000" font-family="Verdana" font-size="13" font-weight="bold" lengthAdjust="spacing" textLength="31.624" x="664.7656" y="621.0356">loop</text><text fill="#000000" font-family="Verdana" font-size="11" font-weight="bold" lengthAdjust="spacing" textLength="128.6753" x="741.3896" y="620.1792">[for each statement]</text><g class="message" data-entity-1="part8" data-entity-2="part9" id="msg12"><polygon fill="#000000" points="1396.3101,642.2344,1406.3101,646.2344,1396.3101,650.2344,1400.3101,646.2344" style="stroke:#000000;stroke-width:1;"/><line style="stroke:#000000;stroke-width:1;" x1="1163.0225" x2="1402.3101" y1="646.2344" y2="646.2344"/><text fill="#000000" font-family="Verdana" font-size="13" lengthAdjust="spacing" textLength="226.2876" x="1172.5225" y="641.1685">on_statement(location, call_depth)</text></g><g class="message" data-entity-1="part9" data-entity-2="part9" id="msg13"><line style="stroke:#000000;stroke-width:1;" x1="1418.3101" x2="1460.3101" y1="679.4336" y2="679.4336"/><line style="stroke:#000000;stroke-width:1;" x1="1460.3101" x2="1460.3101" y1="679.4336" y2="692.4336"/><line style="stroke:#000000;stroke-width:1;" x1="1419.3101" x2="1460.3101" y1="692.4336" y2="692.4336"/><polygon fill="#000000" points="1429.3101,688.4336,1419.3101,692.4336,1429.3101,696.4336,1425.3101,692.4336" style="stroke:#000000;stroke-width:1;"/><text fill="#000000" font-family="Verdana" font-size="13" lengthAdjust="spacing" textLength="134.5513" x="1425.3101" y="674.3677">check step condition</text></g><path d="M1581.5513,659.2344 L1581.5513,699.2344 L1795.5513,699.2344 L1795.5513,669.2344 L1785.5513,659.2344 L1581.5513,659.2344" fill="#FFFFFF" style="stroke:#000000;stroke-width:1;"/><path d="M1785.5513,659.2344 L1785.5513,669.2344 L1795.5513,669.2344 L1785.5513,659.2344" fill="#FFFFFF" style="stroke:#000000;stroke-width:1;"/><text fill="#000000" font-family="Verdana" font-size="13" lengthAdjust="spacing" textLength="115.5083" x="1587.5513" y="676.3013">if step.started &amp;&amp;</text><text fill="#000000" font-family="Verdana" font-size="13" lengthAdjust="spacing" textLength="180.8193" x="1599.9482" y="691.4341">call_depth &lt;= target_depth</text><path d="M659.7656,711.5 L724.2085,711.5 L724.2085,718.6328 L714.2085,728.6328 L659.7656,728.6328 L659.7656,711.5" fill="#FFFFFF" style="stroke:#000000;stroke-width:1;"/><rect fill="none" height="189.6016" style="stroke:#000000;stroke-width:1;" width="923.8032" x="659.7656" y="711.5"/><text fill="#000000" font-family="Verdana" font-size="13" font-weight="bold" lengthAdjust="spacing" textLength="19.4429" x="674.7656" y="724.5669">alt</text><text fill="#000000" font-family="Verdana" font-size="11" font-weight="bold" lengthAdjust="spacing" textLength="92.4312" x="739.2085" y="723.7104">[should pause]</text><g class="message" data-entity-1="part9" data-entity-2="part9" id="msg15"><line style="stroke:#000000;stroke-width:1;" x1="1418.3101" x2="1460.3101" y1="749.7656" y2="749.7656"/><line style="stroke:#000000;stroke-width:1;" x1="1460.3101" x2="1460.3101" y1="749.7656" y2="762.7656"/><line style="stroke:#000000;stroke-width:1;" x1="1419.3101" x2="1460.3101" y1="762.7656" y2="762.7656"/><polygon fill="#000000" points="1429.3101,758.7656,1419.3101,762.7656,1429.3101,766.7656,1425.3101,762.7656" style="stroke:#000000;stroke-width:1;"/><text fill="#000000" font-family="Verdana" font-size="13" lengthAdjust="spacing" textLength="121.7417" x="1425.3101" y="744.6997">update_snapshot()</text></g><g class="message" data-entity-1="part9" data-entity-2="part5" id="msg16"><polygon fill="#000000" points="740.5347,803.0313,730.5347,807.0313,740.5347,811.0313,736.5347,807.0313" style="stroke:#000000;stroke-width:1;"/><line style="stroke:#000000;stroke-width:1;" x1="734.5347" x2="1407.3101" y1="807.0313" y2="807.0313"/><text fill="#000000" font-family="Verdana" font-size="13" lengthAdjust="spacing" textLength="208.7998" x="964.5225" y="786.8325">emit DebugStop(Step, threadId)</text><text fill="#000000" font-family="Verdana" font-size="13" lengthAdjust="spacing" textLength="100.458" x="1018.6934" y="801.9653">(generation ok)</text></g><g class="message" data-entity-1="part9" data-entity-2="part9" id="msg17"><line style="stroke:#000000;stroke-width:1;" x1="1418.3101" x2="1460.3101" y1="836.1641" y2="836.1641"/><line style="stroke:#000000;stroke-width:1;" x1="1460.3101" x2="1460.3101" y1="836.1641" y2="849.1641"/><line style="stroke:#000000;stroke-width:1;" x1="1419.3101" x2="1460.3101" y1="849.1641" y2="849.1641"/><polygon fill="#000000" points="1429.3101,845.1641,1419.3101,849.1641,1429.3101,853.1641,1425.3101,849.1641" style="stroke:#000000;stroke-width:1;"/><text fill="#000000" font-family="Verdana" font-size="13" lengthAdjust="spacing" textLength="136.2588" x="1425.3101" y="831.0981">cvar.wait() [BLOCKS]</text></g><line style="stroke:#000000;stroke-width:1;stroke-dasharray:2,2;" x1="659.7656" x2="1583.5688" y1="858.1641" y2="858.1641"/><text fill="#000000" font-family="Verdana" font-size="11" font-weight="bold" lengthAdjust="spacing" textLength="64.1147" x="664.7656" y="868.3745">[continue]</text><g class="message" data-entity-1="part9" data-entity-2="part8" id="msg18"><polygon fill="#000000" points="1174.0225,889.1016,1164.0225,893.1016,1174.0225,897.1016,1170.0225,893.1016" style="stroke:#000000;stroke-width:1;"/><line style="stroke:#000000;stroke-width:1;stroke-dasharray:2,2;" x1="1168.0225" x2="1407.3101" y1="893.1016" y2="893.1016"/><text fill="#000000" font-family="Verdana" font-size="13" lengthAdjust="spacing" textLength="40.2632" x="1265.5347" y="888.0356">return</text></g><text fill="#000000" font-family="Verdana" font-size="11" lengthAdjust="spacing" textLength="110.752" x="672.4678" y="939.312">Stop event received</text><g class="message" data-entity-1="part5" data-entity-2="part6" id="msg19"><polygon fill="#000000" points="861.5684,973.0391,871.5684,977.0391,861.5684,981.0391,865.5684,977.0391" style="stroke:#000000;stroke-width:1;"/><line style="stroke:#000000;stroke-width:1;" x1="729.5347" x2="867.5684" y1="977.0391" y2="977.0391"/><text fill="#000000" font-family="Verdana" font-size="13" lengthAdjust="spacing" textLength="112.0488" x="745.5271" y="971.9731">DebugStop(Step)</text></g><g class="message" data-entity-1="part6" data-entity-2="part6" id="msg20"><line style="stroke:#000000;stroke-width:1;" x1="873.5684" x2="915.5684" y1="1010.2383" y2="1010.2383"/><line style="stroke:#000000;stroke-width:1;" x1="915.5684" x2="915.5684" y1="1010.2383" y2="1023.2383"/><line style="stroke:#000000;stroke-width:1;" x1="874.5684" x2="915.5684" y1="1023.2383" y2="1023.2383"/><polygon fill="#000000" points="884.5684,1019.2383,874.5684,1023.2383,884.5684,1027.2383,880.5684,1023.2383" style="stroke:#000000;stroke-width:1;"/><text fill="#000000" font-family="Verdana" font-size="13" lengthAdjust="spacing" textLength="144.041" x="880.5684" y="1005.1724">stop_gate.wait_clear()</text></g><path d="M1036.041,990.0391 L1036.041,1030.0391 L1292.041,1030.0391 L1292.041,1000.0391 L1282.041,990.0391 L1036.041,990.0391" fill="#FFFFFF" style="stroke:#000000;stroke-width:1;"/><path d="M1282.041,990.0391 L1282.041,1000.0391 L1292.041,1000.0391 L1282.041,990.0391" fill="#FFFFFF" style="stroke:#000000;stroke-width:1;"/><text fill="#000000" font-family="Verdana" font-size="13" lengthAdjust="spacing" textLength="90.251" x="1042.041" y="1007.106">DAP ordering:</text><text fill="#000000" font-family="Verdana" font-size="13" lengthAdjust="spacing" textLength="235.479" x="1042.041" y="1022.2388">responses first, then stopped event.</text><g class="message" data-entity-1="part6" data-entity-2="part2" id="msg22"><polygon fill="#000000" points="271.3853,1052.4375,261.3853,1056.4375,271.3853,1060.4375,267.3853,1056.4375" style="stroke:#000000;stroke-width:1;"/><line style="stroke:#000000;stroke-width:1;" x1="265.3853" x2="872.5684" y1="1056.4375" y2="1056.4375"/><text fill="#000000" font-family="Verdana" font-size="13" lengthAdjust="spacing" textLength="124.5093" x="504.7222" y="1051.3716">ordered stop event</text></g><g class="message" data-entity-1="part2" data-entity-2="part1" id="msg23"><polygon fill="#000000" points="53.3774,1096.7031,43.3774,1100.7031,53.3774,1104.7031,49.3774,1100.7031" style="stroke:#000000;stroke-width:1;"/><line style="stroke:#000000;stroke-width:1;" x1="47.3774" x2="249.3853" y1="1100.7031" y2="1100.7031"/><text fill="#000000" font-family="Verdana" font-size="13" lengthAdjust="spacing" textLength="93.7358" x="99.5134" y="1080.5044">stopped event</text><text fill="#000000" font-family="Verdana" font-size="13" lengthAdjust="spacing" textLength="109.4082" x="91.6772" y="1095.6372">{reason: "step"}</text></g><g class="message" data-entity-1="part2" data-entity-2="part1" id="msg24"><polygon fill="#000000" points="53.3774,1125.8359,43.3774,1129.8359,53.3774,1133.8359,49.3774,1129.8359" style="stroke:#000000;stroke-width:1;"/><line style="stroke:#000000;stroke-width:1;" x1="47.3774" x2="249.3853" y1="1129.8359" y2="1129.8359"/><text fill="#000000" font-family="Verdana" font-size="13" lengthAdjust="spacing" textLength="113.458" x="89.6523" y="1124.77">invalidated event</text></g><g class="message" data-entity-1="part1" data-entity-2="part2" id="msg25"><polygon fill="#000000" points="238.3853,1154.9688,248.3853,1158.9688,238.3853,1162.9688,242.3853,1158.9688" style="stroke:#000000;stroke-width:1;"/><line style="stroke:#000000;stroke-width:1;" x1="42.3774" x2="244.3853" y1="1158.9688" y2="1158.9688"/><text fill="#000000" font-family="Verdana" font-size="13" lengthAdjust="spacing" textLength="70.9097" x="110.9265" y="1153.9028">stackTrace</text></g><g class="message" data-entity-1="part2" data-entity-2="part4" id="msg26"><polygon fill="#000000" points="530.2324,1184.1016,540.2324,1188.1016,530.2324,1192.1016,534.2324,1188.1016" style="stroke:#000000;stroke-width:1;"/><line style="stroke:#000000;stroke-width:1;" x1="260.3853" x2="536.2324" y1="1188.1016" y2="1188.1016"/><text fill="#000000" font-family="Verdana" font-size="13" lengthAdjust="spacing" textLength="84.7729" x="358.9224" y="1183.0356">get snapshot</text></g><g class="message" data-entity-1="part4" data-entity-2="part2" id="msg27"><polygon fill="#000000" points="271.3853,1213.2344,261.3853,1217.2344,271.3853,1221.2344,267.3853,1217.2344" style="stroke:#000000;stroke-width:1;"/><line style="stroke:#000000;stroke-width:1;stroke-dasharray:2,2;" x1="265.3853" x2="541.2324" y1="1217.2344" y2="1217.2344"/><text fill="#000000" font-family="Verdana" font-size="13" lengthAdjust="spacing" textLength="103.5239" x="349.5469" y="1212.1685">DebugSnapshot</text></g><g class="message" data-entity-1="part2" data-entity-2="part1" id="msg28"><polygon fill="#000000" points="53.3774,1242.3672,43.3774,1246.3672,53.3774,1250.3672,49.3774,1246.3672" style="stroke:#000000;stroke-width:1;"/><line style="stroke:#000000;stroke-width:1;stroke-dasharray:2,2;" x1="47.3774" x2="249.3853" y1="1246.3672" y2="1246.3672"/><text fill="#000000" font-family="Verdana" font-size="13" lengthAdjust="spacing" textLength="83.9668" x="104.3979" y="1241.3013">stack frames</text></g><g class="message" data-entity-1="part1" data-entity-2="part2" id="msg29"><polygon fill="#000000" points="238.3853,1271.5,248.3853,1275.5,238.3853,1279.5,242.3853,1275.5" style="stroke:#000000;stroke-width:1;"/><line style="stroke:#000000;stroke-width:1;" x1="42.3774" x2="244.3853" y1="1275.5" y2="1275.5"/><text fill="#000000" font-family="Verdana" font-size="13" lengthAdjust="spacing" textLength="59.2173" x="116.7727" y="1270.4341">variables</text></g><g class="message" data-entity-1="part2" data-entity-2="part4" id="msg30"><polygon fill="#000000" points="530.2324,1300.6328,540.2324,1304.6328,530.2324,1308.6328,534.2324,1304.6328" style="stroke:#000000;stroke-width:1;"/><line style="stroke:#000000;stroke-width:1;" x1="260.3853" x2="536.2324" y1="1304.6328" y2="1304.6328"/><text fill="#000000" font-family="Verdana" font-size="13" lengthAdjust="spacing" textLength="127.6577" x="337.48" y="1299.5669">read from snapshot</text></g><g class="message" data-entity-1="part2" data-entity-2="part1" id="msg31"><polygon fill="#000000" points="53.3774,1329.7656,43.3774,1333.7656,53.3774,1337.7656,49.3774,1333.7656" style="stroke:#000000;stroke-width:1;"/><line style="stroke:#000000;stroke-width:1;stroke-dasharray:2,2;" x1="47.3774" x2="249.3853" y1="1333.7656" y2="1333.7656"/><text fill="#000000" font-family="Verdana" font-size="13" lengthAdjust="spacing" textLength="75.6704" x="108.5461" y="1328.6997">variable list</text></g><?plantuml-src TLRRZXCv47ttLnHvG8aqam-8c9M6GR2hNGGYY1UoQXbtfTkAOpUsEmD2_FjMsNrDUlCmuxXEbUjoJisyY3MU4HeZjHNXf6qZlJn3mEyjMeNlCGHPuQFHbGM5Dg8N8kfe4FOH6_XmGG-V61mYl3NkMGYfelEm-hA79rVY2cI0Ir1q51GwQgKRQIEitk2tjdeiPKCX3rOvZriV4bhcomNudhBHpXvio8VUe_kwuF7aRFJE7AniT8zM-MwEtaVNmEVQeopdsGGovFjRXoVdVAcjf88FTjrvRGQtP9vxVMgjfOujFUIJwGOUzHa9-5EPAP9l5yhzqxdJmTRqiyVoMOWy0BZ_esykxC3YZxYEAP6_oWsitpn-19ydkU4XwekCE0n3z8wp6BMqfS4YXTfC8Tr4259oNaNNSmBrbljPeEcmA8lZxBtEcM21E5SuujoOE3K-d--fnWRBIUxze7l_MIZPDEPdmLXdrynbfl96M4UENbTr542V42dGbf-5XyJuFL_0hsJa3occt2KPt0rtKVeAOr5Y4-iTgDPx4ax-EW6bf0jTfflVazVEFAe7OAfeMoK33LzwQD0Iswg2kINe39piSdNg8lsMpFf8DHhkUuatVHbxJBuTHNRWJZI0q3WIsNKtcFFlE49q9xHGeoc1kMYIjVS27U1esb1ZkHtJ5Dlj5ZhwvzhXMPumGDi0cOJ8_ESoEdvJBlW3LHknIFHVJqRRIq0OHxezqiAXykhSm3DrEoVKnQ6GB0EkpHO3P6sSaZpzEr3KeZoVJN8SdidguQiKO0oaQbIdH4VkPgavJi9TTOm_-fY0n2BIAvRmykLWuj4ERyEhXnbr4chiNqhCH0YrQwdlZMnfG7sKg_JQfgJqYq1hZ-2ipMlWkDQupMSTimHvmaaDTp1LM8KqcjGieiVc_rvDf7kMcjw3hw__-V3qz_xVN8G9cNNQjjSvp-RjCRRUzeMdtnFUfcdm_PJC0nEONscBuuMcIw4KwWkrEv5hKcvNV5hE_UOPojw8qNO5v7DHiK2vn299SdspC7YB4Xuz2NKtamM9GliGkR6a7Ov6soedEv79xFbnFwQG10z3WTC5EMXt5lLWVr71mTaTh9Y0gz-BFjfUfD7Cbyvl-Sy5iLUTFdkfS7ar4ssXvzkuaswN_Bx7B2wVz0eSwLyG3Cjv4CUq_6R8l9X66l7Hk_EOpE93VHWmEaJn7m00?></g></svg>