<?plantuml 1.2026.2?><svg xmlns="http://www.w3.org/2000/svg" xmlns:xlink="http://www.w3.org/1999/xlink" contentStyleType="text/css" data-diagram-type="ACTIVITY" height="2395px" preserveAspectRatio="none" style="width:2606px;height:2395px;background:#FEFEFE;" version="1.1" viewBox="0 0 2606 2395" width="2606px" zoomAndPan="magnify"><title>truST Syntax: Lexer &#8594; Parser &#8594; CST Pipeline</title><defs/><g><rect fill="#FEFEFE" height="2395" style="stroke:none;stroke-width:1;" width="2606" x="0" y="0"/><g class="title" data-source-line="6"><text fill="#000000" font-family="Verdana" font-size="22" font-weight="bold" lengthAdjust="spacing" textLength="549.1406" x="1027.3481" y="35.4209">truST Syntax: Lexer &#8594; Parser &#8594; CST Pipeline</text></g><rect fill="#FFFFFF" height="20.9531" style="stroke:#FFFFFF;stroke-width:1;" width="2583.8369" x="10" y="54.3545"/><ellipse cx="58.9141" cy="90.3076" fill="#FFFFFF" rx="10" ry="10" style="stroke:#000000;stroke-width:1;"/><path d="M121.8281,116.5771 L121.8281,132.71 L101.8281,136.71 L121.8281,140.71 L121.8281,156.8428 A0,0 0 0 0 121.8281,156.8428 L254.166,156.8428 A0,0 0 0 0 254.166,156.8428 L254.166,126.5771 L244.166,116.5771 L121.8281,116.5771 A0,0 0 0 0 121.8281,116.5771" fill="#FFFFFF" style="stroke:#000000;stroke-width:1;"/><path d="M244.166,116.5771 L244.166,126.5771 L254.166,126.5771 L244.166,116.5771" fill="#FFFFFF" style="stroke:#000000;stroke-width:1;"/><text fill="#000000" font-family="Verdana" font-size="13" lengthAdjust="spacing" textLength="111.3379" x="127.8281" y="133.644">Raw IEC 61131-3</text><text fill="#000000" font-family="Verdana" font-size="13" lengthAdjust="spacing" textLength="101.8735" x="127.8281" y="148.7769">Structured Text</text><rect fill="#FFFFFF" height="32.8047" rx="12.5" ry="12.5" style="stroke:#000000;stroke-width:1;" width="85.8281" x="16" y="120.3076"/><text fill="#000000" font-family="Verdana" font-size="11" lengthAdjust="spacing" textLength="65.8281" x="26" y="140.5181">Source Text</text><line style="stroke:#000000;stroke-width:1;" x1="10" x2="10" y1="54.3545" y2="1976.7256"/><path d="M377.1709,166.8428 L377.1709,190.542 L357.1709,194.542 L377.1709,198.542 L377.1709,222.2412 A0,0 0 0 0 377.1709,222.2412 L568.2881,222.2412 A0,0 0 0 0 568.2881,222.2412 L568.2881,176.8428 L558.2881,166.8428 L377.1709,166.8428 A0,0 0 0 0 377.1709,166.8428" fill="#FFFFFF" style="stroke:#000000;stroke-width:1;"/><path d="M558.2881,166.8428 L558.2881,176.8428 L568.2881,176.8428 L558.2881,166.8428" fill="#FFFFFF" style="stroke:#000000;stroke-width:1;"/><text fill="#000000" font-family="Verdana" font-size="13" font-weight="bold" lengthAdjust="spacing" textLength="131.2441" x="383.1709" y="183.9097">lexer/mod.rs:lex()</text><text fill="#000000" font-family="Verdana" font-size="13" lengthAdjust="spacing" textLength="159.9736" x="383.1709" y="199.0425">Uses logos derive macro</text><text fill="#000000" font-family="Verdana" font-size="13" lengthAdjust="spacing" textLength="170.1172" x="383.1709" y="214.1753">for zero-copy tokenization</text><rect fill="#FFFFFF" height="32.8047" rx="12.5" ry="12.5" style="stroke:#000000;stroke-width:1;" width="92.0049" x="265.166" y="178.1396"/><text fill="#000000" font-family="Verdana" font-size="11" lengthAdjust="spacing" textLength="72.0049" x="275.166" y="198.3501">Lexer (logos)</text><path d="M362.2393,232.2412 L362.2393,369.4365 L342.2393,373.4365 L362.2393,377.4365 L362.2393,514.6318 A0,0 0 0 0 362.2393,514.6318 L781.7642,514.6318 A0,0 0 0 0 781.7642,514.6318 L781.7642,242.2412 L771.7642,232.2412 L362.2393,232.2412 A0,0 0 0 0 362.2393,232.2412" fill="#FFFFFF" style="stroke:#000000;stroke-width:1;"/><path d="M771.7642,232.2412 L771.7642,242.2412 L781.7642,242.2412 L771.7642,232.2412" fill="#FFFFFF" style="stroke:#000000;stroke-width:1;"/><text fill="#000000" font-family="Verdana" font-size="13" font-weight="bold" lengthAdjust="spacing" textLength="248.2695" x="368.2393" y="249.3081">Token struct (lexer/mod.rs:14-19)</text><text fill="#000000" font-family="Verdana" font-size="13" lengthAdjust="spacing" textLength="116.2319" x="368.2393" y="264.4409">&#8226; kind: TokenKind</text><text fill="#000000" font-family="Verdana" font-size="13" lengthAdjust="spacing" textLength="128.3306" x="368.2393" y="279.5737">&#8226; range: TextRange</text><text fill="#000000" font-family="Verdana" font-size="13" lengthAdjust="spacing" textLength="4.1323" x="368.2393" y="294.7065">&#160;</text><text fill="#000000" font-family="Verdana" font-size="13" font-weight="bold" lengthAdjust="spacing" textLength="296.5117" x="368.2393" y="309.8394">TokenKind enum (lexer/tokens.rs:53-56)</text><text fill="#000000" font-family="Verdana" font-size="13" lengthAdjust="spacing" textLength="108.3228" x="368.2393" y="324.9722">&#171;TOKEN_STATS&#187;</text><text fill="#000000" font-family="Verdana" font-size="13" lengthAdjust="spacing" textLength="158.4375" x="368.2393" y="340.105">TokenKind variants: 202</text><text fill="#000000" font-family="Verdana" font-size="13" lengthAdjust="spacing" textLength="59.4521" x="368.2393" y="355.2378">Sections:</text><text fill="#000000" font-family="Verdana" font-size="13" lengthAdjust="spacing" textLength="64.7524" x="368.2393" y="370.3706">&#8226; Trivia: 4</text><text fill="#000000" font-family="Verdana" font-size="13" lengthAdjust="spacing" textLength="114.5244" x="368.2393" y="385.5034">&#8226; Punctuation: 12</text><text fill="#000000" font-family="Verdana" font-size="13" lengthAdjust="spacing" textLength="101.8164" x="368.2393" y="400.6362">&#8226; Operators: 15</text><text fill="#000000" font-family="Verdana" font-size="13" lengthAdjust="spacing" textLength="108.2974" x="368.2393" y="415.769">&#8226; Keywords: 156</text><text fill="#000000" font-family="Verdana" font-size="13" lengthAdjust="spacing" textLength="84.5" x="368.2393" y="430.9019">&#8226; Literals: 12</text><text fill="#000000" font-family="Verdana" font-size="13" lengthAdjust="spacing" textLength="93.9199" x="368.2393" y="446.0347">&#8226; Identifiers: 1</text><text fill="#000000" font-family="Verdana" font-size="13" lengthAdjust="spacing" textLength="75.4229" x="368.2393" y="461.1675">&#8226; Special: 2</text><text fill="#000000" font-family="Verdana" font-size="13" lengthAdjust="spacing" textLength="4.1323" x="368.2393" y="476.3003">&#160;</text><text fill="#000000" font-family="Verdana" font-size="13" lengthAdjust="spacing" textLength="398.5249" x="368.2393" y="491.4331">Keywords (156) in docs/diagrams/generated/syntax-stats.md</text><text fill="#000000" font-family="Verdana" font-size="13" lengthAdjust="spacing" textLength="142.7715" x="368.2393" y="506.5659">&#171;TOKEN_STATS_END&#187;</text><rect fill="#FFFFFF" height="32.8047" rx="12.5" ry="12.5" style="stroke:#000000;stroke-width:1;" width="62.1416" x="280.0977" y="357.0342"/><text fill="#000000" font-family="Verdana" font-size="11" lengthAdjust="spacing" textLength="42.1416" x="290.0977" y="377.2446">Token[]</text><line style="stroke:#000000;stroke-width:1;" x1="259.166" x2="259.166" y1="54.3545" y2="1976.7256"/><path d="M948.9382,524.6318 L948.9382,563.4639 L928.9382,567.4639 L948.9382,571.4639 L948.9382,610.2959 A0,0 0 0 0 948.9382,610.2959 L1242.7732,610.2959 A0,0 0 0 0 1242.7732,610.2959 L1242.7732,534.6318 L1232.7732,524.6318 L948.9382,524.6318 A0,0 0 0 0 948.9382,524.6318" fill="#FFFFFF" style="stroke:#000000;stroke-width:1;"/><path d="M1232.7732,524.6318 L1232.7732,534.6318 L1242.7732,534.6318 L1232.7732,524.6318" fill="#FFFFFF" style="stroke:#000000;stroke-width:1;"/><text fill="#000000" font-family="Verdana" font-size="13" font-weight="bold" lengthAdjust="spacing" textLength="272.835" x="954.9382" y="541.6987">Source struct (parser/source.rs:8-14)</text><text fill="#000000" font-family="Verdana" font-size="13" lengthAdjust="spacing" textLength="168.2065" x="954.9382" y="556.8315">Wraps token stream with:</text><text fill="#000000" font-family="Verdana" font-size="13" lengthAdjust="spacing" textLength="164.4297" x="954.9382" y="571.9644">&#8226; peek_kind() - skip trivia</text><text fill="#000000" font-family="Verdana" font-size="13" lengthAdjust="spacing" textLength="112.6709" x="954.9382" y="587.0972">&#8226; current_token()</text><text fill="#000000" font-family="Verdana" font-size="13" lengthAdjust="spacing" textLength="110.8301" x="954.9382" y="602.23">&#8226; peek_kind_n(n)</text><rect fill="#FFFFFF" height="32.8047" rx="12.5" ry="12.5" style="stroke:#000000;stroke-width:1;" width="107.0332" x="821.905" y="551.0615"/><text fill="#000000" font-family="Verdana" font-size="11" lengthAdjust="spacing" textLength="87.0332" x="831.905" y="571.272">Source wrapper</text><path d="M912.8804,630.2959 L912.8804,791.624 L1211.5522,791.624 L1211.5522,640.2959 L1201.5522,630.2959 L912.8804,630.2959" fill="#FFFFFF" style="stroke:#000000;stroke-width:1;"/><path d="M1201.5522,630.2959 L1201.5522,640.2959 L1211.5522,640.2959 L1201.5522,630.2959" fill="#FFFFFF" style="stroke:#000000;stroke-width:1;"/><text fill="#000000" font-family="Verdana" font-size="13" font-weight="bold" lengthAdjust="spacing" textLength="277.6719" x="918.8804" y="647.3628">Parser struct (parser/parser.rs:30-34)</text><text fill="#000000" font-family="Verdana" font-size="13" lengthAdjust="spacing" textLength="170.2632" x="918.8804" y="662.4956">&#8226; source: Source&lt;'t, 'src&gt;</text><text fill="#000000" font-family="Verdana" font-size="13" lengthAdjust="spacing" textLength="147.1768" x="918.8804" y="677.6284">&#8226; events: Vec&lt;Event&gt;</text><text fill="#000000" font-family="Verdana" font-size="13" lengthAdjust="spacing" textLength="173.0181" x="918.8804" y="692.7612">&#8226; errors: Vec&lt;ParseError&gt;</text><text fill="#000000" font-family="Verdana" font-size="13" lengthAdjust="spacing" textLength="4.1323" x="918.8804" y="707.894">&#160;</text><text fill="#000000" font-family="Verdana" font-size="13" font-weight="bold" lengthAdjust="spacing" textLength="100.896" x="918.8804" y="723.0269">Key methods:</text><text fill="#000000" font-family="Verdana" font-size="13" lengthAdjust="spacing" textLength="116.7778" x="918.8804" y="738.1597">&#8226; start() &#8594; Marker</text><text fill="#000000" font-family="Verdana" font-size="13" lengthAdjust="spacing" textLength="172.269" x="918.8804" y="753.2925">&#8226; bump() - consume token</text><text fill="#000000" font-family="Verdana" font-size="13" lengthAdjust="spacing" textLength="165.1978" x="918.8804" y="768.4253">&#8226; at(kind) - check current</text><text fill="#000000" font-family="Verdana" font-size="13" lengthAdjust="spacing" textLength="170.6821" x="918.8804" y="783.5581">&#8226; error(msg) - report error</text><path d="M935.5828,811.624 L935.5828,957.8193 L1188.8499,957.8193 L1188.8499,821.624 L1178.8499,811.624 L935.5828,811.624" fill="#FFFFFF" style="stroke:#000000;stroke-width:1;"/><path d="M1178.8499,811.624 L1178.8499,821.624 L1188.8499,821.624 L1178.8499,811.624" fill="#FFFFFF" style="stroke:#000000;stroke-width:1;"/><text fill="#000000" font-family="Verdana" font-size="13" font-weight="bold" lengthAdjust="spacing" textLength="114.4102" x="941.5828" y="828.6909">Error Recovery:</text><text fill="#000000" font-family="Verdana" font-size="13" lengthAdjust="spacing" textLength="232.2671" x="941.5828" y="843.8237">&#8226; recover_statement() skips to next</text><text fill="#000000" font-family="Verdana" font-size="13" lengthAdjust="spacing" textLength="151.6074" x="949.8474" y="858.9565">statement or block end</text><text fill="#000000" font-family="Verdana" font-size="13" lengthAdjust="spacing" textLength="186.1577" x="941.5828" y="874.0894">&#8226; sync points include END_*,</text><text fill="#000000" font-family="Verdana" font-size="13" lengthAdjust="spacing" textLength="149.2524" x="949.8474" y="889.2222">POU starts, VAR blocks</text><text fill="#000000" font-family="Verdana" font-size="13" lengthAdjust="spacing" textLength="206.8765" x="941.5828" y="904.355">&#8226; expect_semicolon() inserts on</text><text fill="#000000" font-family="Verdana" font-size="13" lengthAdjust="spacing" textLength="165.1914" x="949.8474" y="919.4878">unambiguous boundaries</text><text fill="#000000" font-family="Verdana" font-size="13" lengthAdjust="spacing" textLength="202.7251" x="941.5828" y="934.6206">&#8226; errors stored separately; CST</text><text fill="#000000" font-family="Verdana" font-size="13" lengthAdjust="spacing" textLength="164.6201" x="949.8474" y="949.7534">preserves original tokens</text><rect fill="#FFFFFF" height="32.8047" rx="12.5" ry="12.5" style="stroke:#000000;stroke-width:1;" width="54.9175" x="847.9629" y="777.6553"/><text fill="#000000" font-family="Verdana" font-size="11" lengthAdjust="spacing" textLength="34.9175" x="857.9629" y="797.8657">Parser</text><path d="M978.0791,977.8193 L978.0791,1016.6514 L958.0791,1020.6514 L978.0791,1024.6514 L978.0791,1063.4834 A0,0 0 0 0 978.0791,1063.4834 L1281.2832,1063.4834 A0,0 0 0 0 1281.2832,1063.4834 L1281.2832,987.8193 L1271.2832,977.8193 L978.0791,977.8193 A0,0 0 0 0 978.0791,977.8193" fill="#FFFFFF" style="stroke:#000000;stroke-width:1;"/><path d="M1271.2832,977.8193 L1271.2832,987.8193 L1281.2832,987.8193 L1271.2832,977.8193" fill="#FFFFFF" style="stroke:#000000;stroke-width:1;"/><text fill="#000000" font-family="Verdana" font-size="13" font-weight="bold" lengthAdjust="spacing" textLength="274.8281" x="984.0791" y="994.8862">Grammar modules (parser/grammar/)</text><text fill="#000000" font-family="Verdana" font-size="13" lengthAdjust="spacing" textLength="282.2041" x="984.0791" y="1010.019">&#8226; pou.rs - PROGRAM, FUNCTION, FB, CLASS</text><text fill="#000000" font-family="Verdana" font-size="13" lengthAdjust="spacing" textLength="237.2627" x="984.0791" y="1025.1519">&#8226; declarations.rs - VAR blocks, types</text><text fill="#000000" font-family="Verdana" font-size="13" lengthAdjust="spacing" textLength="236.3677" x="984.0791" y="1040.2847">&#8226; statements.rs - IF, FOR, CASE, etc.</text><text fill="#000000" font-family="Verdana" font-size="13" lengthAdjust="spacing" textLength="195.5713" x="984.0791" y="1055.4175">&#8226; expressions.rs - Pratt parser</text><rect fill="#FFFFFF" height="32.8047" rx="12.5" ry="12.5" style="stroke:#000000;stroke-width:1;" width="165.3149" x="792.7642" y="1004.249"/><text fill="#000000" font-family="Verdana" font-size="11" lengthAdjust="spacing" textLength="145.3149" x="802.7642" y="1024.4595">Recursive Descent + Pratt</text><path d="M946.5078,1275.0771 L946.5078,1329.042 L926.5078,1333.042 L946.5078,1337.042 L946.5078,1391.0068 A0,0 0 0 0 946.5078,1391.0068 L1280.3647,1391.0068 A0,0 0 0 0 1280.3647,1391.0068 L1280.3647,1285.0771 L1270.3647,1275.0771 L946.5078,1275.0771 A0,0 0 0 0 946.5078,1275.0771" fill="#FFFFFF" style="stroke:#000000;stroke-width:1;"/><path d="M1270.3647,1275.0771 L1270.3647,1285.0771 L1280.3647,1285.0771 L1270.3647,1275.0771" fill="#FFFFFF" style="stroke:#000000;stroke-width:1;"/><text fill="#000000" font-family="Verdana" font-size="13" font-weight="bold" lengthAdjust="spacing" textLength="233.9238" x="952.5078" y="1292.144">Marker (parser/parser.rs:37-39)</text><text fill="#000000" font-family="Verdana" font-size="13" lengthAdjust="spacing" textLength="167.9653" x="952.5078" y="1307.2769">&#8226; pos: usize (event index)</text><text fill="#000000" font-family="Verdana" font-size="13" lengthAdjust="spacing" textLength="181.1621" x="952.5078" y="1322.4097">&#8226; bomb: DropBomb (safety)</text><text fill="#000000" font-family="Verdana" font-size="13" lengthAdjust="spacing" textLength="4.1323" x="952.5078" y="1337.5425">&#160;</text><text fill="#000000" font-family="Verdana" font-size="13" font-weight="bold" lengthAdjust="spacing" textLength="312.8569" x="952.5078" y="1352.6753">CompletedMarker (parser/parser.rs:69-71)</text><text fill="#000000" font-family="Verdana" font-size="13" lengthAdjust="spacing" textLength="76.7368" x="952.5078" y="1367.8081">&#8226; pos: usize</text><text fill="#000000" font-family="Verdana" font-size="13" lengthAdjust="spacing" textLength="187.1416" x="952.5078" y="1382.9409">&#8226; precede() for left recursion</text><rect fill="#FFFFFF" height="32.8047" rx="12.5" ry="12.5" style="stroke:#000000;stroke-width:1;" width="102.1724" x="824.3354" y="1316.6396"/><text fill="#000000" font-family="Verdana" font-size="11" lengthAdjust="spacing" textLength="82.1724" x="834.3354" y="1336.8501">Marker Pattern</text><path d="M925.4692,1401.0068 L925.4692,1439.8389 L905.4692,1443.8389 L925.4692,1447.8389 L925.4692,1486.6709 A0,0 0 0 0 925.4692,1486.6709 L1200.5151,1486.6709 A0,0 0 0 0 1200.5151,1486.6709 L1200.5151,1411.0068 L1190.5151,1401.0068 L925.4692,1401.0068 A0,0 0 0 0 925.4692,1401.0068" fill="#FFFFFF" style="stroke:#000000;stroke-width:1;"/><path d="M1190.5151,1401.0068 L1190.5151,1411.0068 L1200.5151,1411.0068 L1190.5151,1401.0068" fill="#FFFFFF" style="stroke:#000000;stroke-width:1;"/><text fill="#000000" font-family="Verdana" font-size="13" font-weight="bold" lengthAdjust="spacing" textLength="254.0459" x="931.4692" y="1418.0737">Event enum (parser/event.rs:9-28)</text><text fill="#000000" font-family="Verdana" font-size="13" lengthAdjust="spacing" textLength="207.8604" x="931.4692" y="1433.2065">&#8226; Start { kind, forward_parent }</text><text fill="#000000" font-family="Verdana" font-size="13" lengthAdjust="spacing" textLength="174.624" x="931.4692" y="1448.3394">&#8226; Token { kind, n_tokens }</text><text fill="#000000" font-family="Verdana" font-size="13" lengthAdjust="spacing" textLength="49.7529" x="931.4692" y="1463.4722">&#8226; Finish</text><text fill="#000000" font-family="Verdana" font-size="13" lengthAdjust="spacing" textLength="87.7627" x="931.4692" y="1478.605">&#8226; Placeholder</text><rect fill="#FFFFFF" height="32.8047" rx="12.5" ry="12.5" style="stroke:#000000;stroke-width:1;" width="60.0952" x="845.374" y="1427.4365"/><text fill="#000000" font-family="Verdana" font-size="11" lengthAdjust="spacing" textLength="40.0952" x="855.374" y="1447.647">Event[]</text><line style="stroke:#000000;stroke-width:1;" x1="786.7642" x2="786.7642" y1="54.3545" y2="1976.7256"/><path d="M1436.3696,1073.4834 L1436.3696,1165.2803 L1416.3696,1169.2803 L1436.3696,1173.2803 L1436.3696,1265.0771 A0,0 0 0 0 1436.3696,1265.0771 L1739.3262,1265.0771 A0,0 0 0 0 1739.3262,1265.0771 L1739.3262,1083.4834 L1729.3262,1073.4834 L1436.3696,1073.4834 A0,0 0 0 0 1436.3696,1073.4834" fill="#FFFFFF" style="stroke:#000000;stroke-width:1;"/><path d="M1729.3262,1073.4834 L1729.3262,1083.4834 L1739.3262,1083.4834 L1729.3262,1073.4834" fill="#FFFFFF" style="stroke:#000000;stroke-width:1;"/><text fill="#000000" font-family="Verdana" font-size="13" font-weight="bold" lengthAdjust="spacing" textLength="281.9565" x="1442.3696" y="1090.5503">Binding Powers (tokens.rs:1308-1333)</text><text fill="#000000" font-family="Verdana" font-size="13" lengthAdjust="spacing" textLength="151.2329" x="1442.3696" y="1105.6831">&#171;PRECEDENCE_TABLE&#187;</text><text fill="#000000" font-family="Verdana" font-size="13" lengthAdjust="spacing" textLength="164.3154" x="1442.3696" y="1120.8159">Precedence (low &#8594; high):</text><text fill="#000000" font-family="Verdana" font-size="13" lengthAdjust="spacing" textLength="57.2749" x="1442.3696" y="1135.9487">1-2:   OR</text><text fill="#000000" font-family="Verdana" font-size="13" lengthAdjust="spacing" textLength="66.1807" x="1442.3696" y="1151.0815">3-4:   XOR</text><text fill="#000000" font-family="Verdana" font-size="13" lengthAdjust="spacing" textLength="85.0396" x="1442.3696" y="1166.2144">5-6:   AND, &amp;</text><text fill="#000000" font-family="Verdana" font-size="13" lengthAdjust="spacing" textLength="177.3662" x="1442.3696" y="1181.3472">7-8:   =, &lt;&gt;, &lt;, &lt;=, &gt;, &gt;=</text><text fill="#000000" font-family="Verdana" font-size="13" lengthAdjust="spacing" textLength="70.1289" x="1442.3696" y="1196.48">9-10:   +, -</text><text fill="#000000" font-family="Verdana" font-size="13" lengthAdjust="spacing" textLength="113.4199" x="1442.3696" y="1211.6128">11-12:   *, /, MOD</text><text fill="#000000" font-family="Verdana" font-size="13" lengthAdjust="spacing" textLength="153.1182" x="1442.3696" y="1226.7456">14-13:   ** (right assoc)</text><text fill="#000000" font-family="Verdana" font-size="13" lengthAdjust="spacing" textLength="139.0708" x="1442.3696" y="1241.8784">15:    prefix NOT, +, -</text><text fill="#000000" font-family="Verdana" font-size="13" lengthAdjust="spacing" textLength="185.6816" x="1442.3696" y="1257.0112">&#171;PRECEDENCE_TABLE_END&#187;</text><rect fill="#FFFFFF" height="32.8047" rx="12.5" ry="12.5" style="stroke:#000000;stroke-width:1;" width="124.0864" x="1292.2832" y="1152.8779"/><text fill="#000000" font-family="Verdana" font-size="11" lengthAdjust="spacing" textLength="104.0864" x="1302.2832" y="1173.0884">Expression Parsing</text><line style="stroke:#000000;stroke-width:1;" x1="1286.2832" x2="1286.2832" y1="54.3545" y2="1976.7256"/><path d="M1843.4678,1496.6709 L1843.4678,1550.6357 L1823.4678,1554.6357 L1843.4678,1558.6357 L1843.4678,1612.6006 A0,0 0 0 0 1843.4678,1612.6006 L2108.8208,1612.6006 A0,0 0 0 0 2108.8208,1612.6006 L2108.8208,1506.6709 L2098.8208,1496.6709 L1843.4678,1496.6709 A0,0 0 0 0 1843.4678,1496.6709" fill="#FFFFFF" style="stroke:#000000;stroke-width:1;"/><path d="M2098.8208,1496.6709 L2098.8208,1506.6709 L2108.8208,1506.6709 L2098.8208,1496.6709" fill="#FFFFFF" style="stroke:#000000;stroke-width:1;"/><text fill="#000000" font-family="Verdana" font-size="13" font-weight="bold" lengthAdjust="spacing" textLength="244.353" x="1849.4678" y="1513.7378">Sink struct (parser/sink.rs:10-17)</text><text fill="#000000" font-family="Verdana" font-size="13" lengthAdjust="spacing" textLength="136.646" x="1849.4678" y="1528.8706">&#8226; tokens: &amp;'t [Token]</text><text fill="#000000" font-family="Verdana" font-size="13" lengthAdjust="spacing" textLength="118.0918" x="1849.4678" y="1544.0034">&#8226; source: &amp;'src str</text><text fill="#000000" font-family="Verdana" font-size="13" lengthAdjust="spacing" textLength="147.1768" x="1849.4678" y="1559.1362">&#8226; events: Vec&lt;Event&gt;</text><text fill="#000000" font-family="Verdana" font-size="13" lengthAdjust="spacing" textLength="94.561" x="1849.4678" y="1574.269">&#8226; cursor: usize</text><text fill="#000000" font-family="Verdana" font-size="13" lengthAdjust="spacing" textLength="185.1802" x="1849.4678" y="1589.4019">&#8226; builder: GreenNodeBuilder</text><text fill="#000000" font-family="Verdana" font-size="13" lengthAdjust="spacing" textLength="173.0181" x="1849.4678" y="1604.5347">&#8226; errors: Vec&lt;ParseError&gt;</text><rect fill="#FFFFFF" height="32.8047" rx="12.5" ry="12.5" style="stroke:#000000;stroke-width:1;" width="43.3804" x="1780.0874" y="1538.2334"/><text fill="#000000" font-family="Verdana" font-size="11" lengthAdjust="spacing" textLength="23.3804" x="1790.0874" y="1558.4438">Sink</text><path d="M1873.229,1622.6006 L1873.229,1653.8662 L1853.229,1657.8662 L1873.229,1661.8662 L1873.229,1693.1318 A0,0 0 0 0 1873.229,1693.1318 L2146.5293,1693.1318 A0,0 0 0 0 2146.5293,1693.1318 L2146.5293,1632.6006 L2136.5293,1622.6006 L1873.229,1622.6006 A0,0 0 0 0 1873.229,1622.6006" fill="#FFFFFF" style="stroke:#000000;stroke-width:1;"/><path d="M2136.5293,1622.6006 L2136.5293,1632.6006 L2146.5293,1632.6006 L2136.5293,1622.6006" fill="#FFFFFF" style="stroke:#000000;stroke-width:1;"/><text fill="#000000" font-family="Verdana" font-size="13" font-weight="bold" lengthAdjust="spacing" textLength="252.3003" x="1879.229" y="1639.6675">sink.finish() (parser/sink.rs:33-79)</text><text fill="#000000" font-family="Verdana" font-size="13" lengthAdjust="spacing" textLength="212.0879" x="1879.229" y="1654.8003">1. Handle forward_parent chains</text><text fill="#000000" font-family="Verdana" font-size="13" lengthAdjust="spacing" textLength="187.4209" x="1879.229" y="1669.9331">2. eat_trivia() for whitespace</text><text fill="#000000" font-family="Verdana" font-size="13" lengthAdjust="spacing" textLength="134.4814" x="1879.229" y="1685.0659">3. Build green nodes</text><rect fill="#FFFFFF" height="32.8047" rx="12.5" ry="12.5" style="stroke:#000000;stroke-width:1;" width="102.9028" x="1750.3262" y="1641.4639"/><text fill="#000000" font-family="Verdana" font-size="11" lengthAdjust="spacing" textLength="82.9028" x="1760.3262" y="1661.6743">Process Events</text><line style="stroke:#000000;stroke-width:1;" x1="1744.3262" x2="1744.3262" y1="54.3545" y2="1976.7256"/><path d="M2308.4773,1703.1318 L2308.4773,1726.8311 L2288.4773,1730.8311 L2308.4773,1734.8311 L2308.4773,1758.5303 A0,0 0 0 0 2308.4773,1758.5303 L2482.97,1758.5303 A0,0 0 0 0 2482.97,1758.5303 L2482.97,1713.1318 L2472.97,1703.1318 L2308.4773,1703.1318 A0,0 0 0 0 2308.4773,1703.1318" fill="#FFFFFF" style="stroke:#000000;stroke-width:1;"/><path d="M2472.97,1703.1318 L2472.97,1713.1318 L2482.97,1713.1318 L2472.97,1703.1318" fill="#FFFFFF" style="stroke:#000000;stroke-width:1;"/><text fill="#000000" font-family="Verdana" font-size="13" font-weight="bold" lengthAdjust="spacing" textLength="137.6807" x="2314.4773" y="1720.1987">rowan::GreenNode</text><text fill="#000000" font-family="Verdana" font-size="13" lengthAdjust="spacing" textLength="153.4927" x="2314.4773" y="1735.3315">Immutable, thread-safe</text><text fill="#000000" font-family="Verdana" font-size="13" lengthAdjust="spacing" textLength="137.4585" x="2314.4773" y="1750.4644">green tree (interned)</text><rect fill="#FFFFFF" height="32.8047" rx="12.5" ry="12.5" style="stroke:#000000;stroke-width:1;" width="82.2617" x="2206.2156" y="1714.4287"/><text fill="#000000" font-family="Verdana" font-size="11" lengthAdjust="spacing" textLength="62.2617" x="2216.2156" y="1734.6392">GreenNode</text><path d="M2357.1636,1768.5303 L2357.1636,1799.7959 L2337.1636,1803.7959 L2357.1636,1807.7959 L2357.1636,1839.0615 A0,0 0 0 0 2357.1636,1839.0615 L2586.9761,1839.0615 A0,0 0 0 0 2586.9761,1839.0615 L2586.9761,1778.5303 L2576.9761,1768.5303 L2357.1636,1768.5303 A0,0 0 0 0 2357.1636,1768.5303" fill="#FFFFFF" style="stroke:#000000;stroke-width:1;"/><path d="M2576.9761,1768.5303 L2576.9761,1778.5303 L2586.9761,1778.5303 L2576.9761,1768.5303" fill="#FFFFFF" style="stroke:#000000;stroke-width:1;"/><text fill="#000000" font-family="Verdana" font-size="13" font-weight="bold" lengthAdjust="spacing" textLength="208.8125" x="2363.1636" y="1785.5972">Parse struct (parser/mod.rs)</text><text fill="#000000" font-family="Verdana" font-size="13" lengthAdjust="spacing" textLength="170.6694" x="2363.1636" y="1800.73">&#8226; green_node: GreenNode</text><text fill="#000000" font-family="Verdana" font-size="13" lengthAdjust="spacing" textLength="173.0181" x="2363.1636" y="1815.8628">&#8226; errors: Vec&lt;ParseError&gt;</text><text fill="#000000" font-family="Verdana" font-size="13" lengthAdjust="spacing" textLength="163.4331" x="2363.1636" y="1830.9956">&#8226; syntax() &#8594; SyntaxNode</text><rect fill="#FFFFFF" height="32.8047" rx="12.5" ry="12.5" style="stroke:#000000;stroke-width:1;" width="179.6343" x="2157.5293" y="1787.3936"/><text fill="#000000" font-family="Verdana" font-size="11" lengthAdjust="spacing" textLength="159.6343" x="2167.5293" y="1807.604">Parse { green_node, errors }</text><path d="M2310.7144,1849.0615 L2310.7144,1887.8936 L2290.7144,1891.8936 L2310.7144,1895.8936 L2310.7144,1934.7256 A0,0 0 0 0 2310.7144,1934.7256 L2500.4478,1934.7256 A0,0 0 0 0 2500.4478,1934.7256 L2500.4478,1859.0615 L2490.4478,1849.0615 L2310.7144,1849.0615 A0,0 0 0 0 2310.7144,1849.0615" fill="#FFFFFF" style="stroke:#000000;stroke-width:1;"/><path d="M2490.4478,1849.0615 L2490.4478,1859.0615 L2500.4478,1859.0615 L2490.4478,1849.0615" fill="#FFFFFF" style="stroke:#000000;stroke-width:1;"/><text fill="#000000" font-family="Verdana" font-size="13" font-weight="bold" lengthAdjust="spacing" textLength="144.1743" x="2316.7144" y="1866.1284">rowan::SyntaxNode</text><text fill="#000000" font-family="Verdana" font-size="13" lengthAdjust="spacing" textLength="119.3931" x="2316.7144" y="1881.2612">Lossless CST with:</text><text fill="#000000" font-family="Verdana" font-size="13" lengthAdjust="spacing" textLength="168.7334" x="2316.7144" y="1896.394">&#8226; Full source preservation</text><text fill="#000000" font-family="Verdana" font-size="13" lengthAdjust="spacing" textLength="135.4146" x="2316.7144" y="1911.5269">&#8226; O(1) parent access</text><text fill="#000000" font-family="Verdana" font-size="13" lengthAdjust="spacing" textLength="161.3193" x="2316.7144" y="1926.6597">&#8226; Lazy red node creation</text><rect fill="#FFFFFF" height="32.8047" rx="12.5" ry="12.5" style="stroke:#000000;stroke-width:1;" width="86.7358" x="2203.9785" y="1875.4912"/><text fill="#000000" font-family="Verdana" font-size="11" lengthAdjust="spacing" textLength="66.7358" x="2213.9785" y="1895.7017">SyntaxNode</text><ellipse cx="2247.3464" cy="1965.7256" fill="none" rx="11" ry="11" style="stroke:#000000;stroke-width:1;"/><ellipse cx="2247.3464" cy="1965.7256" fill="#FFFFFF" rx="6" ry="6" style="stroke:#000000;stroke-width:1;"/><line style="stroke:#000000;stroke-width:1;" x1="2151.5293" x2="2151.5293" y1="54.3545" y2="1976.7256"/><line style="stroke:#000000;stroke-width:1;" x1="2591.9761" x2="2591.9761" y1="54.3545" y2="1976.7256"/><line style="stroke:#000000;stroke-width:1;" x1="58.9141" x2="58.9141" y1="100.3076" y2="120.3076"/><polygon fill="#000000" points="54.9141,110.3076,58.9141,120.3076,62.9141,110.3076,58.9141,114.3076" style="stroke:#000000;stroke-width:1;"/><line style="stroke:#000000;stroke-width:1;" x1="311.1685" x2="311.1685" y1="210.9443" y2="357.0342"/><polygon fill="#000000" points="307.1685,347.0342,311.1685,357.0342,315.1685,347.0342,311.1685,351.0342" style="stroke:#000000;stroke-width:1;"/><line style="stroke:#000000;stroke-width:1;" x1="875.4216" x2="875.4216" y1="583.8662" y2="777.6553"/><polygon fill="#000000" points="871.4216,767.6553,875.4216,777.6553,879.4216,767.6553,875.4216,771.6553" style="stroke:#000000;stroke-width:1;"/><line style="stroke:#000000;stroke-width:1;" x1="875.4216" x2="875.4216" y1="810.46" y2="1004.249"/><polygon fill="#000000" points="871.4216,994.249,875.4216,1004.249,879.4216,994.249,875.4216,998.249" style="stroke:#000000;stroke-width:1;"/><line style="stroke:#000000;stroke-width:1;" x1="875.4216" x2="875.4216" y1="1349.4443" y2="1427.4365"/><polygon fill="#000000" points="871.4216,1417.4365,875.4216,1427.4365,879.4216,1417.4365,875.4216,1421.4365" style="stroke:#000000;stroke-width:1;"/><line style="stroke:#000000;stroke-width:1;" x1="1801.7776" x2="1801.7776" y1="1571.0381" y2="1641.4639"/><polygon fill="#000000" points="1797.7776,1631.4639,1801.7776,1641.4639,1805.7776,1631.4639,1801.7776,1635.4639" style="stroke:#000000;stroke-width:1;"/><line style="stroke:#000000;stroke-width:1;" x1="2247.3464" x2="2247.3464" y1="1747.2334" y2="1787.3936"/><polygon fill="#000000" points="2243.3464,1777.3936,2247.3464,1787.3936,2251.3464,1777.3936,2247.3464,1781.3936" style="stroke:#000000;stroke-width:1;"/><line style="stroke:#000000;stroke-width:1;" x1="2247.3464" x2="2247.3464" y1="1820.1982" y2="1875.4912"/><polygon fill="#000000" points="2243.3464,1865.4912,2247.3464,1875.4912,2251.3464,1865.4912,2247.3464,1869.4912" style="stroke:#000000;stroke-width:1;"/><line style="stroke:#000000;stroke-width:1;" x1="2247.3464" x2="2247.3464" y1="1908.2959" y2="1954.7256"/><polygon fill="#000000" points="2243.3464,1944.7256,2247.3464,1954.7256,2251.3464,1944.7256,2247.3464,1948.7256" style="stroke:#000000;stroke-width:1;"/><line style="stroke:#000000;stroke-width:1;" x1="58.9141" x2="58.9141" y1="153.1123" y2="161.8428"/><line style="stroke:#000000;stroke-width:1;" x1="58.9141" x2="311.1685" y1="161.8428" y2="161.8428"/><line style="stroke:#000000;stroke-width:1;" x1="311.1685" x2="311.1685" y1="161.8428" y2="178.1396"/><polygon fill="#000000" points="307.1685,168.1396,311.1685,178.1396,315.1685,168.1396,311.1685,172.1396" style="stroke:#000000;stroke-width:1;"/><line style="stroke:#000000;stroke-width:1;" x1="311.1685" x2="311.1685" y1="389.8389" y2="482.9502"/><line style="stroke:#000000;stroke-width:1;" x1="311.1685" x2="875.4216" y1="482.9502" y2="482.9502"/><line style="stroke:#000000;stroke-width:1;" x1="875.4216" x2="875.4216" y1="482.9502" y2="551.0615"/><polygon fill="#000000" points="871.4216,541.0615,875.4216,551.0615,879.4216,541.0615,875.4216,545.0615" style="stroke:#000000;stroke-width:1;"/><line style="stroke:#000000;stroke-width:1;" x1="875.4216" x2="875.4216" y1="1037.0537" y2="1082.4658"/><line style="stroke:#000000;stroke-width:1;" x1="875.4216" x2="1354.3264" y1="1082.4658" y2="1082.4658"/><line style="stroke:#000000;stroke-width:1;" x1="1354.3264" x2="1354.3264" y1="1082.4658" y2="1152.8779"/><polygon fill="#000000" points="1350.3264,1142.8779,1354.3264,1152.8779,1358.3264,1142.8779,1354.3264,1146.8779" style="stroke:#000000;stroke-width:1;"/><line style="stroke:#000000;stroke-width:1;" x1="1354.3264" x2="1354.3264" y1="1185.6826" y2="1263.6611"/><line style="stroke:#000000;stroke-width:1;" x1="1354.3264" x2="875.4216" y1="1263.6611" y2="1263.6611"/><line style="stroke:#000000;stroke-width:1;" x1="875.4216" x2="875.4216" y1="1263.6611" y2="1316.6396"/><polygon fill="#000000" points="871.4216,1306.6396,875.4216,1316.6396,879.4216,1306.6396,875.4216,1310.6396" style="stroke:#000000;stroke-width:1;"/><line style="stroke:#000000;stroke-width:1;" x1="875.4216" x2="875.4216" y1="1460.2412" y2="1491.6709"/><line style="stroke:#000000;stroke-width:1;" x1="875.4216" x2="1801.7776" y1="1491.6709" y2="1491.6709"/><line style="stroke:#000000;stroke-width:1;" x1="1801.7776" x2="1801.7776" y1="1491.6709" y2="1538.2334"/><polygon fill="#000000" points="1797.7776,1528.2334,1801.7776,1538.2334,1805.7776,1528.2334,1801.7776,1532.2334" style="stroke:#000000;stroke-width:1;"/><line style="stroke:#000000;stroke-width:1;" x1="1801.7776" x2="1801.7776" y1="1674.2686" y2="1698.1318"/><line style="stroke:#000000;stroke-width:1;" x1="1801.7776" x2="2247.3464" y1="1698.1318" y2="1698.1318"/><line style="stroke:#000000;stroke-width:1;" x1="2247.3464" x2="2247.3464" y1="1698.1318" y2="1714.4287"/><polygon fill="#000000" points="2243.3464,1704.4287,2247.3464,1714.4287,2251.3464,1704.4287,2247.3464,1708.4287" style="stroke:#000000;stroke-width:1;"/><text fill="#000000" font-family="Verdana" font-size="18" lengthAdjust="spacing" textLength="62.2178" x="103.4741" y="71.0625">Source</text><text fill="#000000" font-family="Verdana" font-size="18" lengthAdjust="spacing" textLength="50.2295" x="497.8503" y="71.0625">Lexer</text><text fill="#000000" font-family="Verdana" font-size="18" lengthAdjust="spacing" textLength="57.1377" x="1007.9548" y="71.0625">Parser</text><text fill="#000000" font-family="Verdana" font-size="18" lengthAdjust="spacing" textLength="106.2598" x="1462.1748" y="71.0625">Pratt Parser</text><text fill="#000000" font-family="Verdana" font-size="18" lengthAdjust="spacing" textLength="38.2588" x="1928.7983" y="71.0625">Sink</text><text fill="#000000" font-family="Verdana" font-size="18" lengthAdjust="spacing" textLength="62.5254" x="2340.49" y="71.0625">Output</text><g class="legend" data-source-line="184"><rect fill="none" height="401.125" rx="7.5" ry="7.5" style="stroke:#000000;stroke-width:1;" width="374.6289" x="2219.208" y="1981.7256"/><text fill="#000000" font-family="Verdana" font-size="14" font-weight="bold" lengthAdjust="spacing" textLength="270.5186" x="2224.208" y="1999.7207">SyntaxKind (syntax/mod.rs:17-19)</text><text fill="#000000" font-family="Verdana" font-size="14" lengthAdjust="spacing" textLength="4.4502" x="2224.208" y="2016.0176">&#160;</text><text fill="#000000" font-family="Verdana" font-size="14" font-weight="bold" lengthAdjust="spacing" textLength="279.8018" x="2224.208" y="2032.3145">Token Kinds (202 from TokenKind):</text><text fill="#000000" font-family="Verdana" font-size="14" lengthAdjust="spacing" textLength="364.6289" x="2224.208" y="2048.6113">&#8226; Trivia: Whitespace, LineComment, BlockComment</text><text fill="#000000" font-family="Verdana" font-size="14" lengthAdjust="spacing" textLength="323.5381" x="2224.208" y="2064.9082">&#8226; Punctuation: Semicolon, Colon, Dot, Comma</text><text fill="#000000" font-family="Verdana" font-size="14" lengthAdjust="spacing" textLength="317.7822" x="2224.208" y="2081.2051">&#8226; Operators: Plus, Minus, Star, Slash, Eq, Neq</text><text fill="#000000" font-family="Verdana" font-size="14" lengthAdjust="spacing" textLength="333.7441" x="2224.208" y="2097.502">&#8226; Keywords: KwProgram, KwFunction, KwIf, etc.</text><text fill="#000000" font-family="Verdana" font-size="14" lengthAdjust="spacing" textLength="314.1182" x="2224.208" y="2113.7988">&#8226; Literals: IntLiteral, RealLiteral, StringLiteral</text><text fill="#000000" font-family="Verdana" font-size="14" lengthAdjust="spacing" textLength="4.4502" x="2224.208" y="2130.0957">&#160;</text><text fill="#000000" font-family="Verdana" font-size="14" font-weight="bold" lengthAdjust="spacing" textLength="191.9805" x="2224.208" y="2146.3926">Composite Nodes (~65):</text><text fill="#000000" font-family="Verdana" font-size="14" lengthAdjust="spacing" textLength="171.2334" x="2224.208" y="2162.6895">&#8226; SourceFile - Root node</text><text fill="#000000" font-family="Verdana" font-size="14" lengthAdjust="spacing" textLength="294.3555" x="2224.208" y="2178.9863">&#8226; Program, Function, FunctionBlock, Class</text><text fill="#000000" font-family="Verdana" font-size="14" lengthAdjust="spacing" textLength="296.7617" x="2224.208" y="2195.2832">&#8226; Method, Property, Interface, Namespace</text><text fill="#000000" font-family="Verdana" font-size="14" lengthAdjust="spacing" textLength="215.5986" x="2224.208" y="2211.5801">&#8226; VarBlock, VarDecl, TypeSpec</text><text fill="#000000" font-family="Verdana" font-size="14" lengthAdjust="spacing" textLength="278.2227" x="2224.208" y="2227.877">&#8226; IfStmt, ForStmt, WhileStmt, CaseStmt</text><text fill="#000000" font-family="Verdana" font-size="14" lengthAdjust="spacing" textLength="312.6963" x="2224.208" y="2244.1738">&#8226; BinaryExpr, UnaryExpr, CallExpr, FieldExpr</text><text fill="#000000" font-family="Verdana" font-size="14" lengthAdjust="spacing" textLength="4.4502" x="2224.208" y="2260.4707">&#160;</text><text fill="#000000" font-family="Verdana" font-size="14" font-weight="bold" lengthAdjust="spacing" textLength="76.9316" x="2224.208" y="2276.7676">Key Files:</text><text fill="#000000" font-family="Verdana" font-size="14" lengthAdjust="spacing" textLength="271.4961" x="2224.208" y="2293.0645">&#8226; lexer/tokens.rs:44 - TokenKind enum</text><text fill="#000000" font-family="Verdana" font-size="14" lengthAdjust="spacing" textLength="225.415" x="2224.208" y="2309.3613">&#8226; lexer/mod.rs:14 - Token struct</text><text fill="#000000" font-family="Verdana" font-size="14" lengthAdjust="spacing" textLength="268.3105" x="2224.208" y="2325.6582">&#8226; syntax/mod.rs:9 - SyntaxKind macro</text><text fill="#000000" font-family="Verdana" font-size="14" lengthAdjust="spacing" textLength="250.667" x="2224.208" y="2341.9551">&#8226; parser/parser.rs:30 - Parser struct</text><text fill="#000000" font-family="Verdana" font-size="14" lengthAdjust="spacing" textLength="231.8135" x="2224.208" y="2358.252">&#8226; parser/event.rs:9 - Event enum</text><text fill="#000000" font-family="Verdana" font-size="14" lengthAdjust="spacing" textLength="219.2627" x="2224.208" y="2374.5488">&#8226; parser/sink.rs:10 - Sink struct</text></g><?plantuml-src hLZlRkCs4l_kfvZ30RjsAYLHd3yRDniWSUojaSGsR2VReYWCHc9i8PAeabGSxwL5Fzq3t2FSe_L9ReQK9TdnNW_OysvYSZWS3cU6lvd9t_ISnnpIY8L9JJs5ISeaY-61-KypAR8aQ8j8IFXxjqF_AXo-Y5EHy4IFzJBYaCNHGMML-Jfy3lMoAv0X_CB1yser7Mhar38RJs2yJ3HxQS4DV-4I_lpdls38fCg7RMGOXYcFmeJNQk_XupTySFkmD-pSzFeT6DntHlUzpkTl5Lbx7OjC-lorfZIJkjQoKvZm5_rzBH6QWmndSrq3_8pO0dgTDXnxNjDpcuOsHYFuEfCyC7jgF0c0jg5aOv3NMiiQfXw9cL2DDq9tTY9Qtuj5i2jL2oVrniwEMRfJN87P1W6NuJE7cFbIcBL7TEKNBeNhYtG9MZpn9Fp2T2YIYWgj2T5__cNBeMO5bD4UTQkgu1swtkbAXp__-3TWB0GjC3kkSLZG9Kjcl6NkFQ9XhIgRE84dMRoIRdHKTC1HqpqwNXrmTZOPN7Vwq_7aOZ8-FpUqKi0pao5Bj6h1mVw1DJZtwPQgLQWnGTE4h0M71MMO9UWJOuqMU0S5VP1ooRH05S0xAgZNVBaGCZ34uu9w4sfaZjIQW5w0poHy3BaHKP37AVT35g6IXcH-hQH27QKs84mW4BxQ2q8smsUbzcOy8MLuiAVC0t8n0BNQZOEtLfbs-bTecKfesHVsMeJhGh8KxxR5ppd3oj6fsRYd39LyyS7r3bUk-8nIb8qbsi3nzIz2FIyjdNB-DALeg3V01SI85360Z5zm-9cKQAAf4L9llDqvJUf9engYzYfRDCzHP4Dp-qMQD_VTvc4rJEsbMc2lVFPUE_1UIV-yOE3Ft8JIFVVFEZIkB4bfmeAMpC4T8fol8XgT2J7NSu5HKZsHC0DjGKXto-GJbyNIGnQdnae-ncg6k6miKYmpNITh68OvzvzMXbjNg1wh6R58dWgfBQrYkpScCqh3YFlYcSjbLLDfQLCACimI2MbD_YDtGqB01UPJh0CAUeW4QiOhBnv3rOTKX6X6Z6W_oW8E69pJ7IVVFnpSMQie1-ulHbQ4Ac_rWYz5JnMFGn-p4KO8Ya5_eZYHv2AoXCKFuImJcO87obi80LnjU0eF4OIvYbEMqZnQVa-v9XUHIev2dn4z1PedJ5XapQ-gWOTcogGYLBtYogShVmT3bAMtnE8dVB8nau08cKKeTXMDCqlVguPXAZ8CJ_JQS3JuDBguTQ1xrszFUeC-ZYuTQDzSZCS5Ty3zY6v0a6QtbMPpG2_JojKBv-ISlIvA78nGvCMuum3N_cxLqcW4LOerLmEhzngK67e1A9rYdw65oMoBEIunT745XcA1I0Zr4jgzvZuYIhFPBE5zEEgqErUTVhipdLnStdHoZ1zYI7A4KmGdJ8qByuRcU4R3metd7hJmQp0oiwPxIBCVy-cHUqpJY_wL0-yCvSJzG9IF3foTum_-no6EpZ-QvLFNswVrxnnmhNZFzSm1EmxiEN0xkB9aJ7rDGzw1khanCAM4Ru7CEshbqVKOla1_C75AWM_l-LzGss856bXZZacs63Xds09w9sxpT3tQ4BKoHOLPtU0RFgY0lvJ8-o3YXnPSIP5UuWZgYZrolMoiaAsDnL_4CGrzzSZZK_V4stvaIRBEnETCTKd47pKX3ZslzNh4eExMUiIivFL2heAv3cbmwXvyg2em9e21VvYwnA4J5qm6Kzn58duhwmAJo5PiYSr9giBG3PDGpSkg8M8-duieM7yWup1veaoBNzloAvBVP5UacSUmxtedLSMj1Yruzrx3pqQzNzvahtUKiqZY_vAsoCH2RdhZ8Glf4Ytu93bF-YBWbvRob-ckcfUby148m9oejjpStFBHc13zlddtPjCzAGBLsuKVM19Wox3XB7-EpOe5k8DTu0mB1rDFv86qc6CHfb9qYqM1NJ0NWHdT2nKDU1NHNmUPJZEDlYhklKLjAHOiQPKikOgzECuqUuWuWkuSIv_0fOTYbknfM0_X4yFCXo-M1szB60mqmpWbjPnLclhjQuNDPipOshiQBAMqYYF_qeELJ8r5PLwRs1RDxA-eNLA_RgQI9zViHYWLKLnGPxTU7NQpACh3U9M1RKDIbDzrhm6vvvbFqLLMs-pB4YYXqtt1HmTij3AOxzF_GmCv_ga_kVWHhdlzAnZVtTvUZ7xwvXOouZFISmqLZDbC1rEtdYYQgvEykLhhmuWJyoZsEF0eHLmsG8rg4RTgT3uNpyB1DYNXYE5K5JXmIML3FjlU38rNbHSM3VRhIcWQOncphKqQHXcM8RTXGb-4k_WxOchkGETN1_hyrorTrFK2iOCg8mU7NJezf8Ek5xt7ZIAbxB5wYSud3jQlB2ecs5zZfP5FgqbBAAG1HIOQxlVZepLBsHQW6oBYk30IGfkuAasoqg_KRZKo9aI3u2NBwBmrfRz3-z0qUkcGlbm-6W_qMLp1A6A_Pp8NWwChBF0Sc60XHrrYsKa-ZdMCbkyAQGVer8ZROPifCogOiTvYSacbcGDtvR3DeiYEkY6F0XfM6nQw_bgxijc77nwYTTQRzGtUuYy2AyOSjZPWPiLtYcoLq2__Mc5gXBSD79MbrIvlaxUi092ph10ssSfyI-UN2Td0XtsTjVy0?></g></svg>