<?plantuml 1.2026.2?><svg xmlns="http://www.w3.org/2000/svg" xmlns:xlink="http://www.w3.org/1999/xlink" contentStyleType="text/css" data-diagram-type="DESCRIPTION" height="1140px" preserveAspectRatio="none" style="width:2366px;height:1140px;background:#FFFFFF;" version="1.1" viewBox="0 0 2366 1140" width="2366px" zoomAndPan="magnify"><title>Debug Adapter Thread Architecture</title><defs/><g><g class="title" data-source-line="4"><text fill="#000000" font-family="Verdana" font-size="22" font-weight="bold" lengthAdjust="spacing" textLength="444.5547" x="956.2888" y="35.4209">Debug Adapter Thread Architecture</text></g><!--cluster main--><g class="cluster" data-qualified-name="main" data-source-line="6" id="ent0002"><path d="M793.5,557.4994 L892.9033,557.4994 A3.75,3.75 0 0 1 895.4033,559.9994 L902.4033,579.7962 L1372.5,579.7962 A2.5,2.5 0 0 1 1375,582.2962 L1375,1043.4294 A2.5,2.5 0 0 1 1372.5,1045.9294 L793.5,1045.9294 A2.5,2.5 0 0 1 791,1043.4294 L791,559.9994 A2.5,2.5 0 0 1 793.5,557.4994" fill="#FFFFFF" style="stroke:#000000;stroke-width:1;"/><line style="stroke:#000000;stroke-width:1;" x1="791" x2="902.4033" y1="579.7962" y2="579.7962"/><text fill="#000000" font-family="Verdana" font-size="14" font-weight="bold" lengthAdjust="spacing" textLength="98.4033" x="795" y="572.4945">Main Thread</text></g><!--cluster logT--><g class="cluster" data-qualified-name="logT" data-source-line="20" id="ent0013"><path d="M1401.5,557.4994 L1491.3193,557.4994 A3.75,3.75 0 0 1 1493.8193,559.9994 L1500.8193,579.7962 L1578.5,579.7962 A2.5,2.5 0 0 1 1581,582.2962 L1581,787.2694 A2.5,2.5 0 0 1 1578.5,789.7694 L1401.5,789.7694 A2.5,2.5 0 0 1 1399,787.2694 L1399,559.9994 A2.5,2.5 0 0 1 1401.5,557.4994" fill="#90EE90" style="stroke:#000000;stroke-width:1;"/><line style="stroke:#000000;stroke-width:1;" x1="1399" x2="1500.8193" y1="579.7962" y2="579.7962"/><text fill="#000000" font-family="Verdana" font-size="14" font-weight="bold" lengthAdjust="spacing" textLength="88.8193" x="1403" y="572.4945">Log Thread</text></g><!--cluster ioT--><g class="cluster" data-qualified-name="ioT" data-source-line="25" id="ent0018"><path d="M1607.5,557.4994 L1685.8691,557.4994 A3.75,3.75 0 0 1 1688.3691,559.9994 L1695.3691,579.7962 L1792.5,579.7962 A2.5,2.5 0 0 1 1795,582.2962 L1795,794.8394 A2.5,2.5 0 0 1 1792.5,797.3394 L1607.5,797.3394 A2.5,2.5 0 0 1 1605,794.8394 L1605,559.9994 A2.5,2.5 0 0 1 1607.5,557.4994" fill="#ADD8E6" style="stroke:#000000;stroke-width:1;"/><line style="stroke:#000000;stroke-width:1;" x1="1605" x2="1695.3691" y1="579.7962" y2="579.7962"/><text fill="#000000" font-family="Verdana" font-size="14" font-weight="bold" lengthAdjust="spacing" textLength="77.3691" x="1609" y="572.4945">IO Thread</text></g><!--cluster stopT--><g class="cluster" data-qualified-name="stopT" data-source-line="30" id="ent0023"><path d="M549.5,549.4994 L647.1738,549.4994 A3.75,3.75 0 0 1 649.6738,551.9994 L656.6738,571.7962 L756.5,571.7962 A2.5,2.5 0 0 1 759,574.2962 L759,802.8394 A2.5,2.5 0 0 1 756.5,805.3394 L549.5,805.3394 A2.5,2.5 0 0 1 547,802.8394 L547,551.9994 A2.5,2.5 0 0 1 549.5,549.4994" fill="#F08080" style="stroke:#000000;stroke-width:1;"/><line style="stroke:#000000;stroke-width:1;" x1="547" x2="656.6738" y1="571.7962" y2="571.7962"/><text fill="#000000" font-family="Verdana" font-size="14" font-weight="bold" lengthAdjust="spacing" textLength="96.6738" x="551" y="564.4945">Stop Thread</text></g><!--cluster remoteT--><g class="cluster" data-qualified-name="remoteT" data-source-line="35" id="ent0028"><path d="M319.5,395.1994 L431.9189,395.1994 A3.75,3.75 0 0 1 434.4189,397.6994 L441.4189,417.4962 L512.5,417.4962 A2.5,2.5 0 0 1 515,419.9962 L515,656.8394 A2.5,2.5 0 0 1 512.5,659.3394 L319.5,659.3394 A2.5,2.5 0 0 1 317,656.8394 L317,397.6994 A2.5,2.5 0 0 1 319.5,395.1994" fill="#F08080" style="stroke:#000000;stroke-width:1;"/><line style="stroke:#000000;stroke-width:1;" x1="317" x2="441.4189" y1="417.4962" y2="417.4962"/><text fill="#000000" font-family="Verdana" font-size="14" font-weight="bold" lengthAdjust="spacing" textLength="111.4189" x="321" y="410.1945">Remote Poller</text></g><!--cluster runnerT--><g class="cluster" data-qualified-name="runnerT" data-source-line="40" id="ent0033"><path d="M1103.5,57.6094 L1221.8389,57.6094 A3.75,3.75 0 0 1 1224.3389,60.1094 L1231.3389,79.9063 L1288.5,79.9063 A2.5,2.5 0 0 1 1291,82.4063 L1291,309.6794 A2.5,2.5 0 0 1 1288.5,312.1794 L1103.5,312.1794 A2.5,2.5 0 0 1 1101,309.6794 L1101,60.1094 A2.5,2.5 0 0 1 1103.5,57.6094" fill="#FFFFE0" style="stroke:#000000;stroke-width:1;"/><line style="stroke:#000000;stroke-width:1;" x1="1101" x2="1231.3389" y1="79.9063" y2="79.9063"/><text fill="#000000" font-family="Verdana" font-size="14" font-weight="bold" lengthAdjust="spacing" textLength="117.3389" x="1105" y="72.6045">Runner Thread</text></g><!--cluster channels--><g class="cluster" data-qualified-name="channels" data-source-line="45" id="ent0038"><path d="M576,390.1994 C576,380.1994 778,380.1994 778,380.1994 C778,380.1994 980,380.1994 980,390.1994 L980,482.4994 C980,492.4994 778,492.4994 778,492.4994 C778,492.4994 576,492.4994 576,482.4994 L576,390.1994" fill="#FFFFFF" style="stroke:#000000;stroke-width:1;"/><path d="M576,390.1994 C576,400.1994 778,400.1994 778,400.1994 C778,400.1994 980,400.1994 980,390.1994" fill="none" style="stroke:#000000;stroke-width:1;"/><text fill="#000000" font-family="Verdana" font-size="14" font-weight="bold" lengthAdjust="spacing" textLength="72.249" x="741.8755" y="415.1945">Channels</text></g><!--cluster runtime--><g class="cluster" data-qualified-name="runtime" data-source-line="51" id="ent0042"><path d="M554.8076,224.013 C564.8379,203.8308 581.181,205.0971 593.4676,221.6376 C603.2704,204.3715 617.1491,200.5328 629.2752,219.3308 C641.5499,201.1766 654.0787,203.4844 665.8755,219.8377 C672.3341,204.0607 687.4461,201.0467 699.2495,213.5246 C710.1803,195.9442 723.9154,199.1728 732.8879,215.4692 C741.3995,193.5907 758.4051,193.4204 771.3663,211.1463 C781.6109,197.5511 798.0557,196.1468 806.3718,213.3391 C815.7149,194.1288 829.229,192.8575 840.9096,211.1887 C853.7801,198.1976 868.595,196.6383 876.325,216.6971 C889.9214,198.6149 902.6281,200.3393 915.8256,217.1488 C927.9551,199.8293 940.7851,199.954 950.8963,219.0904 C958.1975,201.1428 974.8627,199.2189 984.8827,216.4649 C1000.0469,199.4969 1013.2071,200.3793 1022.7912,221.9533 C1033.9821,205.2053 1052.3984,208.0651 1061,224.8994 C1063.1071,221.7952 1065.8725,221.9594 1067.4851,225.3901 C1091.6335,238.4232 1093.6692,254.4875 1073.4748,273.0889 C1086.7921,293.6391 1081.8954,313.7087 1054,315.1994 C1055.2707,314.4468 1056.5936,315.0785 1056.5969,316.6287 C1047.8036,334.2255 1029.8527,334.1468 1020.4973,317.2165 C1015.019,336.5743 999.075,339.3896 987.066,323.3918 C975.8197,340.0795 959.2568,345.0157 947.6744,323.7405 C937.4525,337.2464 920.4553,337.0349 912.8256,320.7121 C904.4916,338.4251 891.122,336.1793 881.3308,322.1583 C872.7161,341.9484 857.4672,342.9176 845.6019,325.2595 C833.5817,345.1305 819.4731,347.5733 805.567,327.1324 C795.8107,341.6702 778.0741,343.5905 769.4155,325.9009 C756.7093,341.5976 741.868,339.7769 732.2245,322.4516 C721.2735,340.2011 708.1554,342.2133 696.4175,323.2184 C684.2172,340.1573 667.9557,335.9033 660.374,318.3869 C652.5066,333.9249 638.2596,335.6394 629.6022,319.1459 C617.6864,336.8521 605.1238,341.5382 591.0387,321.3538 C572.753,336.0154 553.0198,332.1102 546,308.1994 C548.367,308.3265 549.7444,310.0159 548.2573,312.2767 C526.201,302.0315 521.9235,284.1779 541.2256,267.4457 C518.4877,245.2106 522.2716,227.4286 553,217.8994 C556.8584,218.8795 556.9813,221.2494 554.8076,224.013" fill="#FFFFFF" style="stroke:#000000;stroke-width:1;"/><text fill="#000000" font-family="Verdana" font-size="14" font-weight="bold" lengthAdjust="spacing" textLength="66.2881" x="770.356" y="235.8945">Runtime</text></g><!--entity protocolLoop--><g class="entity" data-qualified-name="main.protocolLoop" data-source-line="7" id="ent0003"><rect fill="#FFFFFF" height="62.5938" rx="2.5" ry="2.5" style="stroke:#000000;stroke-width:1;" width="135.2383" x="858.38" y="722.3394"/><rect fill="#FFFFFF" height="10" style="stroke:#000000;stroke-width:1;" width="15" x="973.6183" y="727.3394"/><rect fill="#FFFFFF" height="2" style="stroke:#000000;stroke-width:1;" width="4" x="971.6183" y="729.3394"/><rect fill="#FFFFFF" height="2" style="stroke:#000000;stroke-width:1;" width="4" x="971.6183" y="733.3394"/><text fill="#000000" font-family="Verdana" font-size="14" lengthAdjust="spacing" textLength="95.2383" x="873.38" y="755.3345">Protocol Loop</text><text fill="#000000" font-family="Verdana" font-size="14" lengthAdjust="spacing" textLength="75.5508" x="873.38" y="771.6314">run_stdio()</text></g><!--entity dispatch--><g class="entity" data-qualified-name="main.dispatch" data-source-line="8" id="ent0004"><rect fill="#FFFFFF" height="46.2969" rx="2.5" ry="2.5" style="stroke:#000000;stroke-width:1;" width="171.0449" x="938.48" y="860.3394"/><rect fill="#FFFFFF" height="10" style="stroke:#000000;stroke-width:1;" width="15" x="1089.5249" y="865.3394"/><rect fill="#FFFFFF" height="2" style="stroke:#000000;stroke-width:1;" width="4" x="1087.5249" y="867.3394"/><rect fill="#FFFFFF" height="2" style="stroke:#000000;stroke-width:1;" width="4" x="1087.5249" y="871.3394"/><text fill="#000000" font-family="Verdana" font-size="14" lengthAdjust="spacing" textLength="131.0449" x="953.48" y="893.3345">dispatch_request()</text></g><!--entity threadMap--><g class="entity" data-qualified-name="main.threadMap" data-source-line="9" id="ent0005"><rect fill="#FFFFFF" height="46.2969" rx="2.5" ry="2.5" style="stroke:#000000;stroke-width:1;" width="142.0605" x="1216.97" y="983.6394"/><rect fill="#FFFFFF" height="10" style="stroke:#000000;stroke-width:1;" width="15" x="1339.0305" y="988.6394"/><rect fill="#FFFFFF" height="2" style="stroke:#000000;stroke-width:1;" width="4" x="1337.0305" y="990.6394"/><rect fill="#FFFFFF" height="2" style="stroke:#000000;stroke-width:1;" width="4" x="1337.0305" y="994.6394"/><text fill="#000000" font-family="Verdana" font-size="14" lengthAdjust="spacing" textLength="102.0605" x="1231.97" y="1016.6345">ThreadMapper</text></g><!--entity stopCoord--><g class="entity" data-qualified-name="main.stopCoord" data-source-line="10" id="ent0006"><rect fill="#FFFFFF" height="46.2969" rx="2.5" ry="2.5" style="stroke:#000000;stroke-width:1;" width="154.5293" x="806.74" y="592.4994"/><rect fill="#FFFFFF" height="10" style="stroke:#000000;stroke-width:1;" width="15" x="941.2693" y="597.4994"/><rect fill="#FFFFFF" height="2" style="stroke:#000000;stroke-width:1;" width="4" x="939.2693" y="599.4994"/><rect fill="#FFFFFF" height="2" style="stroke:#000000;stroke-width:1;" width="4" x="939.2693" y="603.4994"/><text fill="#000000" font-family="Verdana" font-size="14" lengthAdjust="spacing" textLength="114.5293" x="821.74" y="625.4945">StopCoordinator</text></g><!--entity bpManager--><g class="entity" data-qualified-name="main.bpManager" data-source-line="11" id="ent0007"><rect fill="#FFFFFF" height="46.2969" rx="2.5" ry="2.5" style="stroke:#000000;stroke-width:1;" width="177.7305" x="1004.13" y="983.6394"/><rect fill="#FFFFFF" height="10" style="stroke:#000000;stroke-width:1;" width="15" x="1161.8605" y="988.6394"/><rect fill="#FFFFFF" height="2" style="stroke:#000000;stroke-width:1;" width="4" x="1159.8605" y="990.6394"/><rect fill="#FFFFFF" height="2" style="stroke:#000000;stroke-width:1;" width="4" x="1159.8605" y="994.6394"/><text fill="#000000" font-family="Verdana" font-size="14" lengthAdjust="spacing" textLength="137.7305" x="1019.13" y="1016.6345">BreakpointManager</text></g><!--entity pausedView--><g class="entity" data-qualified-name="main.pausedView" data-source-line="12" id="ent0008"><rect fill="#FFFFFF" height="46.2969" rx="2.5" ry="2.5" style="stroke:#000000;stroke-width:1;" width="161.2764" x="807.36" y="983.6394"/><rect fill="#FFFFFF" height="10" style="stroke:#000000;stroke-width:1;" width="15" x="948.6364" y="988.6394"/><rect fill="#FFFFFF" height="2" style="stroke:#000000;stroke-width:1;" width="4" x="946.6364" y="990.6394"/><rect fill="#FFFFFF" height="2" style="stroke:#000000;stroke-width:1;" width="4" x="946.6364" y="994.6394"/><text fill="#000000" font-family="Verdana" font-size="14" lengthAdjust="spacing" textLength="121.2764" x="822.36" y="1016.6345">PausedStateView</text></g><!--entity logRecv--><g class="entity" data-qualified-name="logT.logRecv" data-source-line="21" id="ent0014"><rect fill="#FFFFFF" height="46.2969" rx="2.5" ry="2.5" style="stroke:#000000;stroke-width:1;" width="130.8975" x="1414.55" y="592.4994"/><rect fill="#FFFFFF" height="10" style="stroke:#000000;stroke-width:1;" width="15" x="1525.4475" y="597.4994"/><rect fill="#FFFFFF" height="2" style="stroke:#000000;stroke-width:1;" width="4" x="1523.4475" y="599.4994"/><rect fill="#FFFFFF" height="2" style="stroke:#000000;stroke-width:1;" width="4" x="1523.4475" y="603.4994"/><text fill="#000000" font-family="Verdana" font-size="14" lengthAdjust="spacing" textLength="90.8975" x="1429.55" y="625.4945">Log Receiver</text></g><g class="entity" data-qualified-name="logT.GMN15" data-source-line="22" id="ent0016"><path d="M1415.25,733.5094 L1415.25,773.775 A0,0 0 0 0 1415.25,773.775 L1564.7583,773.775 A0,0 0 0 0 1564.7583,773.775 L1564.7583,743.5094 L1554.7583,733.5094 L1492.57,733.5094 L1481.65,639.0994 L1484.57,733.5094 L1415.25,733.5094 A0,0 0 0 0 1415.25,733.5094" fill="#FFFFFF" style="stroke:#000000;stroke-width:1;"/><path d="M1554.7583,733.5094 L1554.7583,743.5094 L1564.7583,743.5094 L1554.7583,733.5094" fill="#FFFFFF" style="stroke:#000000;stroke-width:1;"/><text fill="#000000" font-family="Verdana" font-size="13" lengthAdjust="spacing" textLength="128.5083" x="1421.25" y="750.5763">Converts DebugLog</text><text fill="#000000" font-family="Verdana" font-size="13" lengthAdjust="spacing" textLength="105.8345" x="1421.25" y="765.7091">&#8594; output events</text></g><!--entity ioRecv--><g class="entity" data-qualified-name="ioT.ioRecv" data-source-line="26" id="ent0019"><rect fill="#FFFFFF" height="46.2969" rx="2.5" ry="2.5" style="stroke:#000000;stroke-width:1;" width="120.7939" x="1620.6" y="592.4994"/><rect fill="#FFFFFF" height="10" style="stroke:#000000;stroke-width:1;" width="15" x="1721.3939" y="597.4994"/><rect fill="#FFFFFF" height="2" style="stroke:#000000;stroke-width:1;" width="4" x="1719.3939" y="599.4994"/><rect fill="#FFFFFF" height="2" style="stroke:#000000;stroke-width:1;" width="4" x="1719.3939" y="603.4994"/><text fill="#000000" font-family="Verdana" font-size="14" lengthAdjust="spacing" textLength="80.7939" x="1635.6" y="625.4945">IO Receiver</text></g><g class="entity" data-qualified-name="ioT.GMN20" data-source-line="27" id="ent0021"><path d="M1621.13,725.9394 L1621.13,781.3378 L1778.8649,781.3378 L1778.8649,735.9394 L1768.8649,725.9394 L1621.13,725.9394" fill="#FFFFFF" style="stroke:#000000;stroke-width:1;"/><path d="M1768.8649,725.9394 L1768.8649,735.9394 L1778.8649,735.9394 L1768.8649,725.9394" fill="#FFFFFF" style="stroke:#000000;stroke-width:1;"/><text fill="#000000" font-family="Verdana" font-size="13" lengthAdjust="spacing" textLength="79.6313" x="1627.13" y="743.0063">Rate-limited</text><text fill="#000000" font-family="Verdana" font-size="13" lengthAdjust="spacing" textLength="105.9995" x="1627.13" y="758.1391">stIoState events</text><text fill="#000000" font-family="Verdana" font-size="13" lengthAdjust="spacing" textLength="136.7349" x="1627.13" y="773.2719">(150ms min interval)</text></g><!--entity stopRecv--><g class="entity" data-qualified-name="stopT.stopRecv" data-source-line="31" id="ent0024"><rect fill="#FFFFFF" height="46.2969" rx="2.5" ry="2.5" style="stroke:#000000;stroke-width:1;" width="137.4736" x="578.26" y="592.4994"/><rect fill="#FFFFFF" height="10" style="stroke:#000000;stroke-width:1;" width="15" x="695.7336" y="597.4994"/><rect fill="#FFFFFF" height="2" style="stroke:#000000;stroke-width:1;" width="4" x="693.7336" y="599.4994"/><rect fill="#FFFFFF" height="2" style="stroke:#000000;stroke-width:1;" width="4" x="693.7336" y="603.4994"/><text fill="#000000" font-family="Verdana" font-size="14" lengthAdjust="spacing" textLength="97.4736" x="593.26" y="625.4945">Stop Receiver</text></g><g class="entity" data-qualified-name="stopT.GMN25" data-source-line="32" id="ent0026"><path d="M570.87,725.9394 L570.87,781.3378 A0,0 0 0 0 570.87,781.3378 L727.1259,781.3378 A0,0 0 0 0 727.1259,781.3378 L727.1259,735.9394 L717.1259,725.9394 L652.6,725.9394 L647.33,639.0994 L644.6,725.9394 L570.87,725.9394 A0,0 0 0 0 570.87,725.9394" fill="#FFFFFF" style="stroke:#000000;stroke-width:1;"/><path d="M717.1259,725.9394 L717.1259,735.9394 L727.1259,735.9394 L717.1259,725.9394" fill="#FFFFFF" style="stroke:#000000;stroke-width:1;"/><text fill="#000000" font-family="Verdana" font-size="13" lengthAdjust="spacing" textLength="134.6147" x="576.87" y="743.0063">Converts DebugStop</text><text fill="#000000" font-family="Verdana" font-size="13" lengthAdjust="spacing" textLength="115.5337" x="576.87" y="758.1391">&#8594; stopped events</text><text fill="#000000" font-family="Verdana" font-size="13" lengthAdjust="spacing" textLength="135.2559" x="576.87" y="773.2719">+ invalidated events</text></g><!--entity remotePoller--><g class="entity" data-qualified-name="remoteT.remotePoller" data-source-line="36" id="ent0029"><rect fill="#FFFFFF" height="46.2969" rx="2.5" ry="2.5" style="stroke:#000000;stroke-width:1;" width="165.6309" x="333.18" y="430.1994"/><rect fill="#FFFFFF" height="10" style="stroke:#000000;stroke-width:1;" width="15" x="478.8109" y="435.1994"/><rect fill="#FFFFFF" height="2" style="stroke:#000000;stroke-width:1;" width="4" x="476.8109" y="437.1994"/><rect fill="#FFFFFF" height="2" style="stroke:#000000;stroke-width:1;" width="4" x="476.8109" y="441.1994"/><text fill="#000000" font-family="Verdana" font-size="14" lengthAdjust="spacing" textLength="125.6309" x="348.18" y="463.1945">RemoteStopPoller</text></g><g class="entity" data-qualified-name="remoteT.GMN30" data-source-line="37" id="ent0031"><path d="M362.73,587.9494 L362.73,643.3478 A0,0 0 0 0 362.73,643.3478 L499.2637,643.3478 A0,0 0 0 0 499.2637,643.3478 L499.2637,597.9494 L489.2637,587.9494 L432.47,587.9494 L418.12,476.9794 L424.47,587.9494 L362.73,587.9494 A0,0 0 0 0 362.73,587.9494" fill="#FFFFFF" style="stroke:#000000;stroke-width:1;"/><path d="M489.2637,587.9494 L489.2637,597.9494 L499.2637,597.9494 L489.2637,587.9494" fill="#FFFFFF" style="stroke:#000000;stroke-width:1;"/><text fill="#000000" font-family="Verdana" font-size="13" lengthAdjust="spacing" textLength="104.1523" x="368.73" y="605.0163">Polls control IPC</text><text fill="#000000" font-family="Verdana" font-size="13" lengthAdjust="spacing" textLength="90.1177" x="368.73" y="620.1491">(debug.stops)</text><text fill="#000000" font-family="Verdana" font-size="13" lengthAdjust="spacing" textLength="115.5337" x="368.73" y="635.2819">&#8594; stopped events</text></g><!--entity cycleExec--><g class="entity" data-qualified-name="runnerT.cycleExec" data-source-line="41" id="ent0034"><rect fill="#FFFFFF" height="46.2969" rx="2.5" ry="2.5" style="stroke:#000000;stroke-width:1;" width="144.8359" x="1119.58" y="92.6094"/><rect fill="#FFFFFF" height="10" style="stroke:#000000;stroke-width:1;" width="15" x="1244.4159" y="97.6094"/><rect fill="#FFFFFF" height="2" style="stroke:#000000;stroke-width:1;" width="4" x="1242.4159" y="99.6094"/><rect fill="#FFFFFF" height="2" style="stroke:#000000;stroke-width:1;" width="4" x="1242.4159" y="103.6094"/><text fill="#000000" font-family="Verdana" font-size="14" lengthAdjust="spacing" textLength="104.8359" x="1134.58" y="125.6045">Cycle Executor</text></g><g class="entity" data-qualified-name="runnerT.GMN35" data-source-line="42" id="ent0036"><path d="M1116.71,255.9194 L1116.71,296.185 A0,0 0 0 0 1116.71,296.185 L1275.2954,296.185 A0,0 0 0 0 1275.2954,296.185 L1275.2954,265.9194 L1265.2954,255.9194 L1199.51,255.9194 L1192.56,139.0994 L1191.51,255.9194 L1116.71,255.9194 A0,0 0 0 0 1116.71,255.9194" fill="#FFFFFF" style="stroke:#000000;stroke-width:1;"/><path d="M1265.2954,255.9194 L1265.2954,265.9194 L1275.2954,265.9194 L1265.2954,255.9194" fill="#FFFFFF" style="stroke:#000000;stroke-width:1;"/><text fill="#000000" font-family="Verdana" font-size="13" lengthAdjust="spacing" textLength="137.5854" x="1122.71" y="272.9863">Calls execute_cycle()</text><text fill="#000000" font-family="Verdana" font-size="13" lengthAdjust="spacing" textLength="78.1841" x="1122.71" y="288.1191">in tight loop</text></g><!--entity logChan--><g class="entity" data-qualified-name="channels.logChan" data-source-line="46" id="ent0039"><rect fill="#FFFFFF" height="46.2969" rx="2.5" ry="2.5" style="stroke:#000000;stroke-width:1;" width="100.874" x="736.56" y="430.1994"/><rect fill="#FFFFFF" height="10" style="stroke:#000000;stroke-width:1;" width="15" x="817.434" y="435.1994"/><rect fill="#FFFFFF" height="2" style="stroke:#000000;stroke-width:1;" width="4" x="815.434" y="437.1994"/><rect fill="#FFFFFF" height="2" style="stroke:#000000;stroke-width:1;" width="4" x="815.434" y="441.1994"/><text fill="#000000" font-family="Verdana" font-size="14" lengthAdjust="spacing" textLength="60.874" x="751.56" y="463.1945">log_tx/rx</text></g><!--entity ioChan--><g class="entity" data-qualified-name="channels.ioChan" data-source-line="47" id="ent0040"><rect fill="#FFFFFF" height="46.2969" rx="2.5" ry="2.5" style="stroke:#000000;stroke-width:1;" width="91.9873" x="872.01" y="430.1994"/><rect fill="#FFFFFF" height="10" style="stroke:#000000;stroke-width:1;" width="15" x="943.9973" y="435.1994"/><rect fill="#FFFFFF" height="2" style="stroke:#000000;stroke-width:1;" width="4" x="941.9973" y="437.1994"/><rect fill="#FFFFFF" height="2" style="stroke:#000000;stroke-width:1;" width="4" x="941.9973" y="441.1994"/><text fill="#000000" font-family="Verdana" font-size="14" lengthAdjust="spacing" textLength="51.9873" x="887.01" y="463.1945">io_tx/rx</text></g><!--entity stopChan--><g class="entity" data-qualified-name="channels.stopChan" data-source-line="48" id="ent0041"><rect fill="#FFFFFF" height="46.2969" rx="2.5" ry="2.5" style="stroke:#000000;stroke-width:1;" width="109.7676" x="592.12" y="430.1994"/><rect fill="#FFFFFF" height="10" style="stroke:#000000;stroke-width:1;" width="15" x="681.8876" y="435.1994"/><rect fill="#FFFFFF" height="2" style="stroke:#000000;stroke-width:1;" width="4" x="679.8876" y="437.1994"/><rect fill="#FFFFFF" height="2" style="stroke:#000000;stroke-width:1;" width="4" x="679.8876" y="441.1994"/><text fill="#000000" font-family="Verdana" font-size="14" lengthAdjust="spacing" textLength="69.7676" x="607.12" y="463.1945">stop_tx/rx</text></g><!--entity debugControl--><g class="entity" data-qualified-name="runtime.debugControl" data-source-line="52" id="ent0043"><rect fill="#FFFFFF" height="46.2969" rx="2.5" ry="2.5" style="stroke:#000000;stroke-width:1;" width="136.9541" x="718.52" y="252.8994"/><rect fill="#FFFFFF" height="10" style="stroke:#000000;stroke-width:1;" width="15" x="835.4741" y="257.8994"/><rect fill="#FFFFFF" height="2" style="stroke:#000000;stroke-width:1;" width="4" x="833.4741" y="259.8994"/><rect fill="#FFFFFF" height="2" style="stroke:#000000;stroke-width:1;" width="4" x="833.4741" y="263.8994"/><text fill="#000000" font-family="Verdana" font-size="14" lengthAdjust="spacing" textLength="96.9541" x="733.52" y="285.8945">DebugControl</text></g><!--entity hook--><g class="entity" data-qualified-name="runtime.hook" data-source-line="53" id="ent0044"><rect fill="#FFFFFF" height="46.2969" rx="2.5" ry="2.5" style="stroke:#000000;stroke-width:1;" width="121.8057" x="562.1" y="252.8994"/><rect fill="#FFFFFF" height="10" style="stroke:#000000;stroke-width:1;" width="15" x="663.9057" y="257.8994"/><rect fill="#FFFFFF" height="2" style="stroke:#000000;stroke-width:1;" width="4" x="661.9057" y="259.8994"/><rect fill="#FFFFFF" height="2" style="stroke:#000000;stroke-width:1;" width="4" x="661.9057" y="263.8994"/><text fill="#000000" font-family="Verdana" font-size="14" lengthAdjust="spacing" textLength="81.8057" x="577.1" y="285.8945">DebugHook</text></g><!--entity taskRegistry--><g class="entity" data-qualified-name="runtime.taskRegistry" data-source-line="54" id="ent0045"><rect fill="#FFFFFF" height="46.2969" rx="2.5" ry="2.5" style="stroke:#000000;stroke-width:1;" width="134.9238" x="890.54" y="252.8994"/><rect fill="#FFFFFF" height="10" style="stroke:#000000;stroke-width:1;" width="15" x="1005.4638" y="257.8994"/><rect fill="#FFFFFF" height="2" style="stroke:#000000;stroke-width:1;" width="4" x="1003.4638" y="259.8994"/><rect fill="#FFFFFF" height="2" style="stroke:#000000;stroke-width:1;" width="4" x="1003.4638" y="263.8994"/><text fill="#000000" font-family="Verdana" font-size="14" lengthAdjust="spacing" textLength="94.9238" x="905.54" y="285.8945">Task Registry</text></g><g class="entity" data-qualified-name="GMN63" data-source-line="86" id="ent0064"><path d="M1310.35,240.7894 L1310.35,311.3206 L1527.6449,311.3206 L1527.6449,250.7894 L1517.6449,240.7894 L1310.35,240.7894" fill="#FFFFFF" style="stroke:#000000;stroke-width:1;"/><path d="M1517.6449,240.7894 L1517.6449,250.7894 L1527.6449,250.7894 L1517.6449,240.7894" fill="#FFFFFF" style="stroke:#000000;stroke-width:1;"/><text fill="#000000" font-family="Verdana" font-size="13" font-weight="bold" lengthAdjust="spacing" textLength="123.5" x="1316.35" y="257.8563">Synchronization:</text><text fill="#000000" font-family="Verdana" font-size="13" lengthAdjust="spacing" textLength="171.8818" x="1316.35" y="272.9891">&#8226; Arc&lt;Mutex&lt;Runtime&gt;&gt;</text><text fill="#000000" font-family="Verdana" font-size="13" lengthAdjust="spacing" textLength="196.2949" x="1316.35" y="288.1219">&#8226; Arc&lt;AtomicBool&gt; stop flags</text><text fill="#000000" font-family="Verdana" font-size="13" lengthAdjust="spacing" textLength="185.0913" x="1316.35" y="303.2547">&#8226; Condvar for pause/resume</text></g><g class="entity" data-qualified-name="GMN66" data-source-line="93" id="ent0067"><path d="M1810.9,595.5094 L1810.9,635.775 L2045.0987,635.775 L2045.0987,605.5094 L2035.0987,595.5094 L1810.9,595.5094" fill="#FFFFFF" style="stroke:#000000;stroke-width:1;"/><path d="M2035.0987,595.5094 L2035.0987,605.5094 L2045.0987,605.5094 L2035.0987,595.5094" fill="#FFFFFF" style="stroke:#000000;stroke-width:1;"/><text fill="#000000" font-family="Verdana" font-size="13" lengthAdjust="spacing" textLength="162.5444" x="1816.9" y="612.5763">Centralizes DAP ordering</text><text fill="#000000" font-family="Verdana" font-size="13" lengthAdjust="spacing" textLength="213.1987" x="1816.9" y="627.7091">+ breakpoint generation checks.</text></g><g class="entity" data-qualified-name="GMN69" data-source-line="98" id="ent0070"><path d="M1394.35,986.6494 L1394.35,1026.915 L1609.6581,1026.915 L1609.6581,996.6494 L1599.6581,986.6494 L1394.35,986.6494" fill="#FFFFFF" style="stroke:#000000;stroke-width:1;"/><path d="M1599.6581,986.6494 L1599.6581,996.6494 L1609.6581,996.6494 L1599.6581,986.6494" fill="#FFFFFF" style="stroke:#000000;stroke-width:1;"/><text fill="#000000" font-family="Verdana" font-size="13" lengthAdjust="spacing" textLength="129.3525" x="1400.35" y="1003.7163">Single read path for</text><text fill="#000000" font-family="Verdana" font-size="13" lengthAdjust="spacing" textLength="194.3081" x="1400.35" y="1018.8491">stack/vars/expr while paused.</text></g><g class="entity" data-qualified-name="GMN72" data-source-line="103" id="ent0073"><path d="M2150.87,595.5094 L2150.87,635.775 L2359.1322,635.775 L2359.1322,605.5094 L2349.1322,595.5094 L2150.87,595.5094" fill="#FFFFFF" style="stroke:#000000;stroke-width:1;"/><path d="M2349.1322,595.5094 L2349.1322,605.5094 L2359.1322,605.5094 L2349.1322,595.5094" fill="#FFFFFF" style="stroke:#000000;stroke-width:1;"/><text fill="#000000" font-family="Verdana" font-size="13" lengthAdjust="spacing" textLength="152.0645" x="2156.87" y="612.5763">Stop reason integrity +</text><text fill="#000000" font-family="Verdana" font-size="13" lengthAdjust="spacing" textLength="187.2622" x="2156.87" y="627.7091">breakpoint generation guard</text></g><g class="entity" data-qualified-name="GMN75" data-source-line="108" id="ent0076"><path d="M1183.24,1092.9294 L1183.24,1133.195 A0,0 0 0 0 1183.24,1133.195 L1392.7654,1133.195 A0,0 0 0 0 1392.7654,1133.195 L1392.7654,1102.9294 L1382.7654,1092.9294 L1292,1092.9294 L1288,1030.4094 L1284,1092.9294 L1183.24,1092.9294 A0,0 0 0 0 1183.24,1092.9294" fill="#FFFFFF" style="stroke:#000000;stroke-width:1;"/><path d="M1382.7654,1092.9294 L1382.7654,1102.9294 L1392.7654,1102.9294 L1382.7654,1092.9294" fill="#FFFFFF" style="stroke:#000000;stroke-width:1;"/><text fill="#000000" font-family="Verdana" font-size="13" lengthAdjust="spacing" textLength="172.8403" x="1189.24" y="1109.9963">IEC tasks map to threadId.</text><text fill="#000000" font-family="Verdana" font-size="13" lengthAdjust="spacing" textLength="188.5254" x="1189.24" y="1125.1291">step/pause apply per thread.</text></g><!--link protocolLoop to dispatch--><g class="link" data-entity-1="ent0003" data-entity-2="ent0004" data-link-type="dependency" data-source-line="14" id="lnk9"><path d="M949.47,785.2594 C967.14,808.3094 987.2992,834.6079 1003.2092,855.3579" fill="none" id="protocolLoop-to-dispatch" style="stroke:#000000;stroke-width:1;"/><polygon fill="#000000" points="1006.86,860.1194,1004.5581,850.5433,1003.8176,856.1515,998.2095,855.4111,1006.86,860.1194" style="stroke:#000000;stroke-width:1;"/></g><!--link dispatch to stopCoord--><g class="link" data-entity-1="ent0004" data-entity-2="ent0006" data-link-type="dependency" data-source-line="15" id="lnk10"><path d="M1039.82,859.8694 C1066.25,819.0294 1112.58,731.9694 1071,675.3394 C1045.93,641.1994 1006.9373,627.3108 967.4173,621.1008" fill="none" id="dispatch-to-stopCoord" style="stroke:#000000;stroke-width:1;"/><polygon fill="#000000" points="961.49,620.1694,969.76,625.518,966.4294,620.9455,971.0018,617.6149,961.49,620.1694" style="stroke:#000000;stroke-width:1;"/></g><!--link dispatch to bpManager--><g class="link" data-entity-1="ent0004" data-entity-2="ent0007" data-link-type="dependency" data-source-line="16" id="lnk11"><path d="M1036.82,907.0194 C1049.21,928.8094 1064.9138,956.4139 1077.2838,978.1639" fill="none" id="dispatch-to-bpManager" style="stroke:#000000;stroke-width:1;"/><polygon fill="#000000" points="1080.25,983.3794,1079.2776,973.5786,1077.7781,979.0331,1072.3236,977.5336,1080.25,983.3794" style="stroke:#000000;stroke-width:1;"/></g><!--link dispatch to pausedView--><g class="link" data-entity-1="ent0004" data-entity-2="ent0008" data-link-type="dependency" data-source-line="17" id="lnk12"><path d="M998.74,907.0194 C974.31,928.8094 941.9873,957.6351 917.6073,979.3851" fill="none" id="dispatch-to-pausedView" style="stroke:#000000;stroke-width:1;"/><polygon fill="#000000" points="913.13,983.3794,922.5087,980.3728,916.861,980.0508,917.183,974.4031,913.13,983.3794" style="stroke:#000000;stroke-width:1;"/></g><!--link ioRecv to GMN20--><g class="link" data-entity-1="ent0019" data-entity-2="ent0021" data-link-type="association" data-source-line="27" id="lnk22"><path d="M1708.6,639.2194 C1718.6,649.1294 1728.73,661.6294 1734,675.3394 C1740.53,692.3094 1732.75,710.9794 1723,725.7094" fill="none" id="ioRecv-GMN20" style="stroke:#000000;stroke-width:1;stroke-dasharray:7,7;"/></g><!--link dispatch to debugControl--><g class="link" data-entity-1="ent0004" data-entity-2="ent0043" data-link-type="dependency" data-source-line="58" id="lnk46"><path d="M938.07,880.6094 C693.47,874.1494 11,847.7594 11,754.6394 C11,452.3494 11,452.3494 11,452.3494 C11,296.9694 555.35,393.3194 701,339.1994 C724.48,330.4694 742.7507,317.403 758.9707,303.383" fill="none" id="dispatch-to-debugControl" style="stroke:#000000;stroke-width:1;stroke-dasharray:7,7;"/><polygon fill="#000000" points="763.51,299.4594,754.0853,302.3186,759.7272,302.7291,759.3168,308.371,763.51,299.4594" style="stroke:#000000;stroke-width:1;"/><text fill="#000000" font-family="Verdana" font-size="13" lengthAdjust="spacing" textLength="96.2686" x="12" y="620.2163">control actions</text></g><!--link dispatch to threadMap--><g class="link" data-entity-1="ent0004" data-entity-2="ent0005" data-link-type="dependency" data-source-line="59" id="lnk47"><path d="M1073.04,907.0194 C1120.31,928.7394 1185.9981,958.914 1233.3281,980.664" fill="none" id="dispatch-to-threadMap" style="stroke:#000000;stroke-width:1;stroke-dasharray:7,7;"/><polygon fill="#000000" points="1238.78,983.1694,1232.2724,975.7767,1234.2368,981.0816,1228.9319,983.0459,1238.78,983.1694" style="stroke:#000000;stroke-width:1;"/><text fill="#000000" font-family="Verdana" font-size="13" lengthAdjust="spacing" textLength="124.96" x="1172.81" y="949.7063">threads/stackTrace</text></g><!--link threadMap to taskRegistry--><g class="link" data-entity-1="ent0005" data-entity-2="ent0045" data-link-type="dependency" data-source-line="60" id="lnk48"><path d="M1359.26,987.3394 C1365.24,986.0094 1371.21,984.7494 1377,983.6394 C1535.81,953.0494 2098,1046.2194 2098,884.4894 C2098,452.3494 2098,452.3494 2098,452.3494 C2098,332.9094 1138.44,387.0594 1029,339.1994 C1008.74,330.3394 994.2135,317.9074 981.1235,304.0074" fill="none" id="threadMap-to-taskRegistry" style="stroke:#000000;stroke-width:1;stroke-dasharray:7,7;"/><polygon fill="#000000" points="977.01,299.6394,980.2682,308.9337,980.4379,303.2794,986.0922,303.4491,977.01,299.6394" style="stroke:#000000;stroke-width:1;"/><text fill="#000000" font-family="Verdana" font-size="13" lengthAdjust="spacing" textLength="172.1675" x="2099" y="688.4063">map tasks &#8594; DAP threadId</text></g><!--link debugControl to logChan--><g class="link" data-entity-1="ent0043" data-entity-2="ent0039" data-link-type="dependency" data-source-line="63" id="lnk49"><path d="M787,299.6094 C787,333.2694 787,390.2694 787,423.8794" fill="none" id="debugControl-to-logChan" style="stroke:#000000;stroke-width:1;"/><polygon fill="#000000" points="787,429.8794,791,420.8794,787,424.8794,783,420.8794,787,429.8794" style="stroke:#000000;stroke-width:1;"/><text fill="#000000" font-family="Verdana" font-size="13" lengthAdjust="spacing" textLength="66.1997" x="788" y="360.2663">DebugLog</text></g><!--link debugControl to ioChan--><g class="link" data-entity-1="ent0043" data-entity-2="ent0040" data-link-type="dependency" data-source-line="64" id="lnk50"><path d="M815.98,299.6694 C831.21,312.5094 849.46,329.5194 863,347.1994 C882.92,373.1994 896.9396,401.9575 906.4996,424.1875" fill="none" id="debugControl-to-ioChan" style="stroke:#000000;stroke-width:1;"/><polygon fill="#000000" points="908.87,429.6994,908.989,419.8512,906.8947,425.1061,901.6398,423.0118,908.87,429.6994" style="stroke:#000000;stroke-width:1;"/><text fill="#000000" font-family="Verdana" font-size="13" lengthAdjust="spacing" textLength="72.5601" x="875.13" y="360.2663">IoSnapshot</text></g><!--link hook to stopChan--><g class="link" data-entity-1="ent0044" data-entity-2="ent0041" data-link-type="dependency" data-source-line="65" id="lnk51"><path d="M626.09,299.6094 C630.7,333.2694 638.5064,390.3248 643.1064,423.9348" fill="none" id="hook-to-stopChan" style="stroke:#000000;stroke-width:1;"/><polygon fill="#000000" points="643.92,429.8794,646.6627,420.4201,643.242,424.9256,638.7365,421.5049,643.92,429.8794" style="stroke:#000000;stroke-width:1;"/><text fill="#000000" font-family="Verdana" font-size="13" lengthAdjust="spacing" textLength="72.3062" x="635.28" y="360.2663">DebugStop</text></g><!--link logChan to logRecv--><g class="link" data-entity-1="ent0039" data-entity-2="ent0014" data-link-type="dependency" data-source-line="67" id="lnk52"><path d="M812.99,476.8094 C824.98,485.8394 839.88,495.3194 855,500.4994 C868.69,505.1794 1361.46,528.3894 1375,533.4994 C1408.2,546.0194 1435.1803,568.624 1454.8203,588.014" fill="none" id="logChan-to-logRecv" style="stroke:#000000;stroke-width:1;"/><polygon fill="#000000" points="1459.09,592.2294,1455.4957,583.0598,1455.5319,588.7166,1449.8752,588.7528,1459.09,592.2294" style="stroke:#000000;stroke-width:1;"/></g><!--link ioChan to ioRecv--><g class="link" data-entity-1="ent0040" data-entity-2="ent0019" data-link-type="dependency" data-source-line="68" id="lnk53"><path d="M964.14,456.5294 C1095.47,463.2494 1469.04,486.1294 1581,533.4994 C1612.5,546.8294 1637.8703,568.9243 1656.5603,587.9943" fill="none" id="ioChan-to-ioRecv" style="stroke:#000000;stroke-width:1;"/><polygon fill="#000000" points="1660.76,592.2794,1657.3171,583.0519,1657.2602,588.7084,1651.6037,588.6515,1660.76,592.2794" style="stroke:#000000;stroke-width:1;"/></g><!--link stopChan to stopRecv--><g class="link" data-entity-1="ent0041" data-entity-2="ent0024" data-link-type="dependency" data-source-line="69" id="lnk54"><path d="M647,476.9794 C647,507.5294 647,555.6394 647,586.1294" fill="none" id="stopChan-to-stopRecv" style="stroke:#000000;stroke-width:1;"/><polygon fill="#000000" points="647,592.1294,651,583.1294,647,587.1294,643,583.1294,647,592.1294" style="stroke:#000000;stroke-width:1;"/></g><!--link stopRecv to stopCoord--><g class="link" data-entity-1="ent0024" data-entity-2="ent0006" data-link-type="dependency" data-source-line="70" id="lnk55"><path d="M657.03,592.1794 C673,558.7694 706.78,503.0094 749.5,516.9994 C794.63,531.7694 832.8534,563.9012 857.5734,588.1112" fill="none" id="stopRecv-to-stopCoord" style="stroke:#000000;stroke-width:1;"/><polygon fill="#000000" points="861.86,592.3094,858.2289,583.1543,858.2878,588.8109,852.6313,588.8698,861.86,592.3094" style="stroke:#000000;stroke-width:1;"/></g><!--link remotePoller to protocolLoop--><g class="link" data-entity-1="ent0029" data-entity-2="ent0003" data-link-type="dependency" data-source-line="72" id="lnk56"><path d="M332.84,461.2194 C284.34,469.9894 226.81,489.6594 196,533.4994 C161.79,582.1594 156.1,623.2294 196,667.3394 C236.98,712.6494 682.45,714.2994 743,722.3394 C781.15,727.4094 817.6482,733.3245 852.0282,739.2845" fill="none" id="remotePoller-to-protocolLoop" style="stroke:#000000;stroke-width:1;stroke-dasharray:7,7;"/><polygon fill="#000000" points="857.94,740.3094,849.7555,734.8309,853.0135,739.4553,848.389,742.7133,857.94,740.3094" style="stroke:#000000;stroke-width:1;"/><text fill="#000000" font-family="Verdana" font-size="13" lengthAdjust="spacing" textLength="147.7671" x="197" y="612.7163">stopped/output events</text><text fill="#000000" font-family="Verdana" font-size="13" lengthAdjust="spacing" textLength="92.6567" x="224.5552" y="627.8491">(attach mode)</text></g><!--link remotePoller to stopCoord--><g class="link" data-entity-1="ent0029" data-entity-2="ent0006" data-link-type="dependency" data-source-line="73" id="lnk57"><path d="M488.04,476.9494 C515.41,485.0494 546.98,493.8294 576,500.4994 C659.96,519.7994 687.28,500.8494 767,533.4994 C801.54,547.6394 831.4255,569.5045 853.9155,588.1945" fill="none" id="remotePoller-to-stopCoord" style="stroke:#000000;stroke-width:1;stroke-dasharray:7,7;"/><polygon fill="#000000" points="858.53,592.0294,854.1648,583.2007,854.6846,588.8337,849.0516,589.3535,858.53,592.0294" style="stroke:#000000;stroke-width:1;"/><text fill="#000000" font-family="Verdana" font-size="13" lengthAdjust="spacing" textLength="153.7339" x="745.55" y="521.5663">uses StopGate ordering</text></g><!--link cycleExec to runtime--><g class="link" data-entity-1="ent0034" data-entity-2="ent0042" data-link-type="dependency" data-source-line="76" id="lnk58"><path d="M1119.23,138.8694 C1104.72,146.3194 1090.91,156.1094 1081,168.8994 C1073.7675,178.2419 1068.8838,189.415 1065.6306,200.9519 C1064.8173,203.8361 1065.3589,200.8753 1064.7382,203.7821" fill="none" id="cycleExec-to-runtime" style="stroke:#000000;stroke-width:1;"/><polygon fill="#000000" points="1063.4853,209.6498,1069.2765,201.6835,1064.5294,204.76,1061.4529,200.0129,1063.4853,209.6498" style="stroke:#000000;stroke-width:1;"/><text fill="#000000" font-family="Verdana" font-size="13" lengthAdjust="spacing" textLength="102.4131" x="1082" y="181.9663">execute_cycle()</text></g><!--link logRecv to protocolLoop--><g class="link" data-entity-1="ent0014" data-entity-2="ent0003" data-link-type="dependency" data-source-line="79" id="lnk59"><path d="M1439.65,639.1994 C1420.54,649.0794 1397.11,660.0494 1375,667.3394 C1243.71,710.6794 1089.0763,733.8166 999.9063,744.6366" fill="none" id="logRecv-to-protocolLoop" style="stroke:#000000;stroke-width:1;stroke-dasharray:7,7;"/><polygon fill="#000000" points="993.95,745.3594,1003.3663,748.2461,998.9136,744.7571,1002.4026,740.3044,993.95,745.3594" style="stroke:#000000;stroke-width:1;"/><text fill="#000000" font-family="Verdana" font-size="13" lengthAdjust="spacing" textLength="84.0366" x="1340.67" y="688.4063">output event</text></g><!--link ioRecv to protocolLoop--><g class="link" data-entity-1="ent0019" data-entity-2="ent0003" data-link-type="dependency" data-source-line="80" id="lnk60"><path d="M1643.23,639.1994 C1624.98,649.1894 1602.44,660.2694 1581,667.3394 C1374.64,735.4594 1120.8885,749.3365 999.8585,752.0165" fill="none" id="ioRecv-to-protocolLoop" style="stroke:#000000;stroke-width:1;stroke-dasharray:7,7;"/><polygon fill="#000000" points="993.86,752.1494,1002.9463,755.9492,998.8588,752.0387,1002.7692,747.9511,993.86,752.1494" style="stroke:#000000;stroke-width:1;"/><text fill="#000000" font-family="Verdana" font-size="13" lengthAdjust="spacing" textLength="99.2266" x="1548.11" y="688.4063">stIoState event</text></g><!--link stopRecv to protocolLoop--><g class="link" data-entity-1="ent0024" data-entity-2="ent0003" data-link-type="dependency" data-source-line="81" id="lnk61"><path d="M678.75,639.1894 C691.48,648.0994 706.34,658.3394 720,667.3394 C737.5,678.8794 741.15,683.1594 760,692.3394 C791.28,707.5894 821.779,719.2392 852.359,729.6292" fill="none" id="stopRecv-to-protocolLoop" style="stroke:#000000;stroke-width:1;stroke-dasharray:7,7;"/><polygon fill="#000000" points="858.04,731.5594,850.8052,724.8767,853.3058,729.9509,848.2316,732.4514,858.04,731.5594" style="stroke:#000000;stroke-width:1;"/><text fill="#000000" font-family="Verdana" font-size="13" lengthAdjust="spacing" textLength="93.7358" x="761" y="688.4063">stopped event</text></g><!--link stopCoord to protocolLoop--><g class="link" data-entity-1="ent0006" data-entity-2="ent0003" data-link-type="dependency" data-source-line="82" id="lnk62"><path d="M871.52,639.0894 C864.67,654.4594 858.89,675.1094 866,692.3394 C870.56,703.3994 874.0727,709.1924 882.4427,717.8224" fill="none" id="stopCoord-to-protocolLoop" style="stroke:#000000;stroke-width:1;stroke-dasharray:7,7;"/><polygon fill="#000000" points="886.62,722.1294,883.2255,712.884,883.1389,718.5402,877.4828,718.4537,886.62,722.1294" style="stroke:#000000;stroke-width:1;"/><text fill="#000000" font-family="Verdana" font-size="13" lengthAdjust="spacing" textLength="199.3101" x="867" y="688.4063">ordered stopped + invalidated</text></g><!--link runtime to GMN63--><g class="link" data-entity-1="ent0042" data-entity-2="ent0064" data-link-type="association" data-source-line="86" id="lnk65"><path d="M1069.128,238.9321 C1069.1806,238.7596 1069.2336,238.5867 1069.2868,238.4137 C1069.4999,237.7213 1069.718,237.0244 1069.9412,236.3234 C1070.834,233.5196 1071.8086,230.6509 1072.8713,227.7469 C1081.3725,204.5144 1095.51,179.0194 1118.5,166.3994 C1178.89,133.2494 1208.17,144.5394 1273.5,166.3994 C1316.99,180.9594 1357.9,214.1994 1385.19,240.2894" fill="none" id="runtime-GMN63" style="stroke:#000000;stroke-width:1;stroke-dasharray:7,7;"/></g><!--link stopCoord to GMN66--><g class="link" data-entity-1="ent0006" data-entity-2="ent0067" data-link-type="association" data-source-line="93" id="lnk68"><path d="M961.43,596.6794 C1064.52,572.4994 1252.89,532.0194 1416.5,516.9994 C1496.39,509.6594 1700.63,494.0494 1777.5,516.9994 C1828.69,532.2794 1878.64,571.1594 1906.17,595.2994" fill="none" id="stopCoord-GMN66" style="stroke:#000000;stroke-width:1;stroke-dasharray:7,7;"/></g><!--link pausedView to GMN69--><g class="link" data-entity-1="ent0008" data-entity-2="ent0070" data-link-type="association" data-source-line="98" id="lnk71"><path d="M921.88,983.1594 C944.22,969.0694 974.74,952.5294 1004.5,945.1394 C1156.77,907.3294 1203.79,913.7194 1357.5,945.1394 C1395.98,952.9994 1436.89,971.5294 1465.32,986.2294" fill="none" id="pausedView-GMN69" style="stroke:#000000;stroke-width:1;stroke-dasharray:7,7;"/></g><!--link stopT to GMN72--><g class="link" data-entity-1="ent0023" data-entity-2="ent0073" data-link-type="association" data-source-line="103" id="lnk74"><path d="M759.0104,582.0108 C759.4264,580.7362 759.8618,579.4451 760.3172,578.1411 C761.2281,575.5332 762.2192,572.8739 763.2962,570.1931 C771.9125,548.7469 786.025,525.9244 808.5,516.9994 C842.01,503.6894 2071.98,506.5794 2106.5,516.9994 C2157.17,532.2894 2206.41,571.1694 2233.52,595.2994" fill="none" id="stopT-GMN72" style="stroke:#000000;stroke-width:1;stroke-dasharray:7,7;"/></g><?plantuml-src ZLRDRkCs4BxhATZqqFmWTbkW5sCH8F4kjWOID8Y30WK21BGqaGXB79Ma77kB0Ztr0Ve8VRHzaiwGb29PshO-MSDlXjyCPpxoArT01Q8kfTA9tIfTIoChaM9LemRjrkvGWcYgyliaSShH__UmQN9ndSdQWH6FXG6PYMkJ5if1wXe3ILBBT2jp42Tt53L2JeIqekBltn91lsu7SN9lq66AfRX5h9-qQVIpTPd2qpFlLCTbNZrspPIjfKkBPmE_Dc1TT6dDn_10vKxMDHWFTAtX6BbsM2yHJQQqT1Z0jhKTWsyeoBP6fTsTr9HuW6_g-3NALpOMihMJ3dvMy1gIz3R-J3oydxIulBmQfjH--9KXhS7IaC9WgRVXxxqJkyMyVs0bve_YwrkL5-wZ0PWuF7PuW1JKBgPDBlIzypYD3iG6dSDg8PQe2UDiw23oUzAV__nBOEFgnWdOKJWxuBBwgKz5OSlafcnWJ8JG0nuAfsayKDalIrLHksPFsheL-fE819xqwNS_V5jHgrAdqe62sSdoR42BMwDFZElVKbkYaUMOctSPi6Ed_rCczWnrOeyQiexd1T4ZRYeZyjbK-HwWuhZtM9PnK-Cj_y4rkF6-8yzW65DckwKOsXcQujNzaggOCViPaxPdKmaCgJPQTs8IDlIMbkelK9RuEkQwFAIaI1_sa3RjaAPiOij4PINJ18-6Pmyy9Mvqq8uteSubWI5QL56vaPPuBGj9D4eR8iUFCGrg-MUtdvjzEm3iTmnIsCCed89mXNeWFzWC8qvfYKtc2-LK1Ms9-F-OZc-SPJYD88SzmoJuHyIjHnRqPoIQqcwfUNDbdJa4rIHBQs1otmWlz45CkGyqtGGAjKqwoPdDhWOqnABh5pc5xOIPWE6_dLj7_V9eP0h9sx87z_WGlY8pcwpWjdj_VHyZh3Ac6izqIBFFZDKndY45QyLgZ0bdI11I42rhMw1Bk7vlejoBmFEK96tOk8KNW1WcHFIMphSDr5dvpv7c9_tHzDKON1sBTkpc0vsb0PMEobc82ZCu6mVfDg08T55OmGbyP9qa6nYbSwvbdDktKYRT-7cQROikZgUEdUFJ8V2YfaB_F4XYNQPIwQUGX69DPppGzBVAVRawFMJ8UcftJfoWhSj0W3cXzK6dvCHN2-cyJRpu62yj-DBMma_N-JbZ2uDQVP9SjyNvkL_u_CVV_9PwTqUrsh-BqtvrDLYx9Z5JwGrY6Ov9l9Gojns4MZJRIIDUq8HBVcx0DhGnwCphON94RFX-M58Tw5vGd-ZCUNIwu-R52x7fdZeY1pfxpvwa4TAjdNrnYzvZWyEiAHxfjZz-6lc2kVe5F-5pOc_diA-DU2qKuOBtx5yJU0o1kHmKrcAul7EZt45S-BLfvdaZAV6ZoE72uD33z-7gmp8AYvSOx7Hb5jb3FVTa1RqmouEWLsQ4zCZ_0m00?></g></svg>